<svg xmlns="http://www.w3.org/2000/svg" viewBox="0 0 968.54 956.35"><defs><style>.cls-1{fill:#ebe89e;}</style></defs><g id="Layer_2" data-name="Layer 2"><g id="Layer_1-2" data-name="Layer 1"><path class="cls-1" d="M255.33,242.52q31,33.42,57.86,63Q286,276.26,255.33,242.52ZM484.92,115.07q.3-53.28.33-115.07Q484.91,61.67,484.92,115.07Zm129.8,237.82c29.41-30.4,63.13-65.42,100.5-105C677,286.82,643.49,322.1,614.72,352.89Zm-74-63.29c10-34.54,20.93-73,32.42-115.27C560.75,216.42,550,255,540.69,289.6Zm-250,384.77q-18.36,16.85-38.08,35.33Q272.54,691.42,290.73,674.37ZM427,712.21q-11.75,41.88-25,90.61C411.3,770.4,419.59,740.12,427,712.21ZM558.74,785.4q3.57,14,7.36,28.71Q562.38,799.44,558.74,785.4Zm94.55,13.28q33.87,61.23,75.88,136.14Q687.65,859.73,653.29,798.68ZM559.35,550.79,578,568.86c110.86,60.06,82.2,61.75,7.25,7,34,32.78,76.25,73.15,126.68,118.88-65.69-53.33-120.09-96.63-159.47-128.26,76.72,97.47,70.6,132.94-36.17-16.74,26.15,46.17,69.93,127.66,137,248.93-76.5-136.17-126.68-222.3-151.53-269L498.49,528l-.65-1.1.4,0,2.61,1-.22-.42c-.16-.22-.31-.45-.47-.68l-1.92.08-.53-.2a1.59,1.59,0,0,1,.13.22l-1.46.06,2.11,1c128,218.71,58.86,161.32.4,14.32C510.54,587,529.28,669.7,558.74,785.4c-25.37-98-47.35-173-60.73-221,24.18,126.89-.61,176.74-9.48,60.34-.43,73.37-1.48,182-.87,331.64-1.35-147.67-3.93-256.77-5.33-330.77-10.5,143.24-39.59,36.77-3.48-88.57-3.6,11.18-7.37,22-11.22,32.39-10.27,36.4-24.26,84.49-40.62,142.81,11.69-44,21.21-82.05,28.95-113.21C404.5,722.26,351.7,758.64,472.13,535l.68-2.55C443.69,590.25,367.81,720,244.63,946,314,811.18,365.79,708.84,403.3,635.56c-61.86,83.89-42.11,18.9,49.9-96q3.81-7.1,7.15-13.17c-32.24,27-91.4,76.26-169.62,148,42.6-39.87,78.27-74.42,107-102.23-48.56,32.3-80.79,40.57-74.66,24.28C258.53,633.46,173.45,681.28,65,739.8c108-62.54,193.71-110,258.83-145.15,4.93-10.06,22.1-27.82,55.4-53.37l-8.65,2.64c-95,58.91-83,41.55-7.08,2.15-48.9,14.78-111.77,32.6-187.24,51.09,79-24.65,145.1-42.47,195.74-55.45q5.26-2.69,10.88-5.46l-7.23,4.52,6.37-1.62q4.64-3.51,9.65-7.22c17.6-8.55,37.46-17.72,59.27-27.09l-7.83-.61q4.44.16,8.42.35,4.89-2.1,9.92-4.21,3.48,1.1,7,2.24-3.36-1.19-6.67-2.39l.27-.11-1.59-.37,1.32.48-.34.15c-1.69-.54-3.38-1.06-5.06-1.58l-1.5-.34q-10.62,2.66-20.79,4.91l-.23.16,9.24.71-9.78-.36q-14.49,9.47-27.26,17.65,11.79-8.37,25.45-17.59c-130.77,28.61-200,8.3-96.39-3.13C256.79,498.24,146.44,493.9,0,484.48c163.21,3,281.78,8.89,361.18,13.94,21.23-1.6,47.3-2.85,78.7-3.49l-3.32-.78c-205.5-3.71-179.93-36.22-62.16-15.36-51-13.11-117.87-31.63-198.28-57.26,116.76,29,203.67,53.7,255.57,67.1-151.08-61.75-192-133.48-7.06-19.73q-11.89-7.84-22.3-15c-66.5-38.34-175.86-103.63-337.6-195.65C187.7,326.83,282,378.13,350,415.39c-80-64.82,5.39-40.37,115.5,59.19-25.72-27.32-76.76-86.21-152.26-169.1,41.29,44.33,76.4,80.83,103.91,109.55-49-65.94-61.3-111.18-34.51-85.61-36.82-63.65-84.47-145.9-144.85-248C311.11,203,367.84,294.74,408.34,360.32c11.07,15.09,24.48,35.07,40.27,60.66-88.73-156.24-40.08-118.91,9.57,15.72q3.6,6,7.33,12.3c-13.35-53.45-34.85-147.25-69.15-271.58,28.11,98.92,52.26,176.6,68.78,230.8-14.13-119,6.59-159.44,17.17-43.78.73-59.1,2-141.25,2.61-249.37,0,154.69,1.66,258.58,1.57,319q.3,8.5.55,17.59c-.22.77-.44,1.54-.67,2.3,0,.48,0,.95,0,1.41l.72-2.07q.19,7.11.33,14.59l.07,0q0-8,0-15.56c6.35-18.06,13.11-34.92,19.92-50.26,9.2-30.6,20.53-68.25,33.33-112.38-9.52,35.34-17.56,66.52-24.33,93,37.09-76.28,71.1-103.52,45-31.94C601.84,281.44,658.6,183.91,732,53.29,639.34,219.12,577,335,537.77,406.6c-6.85,14.76-14.9,31.36-24.29,49.91l-5.06,3-1.48,2.58,4.91-2.33-.58,1.15,1.41-1.54-.83.39c.55-1.07,1.1-2.15,1.63-3.21l3.45-2-.31.54.71-.77-.4.23c89.65-152.65,108.6-131.1,62.65-65.34q16.35-16.86,35.14-36.26-22.07,23.61-40.4,43.59a459.27,459.27,0,0,1-41.9,48.89L526,449.15l-6.4,6.92,1.66-.76q4.08-3.49,8.09-6.87-2.94,2.94-6,5.9c50.28-23.15,86.36-35.81,110.06-41.26,66.77-38.39,157.16-89.55,273.13-155.56C799.82,321,715.71,371.75,651.58,410c38.42-3.27,11.89,27.55-56,49.88,52-12.69,120.93-29.86,204-53.16-72.54,24.73-133.57,46-182,62.62,55.35,2.34,83.38,15.6,63.07,29,73.39.86,168.6,2.31,287.8,5.69-121.86-1.48-218.71-2.62-292.86-2.84-13.64,6.69-39.74,13.23-80.91,18.27-14.79-3-31-6.84-48.37-11.85q17.22,6.51,32.36,12.84,6.12-.29,11.87-.5c-3.35.39-6.79.78-10.33,1.15,14.72,6.18,27.87,12.16,39.24,17.76,46.68,16,104.57,35.26,172.64,56.26-47.89-11.27-91-21.25-128.73-30.09,20.21,17.31-7.69,18.62-103.46-15.13,67.1,42.36,179,111.78,341.13,217.22C736,662.65,625.29,592,559.35,550.79l-1.75-1.69-2.25-.8Zm-89.43-56.27-3.34.9,2.63,1.7,6.42-2.63h0l1.63-.67c.06.22.13.44.19.66h1c-.08-.19-.17-.4-.25-.61l-.59-.18-.34.14-.09-.29c-.51-.17-1-.36-1.6-.57-1.84.52-3.68,1-5.5,1.52l-5,0,.15.1Zm16.53,5.07-.09.09v0Zm-1.16,1.12a2.93,2.93,0,0,1-.05.29l.47-.54-.08-.07Zm3,4.28c.19-.34.38-.68.56-1a.14.14,0,0,0,0-.06l-.56,1Zm-13.2-18.37.75.5c-.13-.4-.25-.8-.39-1.22l-1.07-1.57C474.6,485.09,474.83,485.85,475.07,486.62Zm3.38,7.86h-1l.57,1.93.77-1.1C478.69,495.05,478.57,494.78,478.45,494.48Zm24.2-15.24-.89.09-2.52,4.83.76-.23C500.89,482.35,501.78,480.79,502.65,479.24ZM456,494.66c2.81,0,5.66-.07,8.55-.09l-.17-.11-9.53-.07Zm78.26,40.56-3.09-2.69-2.34-.65Zm-24.79-67.9-2.42,2.16-.41.43-4,7.67,1-.18Q506.63,472.26,509.47,467.32Zm-15.65.6c-.05.15-.09.3-.14.44l.28-.52Zm-6.41.07c0,.66,0,1.32,0,2,0-.05,0-.09,0-.14,0-.63,0-1.26,0-1.88Zm-24.89-19.27c1.8,3,3.48,5.82,5.06,8.49-.5-2-1-4-1.54-6.1q-3.56-6-6.89-11.79Q460.83,444,462.52,448.72Zm6,48.69.32-.14-2.75-1.73-2.87.76Q466,496.92,468.54,497.41Zm13.11,20,.54-1c0-.29.05-.56.07-.84L482,516C481.88,516.46,481.77,516.92,481.65,517.39Zm15.09,8.93-2.48-1c.07.22.13.46.2.69l.84.41Zm2.88-.27-3.06-4.43-2.39-1,3.28,5.58ZM515,536.22l-6.43-5.3-4.1-1.58,1.37,2.32Zm-27.59-86c45.27-160.08.41-261.45,0,0Zm41.94-1.75c1.75-1.48,3.49-2.93,5.22-4.37l-2.18,1.3Zm-41.94,3.8v-2.05c-.13.48-.27.95-.4,1.42s0,1.09,0,1.64Zm-17.36,42.24-.16,0,5.36,0Zm-64,27q-12.39,8-23.19,14.73,4.29-2.13,8.79-4.32Q398.48,526.91,406.06,521.52Zm190.2-1.73c103.55,20.43,135.54-4.43,0,0Zm0,0-1.49-.29-4.14.49ZM534.6,444.07c191.61-113.8,118.22-98,0,0Z"/><path d="M431.24,696.19l.31-.11.9-3.19-.35.05C431.81,694,431.53,695.1,431.24,696.19Z"/><path d="M678.29,561.35c-.76,1.13.52,1,.9,1.33s1.1,1.41,1.56.45a8.55,8.55,0,0,1,2.46-2.81l-2.7-.89a3.77,3.77,0,0,1-1,.21C679.06,559.66,678.69,560.76,678.29,561.35Z"/><path d="M409.5,343.61c-.75-.51-1.55-.95-2.25-1.51q1.17,2.61,2.55,5.54l0,0C411.4,345.55,411.33,344.86,409.5,343.61Z"/><path d="M558.21,358.21a13.55,13.55,0,0,0,4.44,2.79l.76-1.41,0,0C561.82,357.82,560,358.29,558.21,358.21Z"/><path d="M564.05,354.59a0,0,0,0,1,0,0l.35.1c-.11.17-.22.35-.35.54v0c.57,0,1.16-.06,1.72,0,.27-.5.54-1,.82-1.5A2.78,2.78,0,0,0,564.05,354.59Z"/><path d="M485.19,304.29a.94.94,0,0,0,.5,0c0-1.46,0-2.92,0-4.39a3.05,3.05,0,0,1-2.06-.87,2.55,2.55,0,0,0-.43-.35l-.06,4.52C483.36,303.08,484.44,304,485.19,304.29Z"/><path d="M498.3,302.94c1.77-.05,1.75-1.15,1.72-1.51a21.91,21.91,0,0,0-.13-2.25c0-.2-.42-.51-.47-.48-.33.19-.76.41-.87.72-.29.78.38,2.67-1.48,1.29-.26,1.08-.53,2.25-.8,3.49a1.79,1.79,0,0,0,.37-.18C497.21,303.67,497.74,303,498.3,302.94Z"/><path d="M563.7,347a.19.19,0,0,0-.07-.12L563,348l.35,0C563.46,347.94,563.65,347.32,563.7,347Z"/><path d="M561.1,344.63a14.54,14.54,0,0,0-.14-2.28l-.61-.18.4-.61.12,0c0-.14,0-.28,0-.42s-.35-.39-.47-.35a.82.82,0,0,0-.5.48c-.21.63-.14,1.47-.54,1.89-.8.83-.94-.49-1.48-.66l-.5-.19c-.19.4-.41.78-.56,1.19-.07.22-.11.62,0,.69,1.66,1.08,1.11,3.55,2.9,4.53.13,1.62.89.56,1.2.19a2.58,2.58,0,0,1,1.48-.91l.5-1.44C561.62,346.63,561,346.07,561.1,344.63Z"/><path d="M394.05,353.19c-.89-.08-1.85.27-2.59-.54-.47-.52-.73-.48-1,.05-.6,1-1.32,2-1.94,3a3.31,3.31,0,0,0-.23,1c.26.17.56.26.65.44,1.23,2.56,3-1.9,4.2.29a3.73,3.73,0,0,0,1.76-3.26C394.75,353.79,394.36,353.22,394.05,353.19Z"/><path d="M468.09,692.59c.93-1.14,1.14-2.09.24-2.68s-1.6-1-2.39-1.6a2,2,0,0,0-1.56-.44,20.25,20.25,0,0,0,1.53,4.06,7.42,7.42,0,0,1,1.13.85C467.6,693.28,467.66,693.13,468.09,692.59Z"/><path d="M523.31,351.61c.26.3.51.62.78.92.14-.51.27-1,.4-1.54l-.5-.08C523.26,350.74,522.85,351.09,523.31,351.61Z"/><path d="M676.05,562.84c.19-.08.28-.38.41-.59a8.4,8.4,0,0,0-1.19-.52c-.2-.06-.47.08-1.49.28-.37.12-1.86.12-2.54.87a22.87,22.87,0,0,1-3,3.32l2.61.61a1.64,1.64,0,0,0,.36-.29A17.89,17.89,0,0,1,676.05,562.84Z"/><path d="M654.28,427.8a3.4,3.4,0,0,0-1.36.31c-.7.53-.72,1.74-1.9,1.85-1.37.13-1.31,1.12-1,2,.22.69.75,1,1.61.85a2.76,2.76,0,0,1,1.75.54c.41-.28.81-.55,1.2-.83.25-1.28.49-2.57.63-3.87C655.22,428.43,654.6,428.1,654.28,427.8Z"/><path d="M325,556.85c.58.22,1.06.37.94-.28-.21-1.14.4-2,.73-3l-3.85,1A4.65,4.65,0,0,0,325,556.85Z"/><path d="M418.51,598.87c1.38.1,2.89-.2,3,2a3.19,3.19,0,0,0,1.86.27,1.07,1.07,0,0,0,.68-1.65c-1.16-1.42-2.44-2.72-2.53-4.71,0-.14-.38-.26-.58-.39a4.82,4.82,0,0,0-.44.35c-1,1-1.09,2.69-2.69,3.13C418,598.19,418.24,598.85,418.51,598.87Z"/><path d="M645.44,523c.49.4,1.81-.18,2.75-.37.18,0,.36-.29.47-.48s.14-.46.07-.51c-1-.78-2.19-1.39-3.24-2.14l-2.9-.07A16.4,16.4,0,0,0,645.44,523Z"/><path d="M462,332.81c-.18-.42-1-.57-1.62-.77,0,.95,0,1.91,0,2.9a3.26,3.26,0,0,1,1.24-.35A2.26,2.26,0,0,0,462,332.81Z"/><path d="M617.45,255.93c-.09.17.47.88.49.87a1.67,1.67,0,0,1,1.55,0c.92-1.68,1.85-3.38,2.79-5.08C620.42,252.8,618.52,253.92,617.45,255.93Z"/><path d="M556.74,356.06a3.46,3.46,0,0,1-1.44-3.68c-.95,0-1.9,0-2.85,0-1.49.05-1.52.1-.77,1.46.21.39.69.76.67,1.13-.06,1.71.95,1.88,2.27,1.78.71-.05,1.42,0,2.14,0C556.76,356.51,556.85,356.14,556.74,356.06Z"/><path d="M411.72,375.92c.68,0,1.36-.06,2-.09a19.58,19.58,0,0,0,2.65-.87c.24-.12.27-.81.29-1.24,0-.87-.73-1.47-1.29-1.21a31.47,31.47,0,0,0-3.87,2.45c-.18.12-.4.41-.37.58A.75.75,0,0,0,411.72,375.92Z"/><path d="M260.85,914.47l-.41.79.64-.55A2.55,2.55,0,0,1,260.85,914.47Z"/><path d="M540.26,711.64l-.33-1.36a3.68,3.68,0,0,0-.5.82C539.3,711.41,539.72,711.63,540.26,711.64Z"/><path d="M420.67,360.93c.24-.1.31-.65.45-1-1-.4-1.64-1.7-3-1.43-1.22.24-1.44,1.34-2,2.16l.54,1.08a13.23,13.23,0,0,0,2-.36A11.52,11.52,0,0,0,420.67,360.93Z"/><path d="M449.26,453.56a3.45,3.45,0,0,0-1.11-1.56c-.27-.19-.9.14-1.37.24a5.4,5.4,0,0,1-.7.13,1.21,1.21,0,0,0-.76.25c.76.84,1.5,1.65,2.23,2.47a4.22,4.22,0,0,0,1.24-.35A1.28,1.28,0,0,0,449.26,453.56Z"/><path d="M422.53,592.92a3.61,3.61,0,0,0,.44.33.16.16,0,0,1,0-.1,5.11,5.11,0,0,1,.46-1l.52.52-.48.86a2.3,2.3,0,0,1,1.32,1.81c0,.29.59.53.91.8l.44-1.23a4,4,0,0,0-2.54-3.73c-.57-.24-1.58-.37-1.91-.05C420.49,592.29,422,592.46,422.53,592.92Z"/><path d="M419.54,385.16c.33-.19.45-.75.66-1.14l-1.26-.4a4.08,4.08,0,0,0-3.8,2.73c-.08.16.42.85.61.84,1-.1,1.89-.47,2.85-.5C419.8,386.65,418.9,385.51,419.54,385.16Z"/><path d="M667.33,570.55c.31-.59.47-.8-.24-1a2.84,2.84,0,0,0-.64-.1c-1.11,0-1.38,1.08-2.07,1.56-.4.28-1.36-.26-2.07-.43-.06.42-.13.85-.24,1.58.41.24.92.8,1.43.81A4.05,4.05,0,0,0,667.33,570.55Z"/><path d="M246.5,942.39l.07.08,1-1.86-.13-.08Z"/><path d="M657.05,500c.84-1.76,2.35-2,4-2.29.21,0,.36-.63.46-1a.84.84,0,0,0-.55-.35c-.68.08-1.35.25-2,.39v-.06a9.6,9.6,0,0,0-2,.44c-1.12.5-.67,1.46-.58,2.35C656.33,500.2,656.8,500.55,657.05,500Z"/><path d="M383,558.74a1.36,1.36,0,0,0-1,.72,3.42,3.42,0,0,0-.05,1.4,2.73,2.73,0,0,0,0,.7c.12.42.3.82.45,1.22a4.1,4.1,0,0,0,1-.47,6.86,6.86,0,0,0,1.43-1.52,1.46,1.46,0,0,0,0-1.34A3.43,3.43,0,0,0,383,558.74Z"/><path d="M635.59,379.73l.37-.27a.45.45,0,0,0-.32.17Z"/><path d="M486,671.47a9,9,0,0,0-2,.84c-.26.18-.31.83-.23,1.23a1.63,1.63,0,0,0,.71,1.06c1,.43,3.64-1.71,3.27-2.65C487.58,671.6,486.55,671.6,486,671.47Z"/><path d="M545.67,631.2c-.12.2-.33.38-.37.59-.29,1.49-.57,3-.8,4.48,0,.16.19.37.33.54.45.59.64.44,1-.18.67-1.2,1.71-2.26.92-3.78a1.8,1.8,0,0,0-.16-.7A8.23,8.23,0,0,0,545.67,631.2Z"/><path d="M471.3,680.81c-.15-.06-.73.4-.78.68a4.31,4.31,0,0,0,.24,1.38,3.35,3.35,0,0,1,.13.69,1.12,1.12,0,0,0,1.34,1.18c.59-.1,1.43-.56,1.57-1s-.33-1.28-.75-1.75A5.22,5.22,0,0,0,471.3,680.81Z"/><path d="M421.52,606.23c-.47,1.2-1.63,1.47-2.58,2-.25.14-.19.8-.28,1.23,0,.23,0,.58.16.66a4,4,0,0,0,1,.37c.39-1.53,2.35-1.33,2.91-2.61a1.76,1.76,0,0,0-.28-1.34C422.34,606.34,421.53,606.21,421.52,606.23Z"/><path d="M510.54,458c.74-.72,1.85-1.33,2.08-2.18.14-.51-1.11-1.39-1.74-2.1-.86.85-2,1.47-2.09,2.24C508.71,456.55,509.91,457.32,510.54,458Z"/><path d="M425.38,374.58c.29-.51.28-1-.36-.91s-1.4.21-2.09.35l.95,1.81C424.52,375.75,424.94,375.37,425.38,374.58Z"/><path d="M523,356.77l.39-1.52a4.35,4.35,0,0,1-1-.17,7.45,7.45,0,0,0-.83-.33l-.6,2h0C521.84,356.75,522.46,356.79,523,356.77Z"/><path d="M504.35,348a1.17,1.17,0,0,0,1,1.48,1.91,1.91,0,0,0,.95-.27c.08-.89.15-1.78.22-2.66a6.15,6.15,0,0,0-1.67.3C504.59,346.93,504.46,347.55,504.35,348Z"/><path d="M523.35,350.25c.1-.56,1.1-.92,1.29-1.51a2.65,2.65,0,0,0-.38-1.84.57.57,0,0,0-.34-.21c-.42,1.41-.85,2.84-1.26,4.23C523.23,351.2,523.24,350.86,523.35,350.25Z"/><path d="M484.72,235.86a1.26,1.26,0,0,0,.52,0c0-1.25,0-2.51,0-3.78-.23-.4-.64-.53-1.26-.55,0,.84,0,1.7,0,2.54a3.54,3.54,0,0,1,.06.77A1.29,1.29,0,0,0,484.72,235.86Z"/><path d="M404.43,335.38a3.14,3.14,0,0,0-.15-.69c-.19-.39-.43-.76-.64-1.14l-.07,0q.48,1.17,1,2.43c-.06-.21-.14-.43-.18-.64Z"/><path d="M388.45,631.51c.48,0,1,0,1.46,0a1.34,1.34,0,0,0,.1-.72c-.57-.29-1-.82-1.58-1.16-.4.63-.77,1.24-1.15,1.86a4,4,0,0,0,.8.33C388.19,631.64,388.34,631.51,388.45,631.51Z"/><path d="M386.41,363.42c0,1.2.86,1.43,1.89,1.17a1.19,1.19,0,0,0,1-1.47c-.16-1.29-.86-1.62-2.41-1.21C385.43,362.1,386.38,363,386.41,363.42Z"/><path d="M471.06,678.18a9.76,9.76,0,0,0-2.33-1.48c-.14-.06-.78,1-1.11,1.62a4,4,0,0,0-.28,1c.42.07.84.17,1.27.21a2.4,2.4,0,0,0,.68-.13,4.11,4.11,0,0,0,1.34-.31A1.37,1.37,0,0,0,471.06,678.18Z"/><path d="M471.77,687.9c-.53.18-.92.75-1.22,1,.08,1.23.53,1.75,1.28,1.83A26.08,26.08,0,0,0,473,688,1.35,1.35,0,0,0,471.77,687.9Z"/><path d="M595.24,356.61c.16-.4.49-.81.47-1.21-.09-1.71-1.8-1.89-2.77-2.78l-.5,1.22C592.53,355.62,594.32,355.68,595.24,356.61Z"/><path d="M652.14,413.39a1.21,1.21,0,0,0,1.17-1.4c0-1.15-.7-1.68-2.17-1.39-.17.29-.72.78-.76,1.31C650.3,413.06,651.05,413.53,652.14,413.39Z"/><path d="M524.13,434.25c.11.07.21.17.32.24l.55-1.12-.47.3A2.06,2.06,0,0,0,524.13,434.25Z"/><path d="M489.66,440.19a1.21,1.21,0,0,0-1.62-.84,2.94,2.94,0,0,0-.56.24c0,.77,0,1.55,0,2.32a2.38,2.38,0,0,0,1.12.28C489.68,442.1,490.1,441.26,489.66,440.19Z"/><path d="M424.62,603.9c-.47.24-.71.93-.91,1.21.31,1.46,1.06,1.89,2.13,1.45a1.21,1.21,0,0,0,.83-1.62C426.37,603.88,425.65,603.38,424.62,603.9Z"/><path d="M559.52,577.4a4.33,4.33,0,0,0,1.27.18l.2-.05-1.07-1.41a3.63,3.63,0,0,1-.55.83S559.46,577.25,559.52,577.4Z"/><path d="M562.58,574.62c.14.1.27.21.4.32,0-.11-.09-.24-.14-.25Z"/><path d="M652.46,313.75l-1.06.22-1,1,.39.47Z"/><path d="M485,172.65a2.49,2.49,0,0,1-.47.69v.13l.47.17Z"/><path d="M655.3,505c-1.29-.54-1.17-1.76-1.43-2.81a1.11,1.11,0,0,0-1.19,1.26,27.17,27.17,0,0,0,.63,3.31,7.27,7.27,0,0,0,2-.45C655.79,506,656.31,505.41,655.3,505Z"/><path d="M347.67,569a7.71,7.71,0,0,0,1.39-.26c.23-.05.51,0,.68-.16a10.26,10.26,0,0,0,1-.91,9.78,9.78,0,0,0-1.22-.5c-.43-.11-.92-.11-1.36-.2-.56.51-1.12,1-1.66,1.52A1.31,1.31,0,0,0,347.67,569Z"/><path d="M328,567.12c-.48.24-.72.94-.91,1.21a2.5,2.5,0,0,0,.61,1.3l2.37-1.36s0-.07,0-.11C329.72,567.1,329,566.6,328,567.12Z"/><path d="M337.4,560.74c-.53.17-.93.74-1.22,1,.09,1.5.73,2,1.82,1.83l.2,0,.73-.43a1.47,1.47,0,0,0,.24-.93C339.15,561,338.44,560.4,337.4,560.74Z"/><path d="M666.07,522a7.12,7.12,0,0,1,.88-1.28l-1.93-.17a2,2,0,0,0,.12.52Z"/><path d="M569.85,343.67c1.09-.09,1.63-.67,1.42-2.16a4.06,4.06,0,0,0-1.39-.74c-1.09-.13-1.67.62-1.46,1.76A1.22,1.22,0,0,0,569.85,343.67Z"/><path d="M668.82,166.74a.74.74,0,0,0-.46-.49l-.29-.06c-.28.48-.55,1-.82,1.44.38-.13.77-.25,1.13-.41C668.57,167.13,668.84,166.89,668.82,166.74Z"/><path d="M258.07,115.08l-2.34-3.86a.91.91,0,0,0-.25.27l2.1,3.57C257.74,115.06,257.93,115.09,258.07,115.08Z"/><path d="M355.43,576.37a.63.63,0,0,0-.63.12c-.55.72-1,1.47-1.53,2.23a.64.64,0,0,0,0,.47c.4.13.81.22,1.22.32,1.42-.35,1.52-.59,1.11-2.5C355.54,576.78,355.56,576.46,355.43,576.37Z"/><path d="M336.09,580.2c-.35.59-.72,1.17-1,1.79a6,6,0,0,0-.27,1,4.72,4.72,0,0,0,1.94,0c.74-.34.7-1.68.07-2.39A3.88,3.88,0,0,0,336.09,580.2Z"/><path d="M635.52,507.32c.27-.4-.1-1.3-.35-1.92a1.56,1.56,0,0,0-.92-.54c-.55.71-1,1.48-1.55,2.26.3.22.61.64.91.63C634.28,507.74,635.26,507.72,635.52,507.32Z"/><path d="M389.75,631.72a2.43,2.43,0,0,1-1.67,0c-.07.08-.12.17-.11.21.11.34.29.82.56.92a4.13,4.13,0,0,0,1.41,0,9.46,9.46,0,0,0,1.41,0c.19,0,.51-.37.48-.47-.11-.34-.33-.9-.55-.92a12.44,12.44,0,0,0-1.37-.07A.45.45,0,0,1,389.75,631.72Z"/><path d="M388.45,631.51c-.11,0-.26.13-.37.26a2.43,2.43,0,0,0,1.67,0,.45.45,0,0,0,.16-.26C389.42,631.47,388.93,631.48,388.45,631.51Z"/><path d="M645.5,487.8c-.12.65-.19,1.31-.27,2,.36.62.68,1.2,1,1.75a.58.58,0,0,0,.46-.09,3.84,3.84,0,0,0-.77-3.77A.54.54,0,0,0,645.5,487.8Z"/><path d="M415,595.49c-.17.11-.26.36-.53.78.87.56,1.74,1.14,2.64,1.67a.66.66,0,0,0,.62-.14c.09-.13-.06-.42-.1-.65C417.27,595.28,416.28,594.64,415,595.49Z"/><path d="M415.43,593.84l1.1-.67a4.3,4.3,0,0,0-.61-.88,8.4,8.4,0,0,0-1.16-.78l-.58-.39c-.16.41-.49.83-.46,1.22C413.81,593.61,414.31,594,415.43,593.84Z"/><path d="M381.62,409l.29,0-.94-.62C381.16,408.64,381.42,409,381.62,409Z"/><path d="M402.27,321.54c-.34.6-.72,1.18-1,1.79a5.16,5.16,0,0,0-.28,1.06,4.89,4.89,0,0,0,1.94,0c.74-.33.7-1.67.07-2.39A4,4,0,0,0,402.27,321.54Z"/><path d="M373.32,332c-.14,0-.27.35-.4.53a5.66,5.66,0,0,0,2.39,1.95.65.65,0,0,0,.36-.55c-.08-.63-.06-1.49-.45-1.8S374,332,373.32,332Z"/><path d="M379.27,332.29a1.93,1.93,0,0,0-1.35.27,1.69,1.69,0,0,0-.13,2.4,2.71,2.71,0,0,0,.58.4c.13-.16.28-.31.4-.48.27-.39.49-.8.78-1.16C380.05,333.1,380.12,332.53,379.27,332.29Z"/><path d="M409.81,408c-.31.18-.75.45-.79.73a4.11,4.11,0,0,0,.24,1.39,9.16,9.16,0,0,0,.3,1.38c.07.18.46.43.56.37.31-.17.81-.49.79-.72a18,18,0,0,0-.54-2.78C410.32,408.22,409.91,408,409.81,408Z"/><path d="M407.1,363a9.4,9.4,0,0,0,.78-1.16c.11-.17.18-.37.28-.56-.41-.14-.84-.44-1.23-.4-1,.09-1.74.54-1.42,1.75l.73,1.09A6.69,6.69,0,0,0,407.1,363Z"/><path d="M389.64,368.78c-.22,0-.55,0-.64.15a.68.68,0,0,0,.12.63c.72.54,1.48,1,2.23,1.53a.64.64,0,0,0,.47,0,2.67,2.67,0,0,0,.3-1.21C391.83,368.47,391.55,368.37,389.64,368.78Z"/><path d="M429.26,367.66c-.19-.41-.38-.81-.58-1.21,0,.19-.06.38-.1.53Z"/><path d="M502.19,351c-.49.46-.95,1-1.47,1.39s-.79,1,0,1.46a1.85,1.85,0,0,0,1.37,0,1.69,1.69,0,0,0,.61-2.33A2.76,2.76,0,0,0,502.19,351Z"/><path d="M592.35,346.06c.4.16.82.5,1.21.46,1.51-.13,2-1.09,1.35-2.39-.09-.18-.34-.28-.56-.45a1.07,1.07,0,0,0-.6.25h0c-.46.4-.56,1.13-1,1.54A2.56,2.56,0,0,0,592.35,346.06Z"/><path d="M410.51,397.36c-.26.28-.61.59-.66.93a4.69,4.69,0,0,0,.24,1.35,5.93,5.93,0,0,1,.26,1.36c0,.72.21.92.83.53.17-.12.4-.38.38-.54-.13-1.1-.3-2.18-.52-3.26C411,397.57,410.54,397.34,410.51,397.36Z"/><path d="M520.6,365a.61.61,0,0,0,.2.31c.22-.84.43-1.69.65-2.54a1.39,1.39,0,0,0-.79.37C520.34,363.5,520.55,364.35,520.6,365Z"/><path d="M466.14,346.51a3.68,3.68,0,0,0,1.24.46,6.65,6.65,0,0,0,2.07-.43c.38-.14.65-.59,1-.9a10,10,0,0,0-1.25-.48,1.75,1.75,0,0,0-.69.13,5.14,5.14,0,0,0-1.38.31A4.34,4.34,0,0,0,466.14,346.51Z"/><path d="M461.76,589.84a1.83,1.83,0,0,1-.48.32c-.11.06-.37-.22-.56-.35l.41-.34c-.28-.12-.58-.21-.8-.32l-1.27.84.5.49a8.41,8.41,0,0,0,1,1,2.72,2.72,0,0,0,.71.33l.54-1.89Z"/><path d="M467.71,305.3a6.12,6.12,0,0,0-.53-1,10.29,10.29,0,0,0-1-1c-.15-.14-.33-.26-.5-.39-.22.38-.6.73-.64,1.13-.11,1,.19,1.81,1.44,1.74Z"/><path d="M538.38,298.21c.23-.85.46-1.7.69-2.57h-.13c-.24.8-.47,1.62-.71,2.42Z"/><path d="M381,451.05a3.83,3.83,0,0,0,.76,3.77.54.54,0,0,0,.46-.09c.12-.65.19-1.31.28-2-.36-.62-.68-1.2-1-1.75A.56.56,0,0,0,381,451.05Z"/><path d="M441,463.81l-1.08.73a6.63,6.63,0,0,0,.71.86,11.2,11.2,0,0,0,1.16.78c.18.11.38.19.56.28.15-.41.45-.84.41-1.23C442.65,464.21,442.2,463.49,441,463.81Z"/><path d="M419.79,467.69c.65,0,1.48.27,1.91,0a.85.85,0,0,0,.25-.39l-1.69-1a4.64,4.64,0,0,0-.25.42A5.15,5.15,0,0,0,419.79,467.69Z"/><path d="M421.15,464.88c-.12.2-.25.39-.38.59s-.28.4-.42.6l1.64,1.08c.11-.38.15-.85.24-1.19C421.78,465.5,421.47,465.19,421.15,464.88Z"/><path d="M486.46,687.1a5.19,5.19,0,0,0-1-.25l-.21,1.28c.29,1.08.84,1.4,2,1,.34-.11.59-.51.87-.81a.62.62,0,0,0,0-.13l-.49-.34A10.61,10.61,0,0,0,486.46,687.1Z"/><path d="M652.52,196.61l.72-1.3-.36-.18c-.59,0-1,0-1.36,0l-.76,1.33a.91.91,0,0,0,.31.12A6.36,6.36,0,0,0,652.52,196.61Z"/><path d="M480.57,625.19a5.66,5.66,0,0,0-1.4,2.75c.19.12.45.37.58.32.61-.23,1.44-.41,1.69-.88s-.14-1.22-.31-1.83A.68.68,0,0,0,480.57,625.19Z"/><path d="M469.79,628.35a9.75,9.75,0,0,0,.76-1.17,5.87,5.87,0,0,0,.27-1.06c-.65,0-1.47-.3-1.91,0s-.42,1.15-.57,1.66l1.05,1.1Z"/><path d="M591.22,622.07a1,1,0,0,0-.34.55,14.87,14.87,0,0,0,.43,2.67c.11.36.62.85.93.84,1.4-.06.14-1,.41-1.4a12.21,12.21,0,0,0-.46-2l0-.06C592,622.37,591.56,622.22,591.22,622.07Z"/><path d="M264,910.23a.52.52,0,0,0,.11.19l1.25-2.28C264.13,908.18,263.61,909,264,910.23Z"/><path d="M440.13,585.62c.37.24.75.69,1.11.68a11.59,11.59,0,0,0,2.45-.68,12.42,12.42,0,0,0-2.45-.68C440.88,584.93,440.5,585.38,440.13,585.62Z"/><path d="M550.88,323.77l-.45.59c.32-.11.68-.23,1.15-.37Z"/><path d="M453.2,579.8c0-.17-.27-.42-.47-.48a2.57,2.57,0,0,0-1.29-.21.77.77,0,1,0,0,1.38,4.06,4.06,0,0,0,1.3-.19C452.91,580.13,453.2,580,453.2,579.8Z"/><path d="M565.26,309.66a.49.49,0,0,1,0-.12,12.11,12.11,0,0,0-1.27.67A1.36,1.36,0,0,0,565.26,309.66Z"/><path d="M563.76,312.6c.09-.11.1-.44,0-.47-.38-.2-.79-.35-1.42-.61-.3.31-1,.8-1,1C561.67,313.34,563.22,313.33,563.76,312.6Z"/><path d="M432.87,316.08l.3,1.18c.43-.14.85-.38,1.28-.55A10.61,10.61,0,0,0,432.87,316.08Z"/><path d="M323.16,568.65a1.17,1.17,0,0,0,.47-.65l-1,.58,0,0C322.78,568.69,323,568.64,323.16,568.65Z"/><path d="M636.65,480.41A12.24,12.24,0,0,0,636,478a11.94,11.94,0,0,0-.69,2.45c0,.37.44.74.69,1.11C636.21,481.15,636.66,480.78,636.65,480.41Z"/><path d="M526.79,342.14c.11-.41.21-.81.31-1.21a1.7,1.7,0,0,0-1.42-.17c-.13.42-.25.84-.38,1.26A1.76,1.76,0,0,0,526.79,342.14Z"/><path d="M567.25,349c.18.57,1,.72,1.69.49l.54-1c-.35-.17-.73-.31-1.28-.54C567.9,348.23,567.17,348.72,567.25,349Z"/><path d="M544.88,350.43c0-.17,0-.38,0-.49a1.57,1.57,0,0,0-2.39,0,.56.56,0,0,0,0,.49A1.6,1.6,0,0,0,544.88,350.43Z"/><path d="M337.23,384.73a1.24,1.24,0,0,0,.11.61,8.79,8.79,0,0,0,2-.41.63.63,0,0,0,.23-.23l-1.77-.78A1.72,1.72,0,0,0,337.23,384.73Z"/><path d="M405.9,370.4c0,.13,0,.45.06.47.42.12.85.19,1.52.32.23-.37.85-1,.73-1.21C407.8,369.26,406.29,369.58,405.9,370.4Z"/><path d="M567.42,329.36c-.73.55-.74,2.09.05,2.34a.19.19,0,0,0,.12,0c.18-.65.35-1.28.51-1.91-.07-.15-.13-.3-.21-.44S567.53,329.28,567.42,329.36Z"/><path d="M610.26,497c0-.17,0-.38,0-.49a1.57,1.57,0,0,0-2.39,0,.54.54,0,0,0,0,.48A1.6,1.6,0,0,0,610.26,497Z"/><path d="M505.57,338.78c0-.16,0-.38-.05-.49a1.56,1.56,0,0,0-2.39,0,.54.54,0,0,0,0,.48A1.6,1.6,0,0,0,505.57,338.78Z"/><path d="M395.87,340.76l.12-.44-1.05-1.7a.74.74,0,0,0-.1.5A7.14,7.14,0,0,0,395.87,340.76Z"/><path d="M395,345.45a12.07,12.07,0,0,0-2.28,1.16,12.1,12.1,0,0,0,2.55.18c.35-.06.63-.58.94-.89C395.76,345.74,395.31,345.37,395,345.45Z"/><path d="M534.77,689.37l-.72-1.1c-.25.37-.72.76-.68,1.1a7.13,7.13,0,0,0,.68,1.81Z"/><path d="M256.93,922.09c.15.19.32.38.45.57l.67-1.22a4,4,0,0,0-.31-.92Z"/><path d="M414.88,609.88c-.16,0-.37,0-.49,0a1.58,1.58,0,0,0,0,2.4.54.54,0,0,0,.48,0A1.59,1.59,0,0,0,414.88,609.88Z"/><path d="M400.14,621.29c.68.23.93,0,.67-.67a.87.87,0,0,0-.44-.48,2.71,2.71,0,0,0-1.23-.27,3.78,3.78,0,0,0-1.11.57c.26.29.46.71.77.82A4.27,4.27,0,0,0,400.14,621.29Z"/><path d="M420.05,618.9c-.08.24.65.73.95,1,.63-.27,1-.41,1.42-.62.06,0,.05-.36,0-.47C421.84,618.12,420.3,618.11,420.05,618.9Z"/><path d="M411.29,604.29a.54.54,0,0,0,0,.48,1.56,1.56,0,0,0,2.39,0c.08-.11,0-.32,0-.49A1.59,1.59,0,0,0,411.29,604.29Z"/><path d="M483.21,602.49c-.16.08-.43.12-.46.24-.16.61-.23,1.25-.4,1.87s0,.92.68.67a1.05,1.05,0,0,0,.49-.44C484,603.83,483.84,602.65,483.21,602.49Z"/><path d="M488,599.35c-.29.31-1,.8-1,1,.25.79,1.8.78,2.34.05.08-.11.1-.44,0-.47C489,599.77,488.61,599.62,488,599.35Z"/><path d="M473.86,626.17a.54.54,0,0,0,0,.48,1.59,1.59,0,0,0,2.4,0c0-.16,0-.38,0-.49A1.57,1.57,0,0,0,473.86,626.17Z"/><path d="M686,499.42a1.31,1.31,0,0,0,.11.62,9.17,9.17,0,0,0,2-.42c.28-.11.42-.61.56-1,0,0-.08-.1-.19-.18l-1.63,0A1.53,1.53,0,0,0,686,499.42Z"/><path d="M342.56,574.36a1,1,0,0,0,.34-.54,2,2,0,0,0-.38-1.64l-1.1,1.07a3.54,3.54,0,0,0,.18.55C341.71,574.08,342.21,574.22,342.56,574.36Z"/><path d="M341.32,582.44a.53.53,0,0,0-.47.13,1.59,1.59,0,0,0,.51,2.35c.16,0,.37,0,.47-.14A1.58,1.58,0,0,0,341.32,582.44Z"/><path d="M636.56,490.15c-.09.71.19.9.79.52a.94.94,0,0,0,.39-.53,2.78,2.78,0,0,0,0-1.25,3.91,3.91,0,0,0-.78-1c-.23.31-.6.59-.65.92A4.19,4.19,0,0,0,636.56,490.15Z"/><path d="M513.58,411.84a.57.57,0,0,0,.49,0,1.59,1.59,0,0,0,0-2.4c-.17,0-.38,0-.49,0A1.58,1.58,0,0,0,513.58,411.84Z"/><path d="M656.43,500.17a5.25,5.25,0,0,0-1.89.44c-.4.29-.46,1-.67,1.57a5.1,5.1,0,0,0,1.89-.45C656.15,501.45,656.22,500.71,656.43,500.17Z"/><path d="M555.47,562.3c1.36-.06.43-1,.33-1.41s-.68-.84-1-1.25c-.13.4-.25.81-.38,1.21,0,.22,0,.5.15.65C554.8,561.82,555.16,562.31,555.47,562.3Z"/><path d="M559.54,561.47c.28-.11.42-.61.56-1a1,1,0,0,0-.54-.35c-.93-.09-1.76.09-2.11,1.11a1.31,1.31,0,0,0,.11.62A9.17,9.17,0,0,0,559.54,561.47Z"/><path d="M492.58,563.33c-.48.11-.84.69-1.25,1.06l1.2.37c.22,0,.51,0,.65-.15.32-.27.82-.64.8-1C493.92,562.3,493,563.24,492.58,563.33Z"/><path d="M597.15,545.91a.56.56,0,0,0-.13-.47,1.59,1.59,0,0,0-2.35.51c0,.16,0,.37.14.47A1.57,1.57,0,0,0,597.15,545.91Z"/><path d="M480.62,572.76c0-.63,0-1.28,0-1.91s-.2-.9-.8-.52a.94.94,0,0,0-.39.53c-.29,1.07.11,2.19.77,2.23C480.36,573,480.61,572.88,480.62,572.76Z"/><path d="M421.62,587.76c-.06-.36-.58-.63-.89-.94-.16.4-.53.86-.45,1.21a13.09,13.09,0,0,0,1.16,2.27A12,12,0,0,0,421.62,587.76Z"/><path d="M430,475.34l.93.93c.17-.41.55-.89.45-1.21a7.14,7.14,0,0,0-1-1.64C430.21,474.06,430.09,474.7,430,475.34Z"/><path d="M627.3,436.37c.23-.37.84-1,.72-1.21-.4-.72-1.91-.4-2.3.42-.06.13,0,.45.06.47C626.2,436.17,626.63,436.24,627.3,436.37Z"/><path d="M660.33,426.85c-.13-.06-.32,0-.49,0a1.52,1.52,0,0,0-.12,1.78l1.28-1.07A1.4,1.4,0,0,0,660.33,426.85Z"/><path d="M427.64,481.54a1.74,1.74,0,0,0-2.11,1.1,1.31,1.31,0,0,0,.11.62,8.61,8.61,0,0,0,2-.42c.28-.11.42-.61.56-1A1,1,0,0,0,427.64,481.54Z"/><path d="M450.42,442.63a7.14,7.14,0,0,0-1.64,1l1.91.35.94-.94C451.22,442.91,450.74,442.53,450.42,442.63Z"/><path d="M490.62,436.38c.05.16,0,.38.14.47a1.25,1.25,0,0,0,.24.16c.11-.44.23-.88.34-1.31A1.21,1.21,0,0,0,490.62,436.38Z"/><path d="M446.5,447.15a.92.92,0,0,0-.52-.39c-1.08-.29-2.2.11-2.23.77.11.14.21.39.32.4.64,0,1.28,0,1.92,0S446.89,447.75,446.5,447.15Z"/><path d="M314.29,475.27c0,.16,0,.38.14.47a1.57,1.57,0,0,0,2.34-.51.52.52,0,0,0-.13-.46A1.59,1.59,0,0,0,314.29,475.27Z"/><path d="M436.51,451.66c-.25,0-.59.79-.83,1.14a14.15,14.15,0,0,0,.89,1.27c0,.05.36,0,.45-.13C437.63,453.26,437.33,451.75,436.51,451.66Z"/><path d="M358.26,472.26c0,.16,0,.38.14.47a1.57,1.57,0,0,0,2.34-.51.58.58,0,0,0-.13-.47A1.6,1.6,0,0,0,358.26,472.26Z"/><path d="M620,486.52a.58.58,0,0,0,.48-.07,1.57,1.57,0,0,0-.44-2.35c-.13-.06-.33,0-.49,0A1.6,1.6,0,0,0,620,486.52Z"/><path d="M409.05,502.91c-.57.39-.94.61-1.27.89,0,0,0,.36.13.45.68.61,2.19.31,2.28-.51C410.22,503.49,409.41,503.15,409.05,502.91Z"/><path d="M524.7,654.76a3.7,3.7,0,0,0,1-.78c-.3-.23-.59-.6-.91-.65a4.18,4.18,0,0,0-1.33.23,1.17,1.17,0,0,0-.27,0l.33,1.18A2.75,2.75,0,0,0,524.7,654.76Z"/><path d="M594.32,628.57a1,1,0,0,0,.34-.54,1.74,1.74,0,0,0-1.1-2.11,1.31,1.31,0,0,0-.62.11,8.61,8.61,0,0,0,.42,2C593.47,628.29,594,628.43,594.32,628.57Z"/><path d="M407.15,672.64c.05,0,.33-.34.35-.54a1.74,1.74,0,0,0-1.11-2.11.57.57,0,0,0-.31,0c-.08.21-.16.41-.23.61a6.91,6.91,0,0,0,.34,1.46C406.31,672.36,406.81,672.5,407.15,672.64Z"/><path d="M524.54,647.21l-1.08-1.08c-.17.41-.55.89-.45,1.21a7.14,7.14,0,0,0,1,1.64C524.21,648.36,524.39,647.74,524.54,647.21Z"/><path d="M500.07,688.69l.16.21a.79.79,0,0,1,0-.09Z"/><path d="M484.82,693.76c-.06-.36-.58-.63-.89-1-.07.17-.16.34-.25.52,0,.42,0,.85,0,1.28.21.43.53.92.94,1.69A12.05,12.05,0,0,0,484.82,693.76Z"/><path d="M532.35,686.69c.12.42.23.84.35,1.25A1.81,1.81,0,0,0,532.35,686.69Z"/><path d="M472,619.47a7.16,7.16,0,0,0,.3-1.91c0-.34-.57-.63-.88-.94a11.58,11.58,0,0,0-.48,1.23,1.74,1.74,0,0,0,.13.68Z"/><path d="M428.22,598.3c0-.34-.57-.63-.88-.94a9.77,9.77,0,0,0-.48,1.23c-.05.2.08.45.12.68l.94.94A7.16,7.16,0,0,0,428.22,598.3Z"/><path d="M627,560a7.14,7.14,0,0,0-1-1.64c-.18.62-.35,1.24-.5,1.77l1.08,1.08C626.69,560.83,627.07,560.35,627,560Z"/><path d="M419.56,604.84c.36-.06.64-.58.95-.89-.41-.17-.87-.53-1.22-.45a11.77,11.77,0,0,0-2.27,1.16A12.75,12.75,0,0,0,419.56,604.84Z"/><path d="M531.33,587.55a.53.53,0,0,0-.13-.47,1.59,1.59,0,0,0-2.35.51c0,.16,0,.37.15.47A1.57,1.57,0,0,0,531.33,587.55Z"/><path d="M660.05,570.24a.52.52,0,0,0-.13-.47,1.6,1.6,0,0,0-2.35.51c0,.16,0,.38.15.47A1.56,1.56,0,0,0,660.05,570.24Z"/><path d="M634.6,604l-1.08-1.09c-.16.41-.55.89-.44,1.22a7.69,7.69,0,0,0,1,1.64C634.28,605.14,634.46,604.51,634.6,604Z"/><path d="M397.46,657.44c.05.16,0,.38.15.47a1.57,1.57,0,0,0,2.34-.51.53.53,0,0,0-.14-.46A1.59,1.59,0,0,0,397.46,657.44Z"/><path d="M410.66,634.83c-.56.38-.93.61-1.27.88-.05,0,0,.37.13.46.68.61,2.2.3,2.28-.52C411.83,635.41,411,635.07,410.66,634.83Z"/><path d="M418.62,400.27a.52.52,0,0,0-.46.13,1.59,1.59,0,0,0,.5,2.35c.16-.05.38,0,.47-.14A1.57,1.57,0,0,0,418.62,400.27Z"/><path d="M381.88,421.62a7.16,7.16,0,0,0,1.91.3c.34,0,.63-.57.94-.88-.4-.16-.88-.55-1.21-.45A7.74,7.74,0,0,0,381.88,421.62Z"/><path d="M528.58,363.79c.2-.38.35-.79.61-1.42-.31-.3-.8-1-1-.95-.79.25-.78,1.79,0,2.33C528.22,363.84,528.55,363.85,528.58,363.79Z"/><path d="M480.87,383.84c0-.25-.79-.58-1.14-.83-.57.39-.94.62-1.27.89-.06,0,0,.36.12.46C479.26,385,480.78,384.66,480.87,383.84Z"/><path d="M409.8,403.29c.32-.28.81-.64.8-1-.06-1.36-1-.43-1.41-.33a2.15,2.15,0,0,0-.95.76l.35.49.56.18C409.37,403.39,409.65,403.42,409.8,403.29Z"/><path d="M411.3,383.68c.19.95.39,1.9.58,2.85a1.13,1.13,0,0,0,1.18-1.36C413,384.19,412.62,383.31,411.3,383.68Z"/><path d="M429.44,380.27c-.12-.06-.45,0-.47.06-.12.41-.18.84-.32,1.51.37.23,1,.85,1.21.73C430.58,382.17,430.27,380.65,429.44,380.27Z"/><path d="M423.53,363.38a12.47,12.47,0,0,0-.68,2.46c0,.36.44.73.68,1.1.25-.37.7-.74.69-1.1a7.11,7.11,0,0,0-.46-1.75l-.11-.1A.66.66,0,0,1,423.53,363.38Z"/><path d="M431,386.22c0-.05-.34-.33-.54-.35a2.58,2.58,0,0,0-1.19.11l.73,1.34a3.22,3.22,0,0,0,.44-.14C430.7,387.06,430.84,386.56,431,386.22Z"/><path d="M595.19,373.47c0,.11,0,.22.08.32l1-1.11A1.38,1.38,0,0,0,595.19,373.47Z"/><path d="M425.89,389l1.2.37c.22,0,.5,0,.65-.15s.27-.22.4-.35l-.7-1.07a1.91,1.91,0,0,1-.31.14C426.66,388.06,426.3,388.64,425.89,389Z"/><path d="M581.3,372.08a7.59,7.59,0,0,0-1.91-.3c-.34,0-.63.57-.94.88l1.42.58Z"/><path d="M359.32,420.27l1.77.5c.46-.45.77-.77,1.08-1.08-.41-.16-.89-.55-1.21-.44A7.45,7.45,0,0,0,359.32,420.27Z"/><path d="M420,386.37c-.71-.08-.9.19-.52.8a.88.88,0,0,0,.53.38,2.65,2.65,0,0,0,1.25,0,3.74,3.74,0,0,0,1-.78c-.31-.23-.59-.6-.92-.65A4.17,4.17,0,0,0,420,386.37Z"/><path d="M406.38,398.34c-.13-.06-.45,0-.47.06-.07.23-.12.48-.18.77l1,1.47h0C407.52,400.24,407.2,398.72,406.38,398.34Z"/><path d="M417,380.64c.64,0,1.28,0,1.91,0s.91-.2.52-.81a1,1,0,0,0-.52-.39c-1.08-.28-2.2.12-2.23.77C416.77,380.37,416.88,380.63,417,380.64Z"/><path d="M621.32,382.51c.16-.41.54-.89.44-1.22a3.26,3.26,0,0,0-.5-.91l-.75.47c0,.24-.08.48-.13.72Z"/><path d="M535.07,376.06c.16,0,.38,0,.47-.14a1.57,1.57,0,0,0-.51-2.34.58.58,0,0,0-.47.13A1.6,1.6,0,0,0,535.07,376.06Z"/><path d="M280.18,879.52l.42.76.39-.71c-.09-.19-.19-.37-.29-.56Z"/><path d="M416.25,612.24c.19.13.45.41.56.36a4.48,4.48,0,0,0,.87-.65c-.19-.12-.45-.4-.56-.35A5.26,5.26,0,0,0,416.25,612.24Z"/><path d="M522.4,589.88c-.11.34-.22.69-.32,1l.61.41a5,5,0,0,0,.25-1C522.94,590.14,522.59,590,522.4,589.88Z"/><path d="M408.84,616c.06-.23.14-.45.19-.68a1.77,1.77,0,0,0-.2.17c-.12-.23-.24-.46-.35-.7-.08.27-.17.55-.25.81Z"/><path d="M500.35,598.81c.4-.42.91-.95-.05-1.28-.13,0-.46.51-.7.79,0,.21.09.42.13.64C499.94,598.91,500.23,598.94,500.35,598.81Z"/><path d="M661.91,564.92c0-.12-.35-.25-.54-.38-.11.35-.22.69-.32,1l.61.41A5,5,0,0,0,661.91,564.92Z"/><path d="M499.17,600.43a5.45,5.45,0,0,0,.67-.85.62.62,0,0,0-.13-.6.63.63,0,0,0-.6.12,3.14,3.14,0,0,0-.48,1C498.62,600.13,499,600.3,499.17,600.43Z"/><path d="M411.14,620a3.92,3.92,0,0,0,.25-1.05c0-.12-.35-.25-.54-.37-.11.34-.22.69-.32,1Z"/><path d="M406.48,603.31l-.82.69c.19.13.45.4.56.35a4.74,4.74,0,0,0,.87-.64C406.89,603.59,406.7,603.46,406.48,603.31Z"/><path d="M406.24,606.86c.19.12.45.4.56.35a4.81,4.81,0,0,0,.87-.65c-.19-.12-.45-.4-.56-.35A4.81,4.81,0,0,0,406.24,606.86Z"/><path d="M429.07,602.2c.19.13.45.41.56.36a4.42,4.42,0,0,0,.86-.65c-.19-.12-.44-.4-.56-.35A4.8,4.8,0,0,0,429.07,602.2Z"/><path d="M411.1,608.84l-1-.32-.4.61a4.77,4.77,0,0,0,1,.25C410.85,609.38,411,609,411.1,608.84Z"/><path d="M453,601.42l.2.22-.18.1q.27.33.57.66c.12-.19.4-.44.35-.56a4.42,4.42,0,0,0-.65-.86Z"/><path d="M573.82,577.43a4.74,4.74,0,0,0-.64-.87c-.13.2-.25.39-.41.62l.7.81C573.6,577.8,573.87,577.54,573.82,577.43Z"/><path d="M525.82,588.44c-.19-.13-.45-.4-.56-.35a4.74,4.74,0,0,0-.87.64c.19.13.45.4.56.35A4.74,4.74,0,0,0,525.82,588.44Z"/><path d="M665.64,560c-.19-.13-.45-.4-.56-.35a4.43,4.43,0,0,0-.87.64c.19.13.45.4.56.35A4.74,4.74,0,0,0,665.64,560Z"/><path d="M564.66,598.11c0-.13-.35-.26-.54-.38-.11.34-.22.69-.32,1l.61.4A4.92,4.92,0,0,0,564.66,598.11Z"/><path d="M695.55,572.57l.3.07-.19-.22Z"/><path d="M492.75,604.83c-.1.35-.21.69-.32,1l.61.4a4.48,4.48,0,0,0,.26-1C493.3,605.09,493,605,492.75,604.83Z"/><path d="M557.81,592.32l-1-.32-.4.61a4.48,4.48,0,0,0,1.05.26C557.56,592.87,557.69,592.51,557.81,592.32Z"/><path d="M653.13,575.14c.12-.19.4-.45.35-.56a5.26,5.26,0,0,0-.64-.87l-.41.61Z"/><path d="M469.72,613.49a4.37,4.37,0,0,0-.64-.86c-.12.19-.4.45-.35.56a4.37,4.37,0,0,0,.64.86C469.5,613.86,469.77,613.61,469.72,613.49Z"/><path d="M420.51,624.5a4.8,4.8,0,0,0,.64.86c.13-.19.41-.45.36-.56a4.42,4.42,0,0,0-.65-.86C420.74,624.13,420.46,624.38,420.51,624.5Z"/><path d="M426.29,625.06,426,625c-.1.2-.19.39-.28.6a1.2,1.2,0,0,0,.2,0C426,625.6,426.17,625.25,426.29,625.06Z"/><path d="M438.28,621.88c-.11.34-.22.69-.32,1l.61.4a5,5,0,0,0,.25-1C438.82,622.13,438.47,622,438.28,621.88Z"/><path d="M445.41,620.42c-.11.35-.22.69-.32,1l.61.41a5,5,0,0,0,.25-1.05C446,620.68,445.6,620.55,445.41,620.42Z"/><path d="M480.5,570.18c.21,0,.5,0,.62-.14.4-.43.9-.95-.06-1.28-.13,0-.46.51-.69.79C480.41,569.76,480.45,570,480.5,570.18Z"/><path d="M549.49,560.1a4.81,4.81,0,0,0-.65-.87c-.12.19-.4.45-.35.56a4.81,4.81,0,0,0,.65.87C549.26,560.47,549.54,560.21,549.49,560.1Z"/><path d="M424.44,586.8c-.19-.12-.44-.4-.56-.35a4.37,4.37,0,0,0-.86.64l.61.41Z"/><path d="M494.46,561.57c-.13,0-.46.51-.7.79,0,.21,0,.52.15.61a.64.64,0,0,0,.6-.12C494.91,562.43,495.42,561.9,494.46,561.57Z"/><path d="M680.93,525.64c-.19-.13-.44-.4-.56-.35a4.37,4.37,0,0,0-.86.64l.61.4Z"/><path d="M575.65,548.57c-.19-.12-.45-.4-.56-.35a4.74,4.74,0,0,0-.87.64l.61.41Z"/><path d="M523.68,574.74c.4-.42.91-1-.06-1.28-.12,0-.45.51-.69.79,0,.21,0,.52.15.61A.64.64,0,0,0,523.68,574.74Z"/><path d="M439,592.75c.19.12.45.4.56.35a5.26,5.26,0,0,0,.87-.64l-.62-.41Z"/><path d="M522.5,576.36a5,5,0,0,0,.67-.85c.07-.15-.07-.41-.11-.62-.21,0-.52,0-.62.14a3.14,3.14,0,0,0-.48,1C522,576.06,522.3,576.23,522.5,576.36Z"/><path d="M409.36,600.28c-.19-.13-.45-.4-.56-.35a4.32,4.32,0,0,0-.87.64l.61.4Z"/><path d="M461.13,589.47a1.91,1.91,0,0,1,.63.37l.08-.06c0-.13.07-.26.11-.39l-.41-.27Z"/><path d="M461.28,590.16a1.83,1.83,0,0,0,.48-.32,1.91,1.91,0,0,0-.63-.37l-.41.34C460.91,589.94,461.17,590.22,461.28,590.16Z"/><path d="M376.49,597.71l.4-.35-.1-.11C376.7,597.4,376.6,597.55,376.49,597.71Z"/><path d="M564.55,559.75c-.19-.13-.45-.4-.56-.35a4.74,4.74,0,0,0-.87.64l.62.4Z"/><path d="M586,555.39c-.19-.13-.45-.4-.56-.35a4.37,4.37,0,0,0-.86.64l.61.4Z"/><path d="M439.29,586.75l.61.4.82-.69c-.19-.13-.45-.4-.56-.35A4.74,4.74,0,0,0,439.29,586.75Z"/><path d="M479.85,579l.82-.7c-.19-.12-.45-.4-.56-.35a4.43,4.43,0,0,0-.87.64Z"/><path d="M556.14,562.2c.23.37.46,1,.71,1,.89,0,.91-.64.71-1.33Z"/><path d="M621.59,549.36c0-.12-.35-.25-.54-.38-.11.35-.21.69-.32,1l.61.41A4,4,0,0,0,621.59,549.36Z"/><path d="M613.64,552.72c-.19-.13-.45-.4-.56-.35a4.74,4.74,0,0,0-.87.64l.62.4Z"/><path d="M629.91,627.69a2.55,2.55,0,0,0-.58.41l.55.45.59-.51C630.28,627.92,630,627.64,629.91,627.69Z"/><path d="M498.13,671.35c-.19-.13-.45-.4-.56-.35a4.32,4.32,0,0,0-.87.64c.19.12.45.4.56.35A4.43,4.43,0,0,0,498.13,671.35Z"/><path d="M572,654.81c.19.12.45.4.56.35a4.74,4.74,0,0,0,.87-.64c-.19-.13-.45-.4-.56-.35A4.06,4.06,0,0,0,572,654.81Z"/><path d="M423.2,639.06a4,4,0,0,0,1.05.25c.12,0,.25-.35.38-.54l-1-.32Z"/><path d="M622.94,598.37l-.61-.4-.82.69c.2.13.45.41.56.36A4.48,4.48,0,0,0,622.94,598.37Z"/><path d="M426.35,639.91c.19.12.44.4.56.35a4.8,4.8,0,0,0,.86-.64l-.61-.41Z"/><path d="M517.67,625c.11-.35.21-.69.32-1l-.61-.41a4,4,0,0,0-.25,1C517.12,624.76,517.48,624.89,517.67,625Z"/><path d="M387.8,640.33c.19.13.45.4.56.35a4.74,4.74,0,0,0,.87-.64l-.62-.41Z"/><path d="M549.76,611a.62.62,0,0,0,.49,0l-.45-.81-.19.24C549.66,610.63,549.63,610.94,549.76,611Z"/><path d="M549.13,611.2a2.75,2.75,0,0,0-.48,1c0,.06.33.23.53.36a4.56,4.56,0,0,0,.67-.85.64.64,0,0,0-.12-.6A.63.63,0,0,0,549.13,611.2Z"/><path d="M646.72,610.4a.39.39,0,0,0,.1-.08l-.57-.44-.14.12Z"/><path d="M476.62,646a4.45,4.45,0,0,0,1.05.25c.13,0,.26-.35.38-.54l-1-.32Z"/><path d="M417,659.64l1,.32.4-.61a5,5,0,0,0-1.05-.25C417.25,659.1,417.12,659.45,417,659.64Z"/><path d="M639.32,607.18a4.81,4.81,0,0,0-.65-.87l-.4.61c.23.27.46.55.7.82C639.09,607.55,639.37,607.29,639.32,607.18Z"/><path d="M427.11,462.67c0-.12-.35-.25-.54-.37-.11.34-.22.69-.32,1l.61.4A4,4,0,0,0,427.11,462.67Z"/><path d="M434.56,461.51a2.6,2.6,0,0,0-1-.48c-.06,0-.23.33-.36.53a5.32,5.32,0,0,0,.85.67.63.63,0,0,0,.6-.12A.6.6,0,0,0,434.56,461.51Z"/><path d="M478.13,453.26c.4-.42.91-.95-.05-1.28-.13,0-.46.51-.7.79,0,.21,0,.52.15.61A.64.64,0,0,0,478.13,453.26Z"/><path d="M436.13,462.69c0-.13-.51-.46-.79-.7-.21.05-.52,0-.6.15a.63.63,0,0,0,.11.61C435.28,463.15,435.8,463.65,436.13,462.69Z"/><path d="M477,454.88a4.91,4.91,0,0,0,.67-.85.62.62,0,0,0-.13-.6.63.63,0,0,0-.6.12,3.14,3.14,0,0,0-.48,1C476.4,454.58,476.75,454.75,477,454.88Z"/><path d="M385.11,480.19l.69.81c.13-.19.41-.45.35-.56a4.32,4.32,0,0,0-.64-.87C385.39,479.77,385.26,480,385.11,480.19Z"/><path d="M640.33,428.41c-.2-.13-.45-.4-.56-.35a4.43,4.43,0,0,0-.87.64l.61.41Z"/><path d="M435.46,473.11c.19.13.45.41.56.36a4.81,4.81,0,0,0,.87-.65l-.61-.4Z"/><path d="M273.07,378.45l.77.45-.42-.76C273.32,378.24,273.17,378.35,273.07,378.45Z"/><path d="M219.88,493a4.32,4.32,0,0,0,.64.87c.12-.19.4-.45.35-.56a4.74,4.74,0,0,0-.64-.87C220.1,492.63,219.83,492.89,219.88,493Z"/><path d="M376.81,461a4.81,4.81,0,0,0,.65.87l.4-.61-.7-.82C377,460.66,376.76,460.92,376.81,461Z"/><path d="M418.19,452.6a4.15,4.15,0,0,0,.64.87c.13-.19.4-.45.35-.56a4.74,4.74,0,0,0-.64-.87C418.41,452.24,418.14,452.49,418.19,452.6Z"/><path d="M398.29,458.4a5,5,0,0,0,1,.25c.12,0,.25-.35.37-.54l-1-.32Z"/><path d="M447.29,447.67l-.64.13c0,.22,0,.51.14.63.43.4,1,.9,1.28-.06C448.12,448.24,447.56,447.91,447.29,447.67Z"/><path d="M389.45,462.43c-.11.34-.22.69-.32,1l.61.4a4.26,4.26,0,0,0,.25-1C390,462.68,389.64,462.55,389.45,462.43Z"/><path d="M381.09,465.72l.34.17-.25-.29Z"/><path d="M450.74,451.92a4.37,4.37,0,0,0,.64.86l.4-.61-.69-.81C451,451.55,450.69,451.81,450.74,451.92Z"/><path d="M428,458.29a4,4,0,0,0,1,.25c.13,0,.25-.35.38-.54l-1-.32Z"/><path d="M495,444.63l-.61-.4-.82.69c.19.13.45.4.56.35A4.32,4.32,0,0,0,495,444.63Z"/><path d="M414.3,464.05l1,.32.41-.61a5,5,0,0,0-1.05-.25C414.55,463.51,414.42,463.86,414.3,464.05Z"/><path d="M656.84,414.65l-1-.32-.41.61a5,5,0,0,0,1.05.25C656.58,415.19,656.71,414.84,656.84,414.65Z"/><path d="M526,339.56c.16.16.36.48.48.45a4,4,0,0,0,.94-.43v-.05c-.16-.15-.31-.31-.49-.49Z"/><path d="M343.58,509.41a4.74,4.74,0,0,0,.64.87c.12-.2.4-.45.35-.56a4.43,4.43,0,0,0-.64-.87C343.8,509,343.53,509.3,343.58,509.41Z"/><path d="M370.52,334.94a4.52,4.52,0,0,0,.45,1c.17-.16.49-.36.46-.48a4.36,4.36,0,0,0-.46-1C370.81,334.62,370.49,334.82,370.52,334.94Z"/><path d="M391.52,483.55l1,.32.4-.61a5,5,0,0,0-1.05-.25C391.78,483,391.65,483.36,391.52,483.55Z"/><path d="M411.72,479.18a4.06,4.06,0,0,0,.64.87l.4-.61-.69-.82C411.94,478.81,411.66,479.07,411.72,479.18Z"/><path d="M397.74,483.52a4.37,4.37,0,0,0,.64.86c.13-.19.4-.44.35-.56a4.37,4.37,0,0,0-.64-.86C398,483.15,397.69,483.4,397.74,483.52Z"/><path d="M408.66,483.78a5,5,0,0,0,.25-1s0-.08-.09-.12l-.49-.13c-.1.3-.19.6-.28.89Z"/><path d="M466.54,471.46l.61.4a4,4,0,0,0,.25-1.05c0-.12-.35-.25-.54-.38C466.75,470.78,466.65,471.12,466.54,471.46Z"/><path d="M419.5,482.31l1,.32.4-.61a4,4,0,0,0-1.05-.25C419.76,481.77,419.63,482.12,419.5,482.31Z"/><path d="M637.62,438.09l-.69-.81c-.13.19-.4.44-.35.56a4.37,4.37,0,0,0,.64.86Z"/><path d="M394.11,489c.19.12.45.4.56.35a4.87,4.87,0,0,0,.87-.64c-.19-.13-.45-.4-.56-.35A4.32,4.32,0,0,0,394.11,489Z"/><path d="M425,483.43a3.14,3.14,0,0,0-.48,1c0,.06.33.23.53.37a5,5,0,0,0,.67-.86c.08-.15-.06-.41-.1-.62C425.43,483.33,425.13,483.3,425,483.43Z"/><path d="M404.11,490.65c-.1.34-.21.68-.32,1l.61.4a4.48,4.48,0,0,0,.26-1.05C404.66,490.9,404.3,490.77,404.11,490.65Z"/><path d="M499.13,472l-.61-.4-.81.69c.19.13.45.4.56.35A4.37,4.37,0,0,0,499.13,472Z"/><path d="M610.1,449.17c0-.12-.35-.25-.54-.38-.11.35-.22.69-.32,1l.61.4A5,5,0,0,0,610.1,449.17Z"/><path d="M488.45,407.74a5.11,5.11,0,0,0,.46,1l.52-.52c-.17-.31-.35-.62-.52-.94C488.75,407.42,488.43,407.62,488.45,407.74Z"/><path d="M423,426.61a5,5,0,0,0-1-.25.15.15,0,0,0-.1.07l.69.78.05,0C422.77,427,422.89,426.81,423,426.61Z"/><path d="M613.28,389.09a4.74,4.74,0,0,0,.64.87l.4-.61-.69-.82C613.5,388.72,613.23,389,613.28,389.09Z"/><path d="M458.9,398.5c.19.13.44.4.56.35a4,4,0,0,0,.86-.64l-.61-.4Z"/><path d="M390.24,414.58l-.51-.35.41.51Z"/><path d="M392.09,419.64c.16.16.35.48.47.45a4.13,4.13,0,0,0,1-.45c-.16-.16-.32-.33-.52-.52Z"/><path d="M427,409.56a2.74,2.74,0,0,0-1-.47c-.06,0-.23.33-.36.53a5.32,5.32,0,0,0,.85.67.44.44,0,0,0,.48-.73Z"/><path d="M427.74,410.05c-.22,0-.53,0-.61.15a.61.61,0,0,0,.11.6c.43.4.95.91,1.28-.05C428.57,410.62,428,410.29,427.74,410.05Z"/><path d="M424.85,412.65l.69.82c.13-.19.4-.45.35-.56a4.74,4.74,0,0,0-.64-.87Z"/><path d="M373.26,452.38a.6.6,0,0,0-.6.11,2.87,2.87,0,0,0-.47,1s.33.23.53.36a5,5,0,0,0,.67-.86A.59.59,0,0,0,373.26,452.38Z"/><path d="M375.34,451.93c-.21,0-.52,0-.6.15a.61.61,0,0,0,.11.6c.43.4.95.91,1.28-.06C376.17,452.5,375.62,452.17,375.34,451.93Z"/><path d="M438,439.38a3.53,3.53,0,0,1,.4.89.14.14,0,0,1,0,.12l.14.16.4-.61c-.23-.26-.46-.54-.69-.82Z"/><path d="M450.47,437.37l1,.32.4-.61a3.85,3.85,0,0,0-1-.25C450.72,436.82,450.59,437.18,450.47,437.37Z"/><path d="M476.57,435.24l-.7-.82c-.12.19-.4.45-.35.56a4.74,4.74,0,0,0,.64.87Z"/><path d="M372.87,457.63l.61.41.82-.7c-.19-.12-.45-.4-.56-.35A4.74,4.74,0,0,0,372.87,457.63Z"/><path d="M499.53,431.58c0-.13-.35-.26-.54-.38-.11.34-.22.69-.32,1l.61.41A5,5,0,0,0,499.53,431.58Z"/><path d="M382.62,381.05l-.48.87.5.56a4.77,4.77,0,0,0,.44-1C383.1,381.41,382.78,381.22,382.62,381.05Z"/><path d="M394.73,454.45l.69.82c.13-.19.4-.45.35-.56a4.74,4.74,0,0,0-.64-.87Z"/><path d="M699.3,380.33l-.94-.52-.51.52a4.72,4.72,0,0,0,1,.45C698.94,380.81,699.14,380.49,699.3,380.33Z"/><path d="M575.27,380.08c0-.12-.29-.32-.46-.48-.17.31-.35.63-.51.94l.51.51A4.29,4.29,0,0,0,575.27,380.08Z"/><path d="M388.29,456.72c-.11.35-.22.69-.32,1l.61.41a5,5,0,0,0,.25-1C388.83,457,388.48,456.85,388.29,456.72Z"/><path d="M439.65,446.26l0,0,.71.79h0Z"/><path d="M609.07,391.69a5,5,0,0,0,1,.25c.12,0,.25-.35.38-.54l-1-.32Z"/><path d="M603.94,395.7l1,.32.4-.61a5,5,0,0,0-1-.25C604.2,395.16,604.07,395.51,603.94,395.7Z"/><path d="M367.27,447.81c-.13-.05-.46.51-.7.78.05.22.09.43.13.64.21,0,.5,0,.62-.14C367.73,448.66,368.23,448.14,367.27,447.81Z"/><path d="M375.69,445.92c-.11.34-.22.69-.33,1l.62.4a5,5,0,0,0,.25-1C376.23,446.17,375.88,446,375.69,445.92Z"/><path d="M415.78,437.93c-.13-.05-.46.51-.7.78,0,.22,0,.53.15.61a.61.61,0,0,0,.6-.11C416.23,438.78,416.74,438.25,415.78,437.93Z"/><path d="M429.9,434.87l-.21.32.73.82c.08-.11.15-.21.12-.27A4.74,4.74,0,0,0,429.9,434.87Z"/><path d="M366.08,449.38a2.74,2.74,0,0,0-.47,1c0,.06.33.23.53.36a5.32,5.32,0,0,0,.67-.85.44.44,0,0,0-.73-.48Z"/><path d="M414.59,439.49a2.87,2.87,0,0,0-.47,1c0,.06.33.23.53.36a5.32,5.32,0,0,0,.67-.85.61.61,0,0,0-.13-.6A.6.6,0,0,0,414.59,439.49Z"/><path d="M546.29,413.14c0-.13-.35-.26-.54-.38-.1.34-.21.69-.32,1l.61.4A3.94,3.94,0,0,0,546.29,413.14Z"/><path d="M438.64,436.59l.69.82c.13-.19.4-.45.35-.56A4.74,4.74,0,0,0,439,436Z"/><path d="M374.71,452.06c-.24-.36-.47-1-.71-1-.9,0-.91.65-.72,1.33Z"/><path d="M423.07,441.46c.19.13.45.4.56.35a4.32,4.32,0,0,0,.87-.64l-.61-.4Z"/><path d="M441.62,437.69a4.86,4.86,0,0,0,1.05.25c.12,0,.25-.35.37-.55l-1-.32C441.87,437.3,441.74,437.49,441.62,437.69Z"/><path d="M664,500.86c-.19-.13-.45-.4-.56-.35a4.32,4.32,0,0,0-.87.64c.19.12.45.4.56.35A5.26,5.26,0,0,0,664,500.86Z"/><path d="M635.61,507.38a1.23,1.23,0,0,0,1.72,1.14A1.23,1.23,0,0,0,635.61,507.38Z"/><path d="M676.56,500.53c.11-.35.22-.69.32-1l-.61-.4a5,5,0,0,0-.25,1C676,500.27,676.37,500.4,676.56,500.53Z"/><path d="M564.49,524.35a4.37,4.37,0,0,0-.64-.86l-.4.61.69.81C564.27,524.72,564.54,524.46,564.49,524.35Z"/><path d="M637.35,508.54a.64.64,0,0,0,.12.6c.43.4.95.91,1.28-.06,0-.12-.51-.45-.79-.69C637.75,508.43,637.44,508.41,637.35,508.54Z"/><path d="M653.31,506.75a1.23,1.23,0,0,0-1.13,1.72A1.23,1.23,0,0,0,653.31,506.75Z"/><path d="M686.11,500.09a.63.63,0,0,0-.6.12,3.14,3.14,0,0,0-.48,1s0,.05.08.09h.69a3,3,0,0,0,.43-.58A.64.64,0,0,0,686.11,500.09Z"/><path d="M500.91,523.46l.69.82c.13-.19.41-.45.36-.56a4.81,4.81,0,0,0-.65-.87Z"/><path d="M645.7,494.92c-.11.35-.21.69-.32,1l.61.4a4,4,0,0,0,.25-1.05C646.25,495.18,645.89,495.05,645.7,494.92Z"/><path d="M659.69,494.3l-.61-.4-.81.69c.19.13.44.4.56.36A4.42,4.42,0,0,0,659.69,494.3Z"/><path d="M558.76,518.09a4.74,4.74,0,0,0-.64-.87c-.13.19-.25.39-.41.62l.7.81C558.54,518.46,558.81,518.2,558.76,518.09Z"/><path d="M636.18,501.85l.7.82c.12-.19.4-.45.35-.56a4.43,4.43,0,0,0-.64-.87Z"/><path d="M640.08,501.52a4.37,4.37,0,0,0-.64-.86l-.4.61.69.81C639.86,501.89,640.13,501.64,640.08,501.52Z"/><path d="M647.45,503.49c.12-.2.25-.39.4-.62l-.69-.81c-.13.19-.41.45-.36.56A4.81,4.81,0,0,0,647.45,503.49Z"/><path d="M343.5,582.28l.69.81c.13-.19.4-.45.35-.56a4.74,4.74,0,0,0-.64-.87Z"/><path d="M349,581.36l.61.4.82-.69c-.19-.13-.45-.4-.56-.35A4.43,4.43,0,0,0,349,581.36Z"/><path d="M405.48,572.58a.18.18,0,0,0,0,.07l.48-.41-.18-.22C405.7,572.21,405.43,572.47,405.48,572.58Z"/><path d="M432.37,567.36c-.18-.12-.42-.37-.54-.35-.21.27-.41.54-.61.82l.33.22Z"/><path d="M505.13,552.53c-.19-.12-.45-.4-.56-.35a4.42,4.42,0,0,0-.86.65l.61.4Z"/><path d="M569.31,540.69c0-.12-.35-.25-.54-.37-.11.34-.22.69-.32,1l.61.4A5,5,0,0,0,569.31,540.69Z"/><path d="M555.94,546.64c-.19-.12-.45-.4-.56-.35a5.26,5.26,0,0,0-.87.64l.61.41Z"/><path d="M521.77,555.34a4.37,4.37,0,0,0-.64-.86c-.13.19-.4.44-.35.56a4.37,4.37,0,0,0,.64.86C521.55,555.71,521.82,555.46,521.77,555.34Z"/><path d="M573.85,525.16c-.19-.12-.45-.4-.56-.35a4.8,4.8,0,0,0-.86.64c.19.13.44.4.55.35A3.83,3.83,0,0,0,573.85,525.16Z"/><path d="M652.18,508.47c-.22,0-.52,0-.62.14a3.14,3.14,0,0,0-.48,1l0,.05,1-.25a1.49,1.49,0,0,0,.2-.29C652.36,508.94,652.22,508.68,652.18,508.47Z"/><path d="M357.15,573.2c-.13,0-.46.51-.7.79.05.21.09.42.13.63.22,0,.5,0,.63-.14C357.61,574.05,358.11,573.53,357.15,573.2Z"/><path d="M355.45,576.34a1.23,1.23,0,0,0,1.13-1.72A1.23,1.23,0,0,0,355.45,576.34Z"/><path d="M537.73,486.46c-.19-.13-.44-.4-.55-.35a3.83,3.83,0,0,0-.87.64c.19.12.45.4.56.35A4.8,4.8,0,0,0,537.73,486.46Z"/><path d="M615.07,472.19c-.19-.13-.45-.4-.56-.35a4.74,4.74,0,0,0-.87.64l.61.4Z"/><path d="M438,319.9l.2-.18c-.11-.38-.22-.75-.34-1.14l-.38.38Z"/><path d="M505.28,496.29a4,4,0,0,0-.64-.86l-.4.61c.23.26.46.54.69.81C505.06,496.66,505.33,496.41,505.28,496.29Z"/><path d="M401.3,502.36a4,4,0,0,0,1.05.25c.12,0,.25-.35.38-.54l-1-.32Z"/><path d="M444.26,493.4l.7.81c.13-.19.4-.45.35-.56a4.74,4.74,0,0,0-.64-.87C444.54,493,444.42,493.17,444.26,493.4Z"/><path d="M390.47,507.54c.19.13.45.4.56.35a4.37,4.37,0,0,0,.86-.64c-.19-.13-.44-.4-.56-.35A4.37,4.37,0,0,0,390.47,507.54Z"/><path d="M527.21,479.94a4.32,4.32,0,0,0-.64-.87l-.4.61.69.82C527,480.31,527.26,480.05,527.21,479.94Z"/><path d="M519,483.06l-.7-.82c-.12.19-.4.45-.35.56a5.26,5.26,0,0,0,.64.87Z"/><path d="M607.69,466.52a4.74,4.74,0,0,0-.64-.87c-.13.19-.4.45-.35.56a4.74,4.74,0,0,0,.64.87C607.47,466.89,607.74,466.63,607.69,466.52Z"/><path d="M654,484.33c.1-.34.21-.69.32-1l-.62-.41a5,5,0,0,0-.25,1.05C653.4,484.07,653.75,484.2,654,484.33Z"/><path d="M660.8,485.16c-.19-.12-.45-.4-.56-.35a4.74,4.74,0,0,0-.87.64l.62.41Z"/><path d="M667.94,483.71c-.2-.13-.45-.4-.57-.35a4.37,4.37,0,0,0-.86.64l.61.4Z"/><path d="M636.08,491a2.75,2.75,0,0,0-.48,1c0,.06.33.23.53.37a5,5,0,0,0,.67-.86.43.43,0,0,0-.72-.48Z"/><path d="M638.28,495c.11-.34.21-.69.32-1l-.61-.41a4,4,0,0,0-.25,1.05C637.73,494.7,638.09,494.82,638.28,495Z"/><path d="M484.84,527.21a4.2,4.2,0,0,0-.65-.87l-.4.61.69.82C484.61,527.57,484.89,527.32,484.84,527.21Z"/><path d="M622.49,480.82c0-.12-.35-.25-.54-.37-.11.34-.22.69-.32,1l.61.4A4.34,4.34,0,0,0,622.49,480.82Z"/><path d="M632.14,479.84c.4-.43.9-.95-.06-1.28-.13,0-.46.51-.7.79,0,.21,0,.52.15.61A.66.66,0,0,0,632.14,479.84Z"/><path d="M631,481.46a4.91,4.91,0,0,0,.67-.85.64.64,0,0,0-.12-.6.63.63,0,0,0-.6.12,2.75,2.75,0,0,0-.48,1C630.4,481.16,630.75,481.33,631,481.46Z"/><path d="M646.05,479.47l-.69-.82c-.13.19-.4.45-.35.56a4.74,4.74,0,0,0,.64.87Z"/><path d="M622.87,486l.81-.7c-.19-.12-.45-.4-.56-.35a4.81,4.81,0,0,0-.87.65Z"/><path d="M542.37,505.57a4,4,0,0,0,.25-1.05c0-.12-.35-.25-.54-.37-.11.34-.21.69-.32,1Z"/><path d="M501.91,291a5.11,5.11,0,0,0,1-.46l-.52-.52-.94.52C501.59,290.66,501.79,291,501.91,291Z"/><path d="M178.93,323.26l-.2.37.6.35.11-.2Z"/><path d="M555.09,321.29l-.52-.94c-.16.16-.48.36-.45.48a5.06,5.06,0,0,0,.45,1Z"/><path d="M507.65,319.68v-.49c-.08.07-.13.13-.12.18A1.17,1.17,0,0,0,507.65,319.68Z"/><path d="M499.76,316.92l-.51-.94c-.17.16-.49.36-.46.48a4.57,4.57,0,0,0,.46,1Z"/><path d="M440.28,337.09c.16.17.36.49.48.46a4.29,4.29,0,0,0,1-.46l-.51-.51Z"/><path d="M557.94,334.43a4.52,4.52,0,0,0-.45-1c-.17.17-.49.36-.46.48a4.16,4.16,0,0,0,.46,1C557.65,334.75,558,334.55,557.94,334.43Z"/><path d="M441.46,334.43a4.52,4.52,0,0,0-.45-1c-.17.17-.49.36-.46.48a4.16,4.16,0,0,0,.46,1C441.17,334.75,441.49,334.55,441.46,334.43Z"/><path d="M497.06,331.27l.94.52c.19-.2.36-.36.52-.52a4.52,4.52,0,0,0-1-.45C497.42,330.79,497.22,331.11,497.06,331.27Z"/><path d="M558,330l-.51-.93c-.17.16-.49.36-.46.48a4.29,4.29,0,0,0,.46,1Z"/><path d="M369.21,301.9a4.32,4.32,0,0,0,.45,1l.52-.52-.52-.94C369.5,301.58,369.18,301.78,369.21,301.9Z"/><path d="M496.08,314.25a4.13,4.13,0,0,0,1-.45l-.52-.52-.93.52C495.77,314,496,314.28,496.08,314.25Z"/><path d="M483.75,314l-.52-.94a3,3,0,0,1-.26.22c0,.25,0,.49,0,.74s.19.33.27.5Z"/><path d="M504.07,312.59a4.57,4.57,0,0,0-.46-1c-.16.17-.48.36-.45.48a4.56,4.56,0,0,0,.45,1C503.78,312.91,504.1,312.71,504.07,312.59Z"/><path d="M461.82,309.62c0,.06,0,.12,0,.17a.21.21,0,0,0,.05-.11Z"/><path d="M483.69,308.22a4.77,4.77,0,0,0-.46-1l-.18.18c0,.3,0,.62,0,.92l.19.35C483.39,308.54,483.71,308.34,483.69,308.22Z"/><path d="M258.3,115.69a2.27,2.27,0,0,0,.32.3c-.13-.22-.26-.44-.4-.66A.55.55,0,0,0,258.3,115.69Z"/><path d="M654.1,191.7l-.31-.56-.41.72c.07.12.14.24.2.36Z"/><path d="M500.66,689.42a2.87,2.87,0,0,0,1.32.86A1.11,1.11,0,0,0,500.66,689.42Z"/><path d="M463.84,685.72a.5.5,0,0,0,0,.12.7.7,0,0,1,.06-.09Z"/><path d="M483.56,687.63v.1a.18.18,0,0,1,.07-.05Z"/><path d="M505.87,685.09c.08-.3.16-.62.24-.94a6.24,6.24,0,0,0-.79.59C505.5,684.87,505.75,685.12,505.87,685.09Z"/><path d="M368.64,714.07a5,5,0,0,0,1.05.25c.13,0,.25-.35.38-.54l-1-.32Z"/><path d="M556.76,356.75c0,1,.45,1.49,1.45,1.46C558.25,357.2,557.77,356.71,556.76,356.75Z"/><path d="M563.68,355.24a.58.58,0,0,0-.28.07c-.48.34-1.08.75-.2,1.27.12.06.55-.41.84-.64,0-.21.08-.51,0-.62h0v0Z"/><path d="M443.19,354.57l-.86-.48.21.86a1.22,1.22,0,0,0,.17.07C442.83,355.05,443,354.73,443.19,354.57Z"/><path d="M571.8,371a4.77,4.77,0,0,0,1-.46c-.16-.16-.35-.48-.47-.45a4.13,4.13,0,0,0-1,.45C571.48,370.74,571.68,371.07,571.8,371Z"/><path d="M542,343.13l-.52-.94c-.16.16-.48.36-.45.48a4.52,4.52,0,0,0,.45,1C541.63,343.48,541.79,343.32,542,343.13Z"/><path d="M758.93,341.67l-.09-.16-.6.35.18.33Z"/><path d="M547.29,342.19l.52-.94-.52-.52a5.06,5.06,0,0,0-.45,1C546.81,341.83,547.13,342,547.29,342.19Z"/><path d="M562.61,339.3a.6.6,0,0,0,0,.61,2.78,2.78,0,0,0,.86.66s.29-.28.46-.44a4.73,4.73,0,0,0-.7-.83A.6.6,0,0,0,562.61,339.3Z"/><path d="M562.57,338.64c-.34-.48-.76-1.08-1.27-.2-.07.12.41.55.63.84h.65C562.58,339.06,562.67,338.78,562.57,338.64Z"/><path d="M460.93,338.8c0,.12.3.32.46.48l.52-.94c-.2-.19-.36-.35-.52-.52A5.11,5.11,0,0,0,460.93,338.8Z"/><path d="M495.4,337.3l-.52-.93c-.16.16-.48.36-.46.48a4.77,4.77,0,0,0,.46,1Z"/><path d="M555.94,352.36a2.9,2.9,0,0,0,.66-.85c0-.06-.28-.3-.45-.46a4.66,4.66,0,0,0-.83.7.43.43,0,0,0,.62.61Z"/><path d="M558.83,350.75c.12.07.55-.41.84-.63,0-.22.08-.52,0-.63a.65.65,0,0,0-.62,0C558.55,349.82,558,350.24,558.83,350.75Z"/><path d="M550.66,350c0-.12-.29-.32-.45-.48l-.52.94.52.52A4.52,4.52,0,0,0,550.66,350Z"/><path d="M471.58,350.93l.52-.94-.52-.52a4.32,4.32,0,0,0-.45,1C471.1,350.57,471.42,350.76,471.58,350.93Z"/><path d="M537.25,349.31c.06,0,.29-.28.46-.45a5.59,5.59,0,0,0-.7-.83.44.44,0,0,0-.62.62A3.08,3.08,0,0,0,537.25,349.31Z"/><path d="M446.58,349.2a2.11,2.11,0,0,0,.47-.19l-.21-.67-.74.4C446.26,348.9,446.46,349.22,446.58,349.2Z"/><path d="M383,348.29a4.13,4.13,0,0,0-1,.45l.52.52.93-.52C383.33,348.58,383.14,348.26,383,348.29Z"/><path d="M536.37,348c0-.21.09-.49,0-.63-.22-.31-.47-.67-.76-.64-.14.22-.27.44-.4.66.14.19.38.43.53.61Z"/><path d="M730.23,430.07l.23.4.64-.22c-.1-.24-.23-.47-.35-.7Z"/><path d="M679.79,390.24l.52-.94-.52-.52a4.52,4.52,0,0,0-.45,1C679.31,389.88,679.63,390.08,679.79,390.24Z"/><path d="M545.59,384.14a4.52,4.52,0,0,0,1-.45c-.17-.16-.36-.49-.48-.46a4.84,4.84,0,0,0-1,.46C545.27,383.85,545.47,384.17,545.59,384.14Z"/><path d="M519.63,407.71l.52-.94-.52-.51a4.25,4.25,0,0,0-.45,1C519.15,407.35,519.47,407.55,519.63,407.71Z"/><path d="M604.16,391.55l-.14.1.06.05Z"/><path d="M407,691.47a.53.53,0,0,0-.1.12Z"/><path d="M345.7,762l.21.21c.18-.32.36-.64.53-1l-.22-.19C346.05,761.39,345.87,761.7,345.7,762Z"/><path d="M628.19,753.19l-.13-.24-.1.11Z"/><path d="M416.16,751.18l-.24.86a2.5,2.5,0,0,0,.38-.15l.17-.65-.15-.15Z"/><path d="M523.4,649.94c0,.12.29.31.45.47.18-.31.35-.63.52-.93l-.52-.52A4.56,4.56,0,0,0,523.4,649.94Z"/><path d="M379,648.23a4.84,4.84,0,0,0,1,.46c.12,0,.32-.3.48-.46l-.94-.52Z"/><path d="M483.81,645.32c.17.16.36.48.48.45a4.32,4.32,0,0,0,1-.45c-.16-.16-.36-.48-.48-.46A5.11,5.11,0,0,0,483.81,645.32Z"/><path d="M409.08,644.86a4.84,4.84,0,0,0-1,.46c.16.16.36.48.48.45a4.52,4.52,0,0,0,1-.45C409.4,645.16,409.2,644.84,409.08,644.86Z"/><path d="M379.25,655.26a5.11,5.11,0,0,0,.46,1l.52-.52c-.17-.31-.35-.62-.52-.94C379.55,654.94,379.23,655.14,379.25,655.26Z"/><path d="M313,653.6a1,1,0,0,0-.29.12l-.54.5c.12.15.25.31.33.29l.07,0,.72-.65C313.16,653.7,313.06,653.58,313,653.6Z"/><path d="M476.53,652.6c.17.16.36.48.48.45a4.32,4.32,0,0,0,1-.45l-.52-.52Z"/><path d="M413.93,652.6l.93.52.52-.52a4.6,4.6,0,0,0-1-.46C414.28,652.12,414.09,652.44,413.93,652.6Z"/><path d="M545,638c.16.16.35.48.47.45a4.13,4.13,0,0,0,1-.45l-.52-.52Z"/><path d="M548.36,635.58a4.25,4.25,0,0,0,1-.45c-.16-.17-.35-.49-.48-.46a4.29,4.29,0,0,0-1,.46C548,635.29,548.24,635.61,548.36,635.58Z"/><path d="M416.36,634.67a4.57,4.57,0,0,0-1,.46c.16.16.36.48.48.45a4.52,4.52,0,0,0,1-.45C416.68,635,416.48,634.64,416.36,634.67Z"/><path d="M400.34,634.67a4.29,4.29,0,0,0-1,.46c.16.16.35.48.47.45a4.13,4.13,0,0,0,1-.45C400.66,635,400.46,634.64,400.34,634.67Z"/><path d="M435.77,641c.16.16.35.48.47.45a2,2,0,0,0,.51-.19l.24-.49-.29-.29Z"/><path d="M403.73,641a4.52,4.52,0,0,0,1,.45c.12,0,.32-.29.48-.45l-.94-.52Z"/><path d="M416.84,661.33a4.29,4.29,0,0,0,1,.46c.12,0,.32-.29.48-.46l-.93-.51Z"/><path d="M485,155.77c0-.14,0-.28,0-.43l-.29-.09v.68l.12,0C484.84,156,484.9,155.87,485,155.77Z"/><path d="M296.81,848.45c-.48.33-1.08.75-.2,1.26.11.07.55-.41.84-.63,0-.22.08-.52,0-.63A.63.63,0,0,0,296.81,848.45Z"/><path d="M298.29,847.09a5.65,5.65,0,0,0-.83.71.63.63,0,0,0,0,.61.6.6,0,0,0,.61,0c.06,0,.1-.11.16-.17l.43-.79C298.58,847.35,298.41,847.21,298.29,847.09Z"/><path d="M486.73,869.54l.75.42v-.76a1.36,1.36,0,0,0-.28-.11C487.08,869.06,486.89,869.38,486.73,869.54Z"/><path d="M493.77,329l-1-.32-.24.36,0,.29a3.33,3.33,0,0,0,.91.21C493.52,329.53,493.64,329.18,493.77,329Z"/><path d="M506.61,326.38c.19.12.45.4.56.35a2.31,2.31,0,0,0,.42-.27c0-.23,0-.44,0-.67l-.17-.11Z"/><path d="M379.93,353.67c.19.12.44.4.56.35a4.37,4.37,0,0,0,.86-.64l-.61-.41Z"/><path d="M499.55,329.55a4.37,4.37,0,0,0-.64-.86c-.13.19-.4.44-.35.56a4.37,4.37,0,0,0,.64.86C499.33,329.92,499.6,329.67,499.55,329.55Z"/><path d="M385.71,354.23a4.81,4.81,0,0,0-.65-.87l-.4.61.69.82C385.48,354.6,385.76,354.34,385.71,354.23Z"/><path d="M466.93,328.52c-.19-.13-.45-.41-.56-.35a4.32,4.32,0,0,0-.87.64l.61.4Z"/><path d="M497.5,322.82l.82-.7c-.2-.12-.45-.4-.56-.35a4.43,4.43,0,0,0-.87.64Z"/><path d="M503.49,324.29c0,.13.35.26.55.38.1-.34.21-.69.32-1l-.62-.41A5,5,0,0,0,503.49,324.29Z"/><path d="M384.23,360.32a2.75,2.75,0,0,0-1-.48c-.06,0-.23.33-.36.53a5.32,5.32,0,0,0,.85.67.64.64,0,0,0,.6-.12A.63.63,0,0,0,384.23,360.32Z"/><path d="M501.37,337.1a1.23,1.23,0,0,0-1.72-1.13A1.23,1.23,0,0,0,501.37,337.1Z"/><path d="M507.05,335.92a.63.63,0,0,0-.12-.6,3.14,3.14,0,0,0-1-.48c-.06,0-.23.34-.37.54a5,5,0,0,0,.86.67A.62.62,0,0,0,507.05,335.92Z"/><path d="M575.54,475c-.16-.17-.36-.49-.48-.46a4.29,4.29,0,0,0-1,.46l.51.51Z"/><path d="M384.38,360.93a1.23,1.23,0,0,0,1.71,1.14A1.23,1.23,0,0,0,384.38,360.93Z"/><path d="M502.79,337.67c0-.13-.51-.46-.79-.7-.21,0-.52,0-.61.15a.64.64,0,0,0,.12.6C501.94,338.13,502.46,338.63,502.79,337.67Z"/><path d="M507.2,336.54c0-.22,0-.44,0-.66a.27.27,0,0,0-.14.08A.63.63,0,0,0,507.2,336.54Z"/><path d="M391.34,361.22l-.82.69c.19.13.45.4.56.35a4.74,4.74,0,0,0,.87-.64Z"/><path d="M541.84,481c-.16-.31-.34-.62-.51-.94-.17.16-.49.36-.46.48a4.57,4.57,0,0,0,.46,1Z"/><path d="M402.09,352.28c0,.05.34.23.54.36.18-.23.38-.45.55-.69-.16-.24-.31-.49-.46-.74a.49.49,0,0,0-.15.09A3.09,3.09,0,0,0,402.09,352.28Z"/><path d="M419.19,349.36a.66.66,0,0,0,.6-.11l.16-.17c-.16-.3-.32-.6-.47-.9-.14.18-.3.41-.44.57C419.09,349,419.06,349.28,419.19,349.36Z"/><path d="M418.56,349.53a2.72,2.72,0,0,0-.48,1c0,.05.33.23.53.36a5,5,0,0,0,.67-.86.59.59,0,0,0-.13-.59A.59.59,0,0,0,418.56,349.53Z"/><path d="M501.9,333.49l-.69-.81c-.13.19-.4.44-.35.56a4.37,4.37,0,0,0,.64.86Z"/><path d="M498.17,335.4a5.32,5.32,0,0,0,.85.67.61.61,0,0,0,.6-.12.62.62,0,0,0-.11-.6,3.09,3.09,0,0,0-1-.48C498.47,334.85,498.3,335.2,498.17,335.4Z"/><path d="M434.91,317.21a4.86,4.86,0,0,0,1,.25c.12,0,.25-.35.37-.54l-1-.32Z"/><path d="M530.2,515.94l-.52-.93c-.16.16-.48.35-.46.47a4.6,4.6,0,0,0,.46,1Z"/><path d="M337.45,331.74l.16-.18-.55-.58-.15.4C336.9,331.44,337.25,331.61,337.45,331.74Z"/><path d="M371,326a4.37,4.37,0,0,0-.64-.86c-.13.19-.4.44-.35.56a4.37,4.37,0,0,0,.64.86C370.82,326.38,371.09,326.13,371,326Z"/><path d="M377.59,338.54c-.11.35-.22.69-.32,1l.61.41a5,5,0,0,0,.25-1.05C378.13,338.8,377.78,338.67,377.59,338.54Z"/><path d="M389.86,336.79l-.61-.41-.82.7c.19.12.45.4.56.35A5.26,5.26,0,0,0,389.86,336.79Z"/><path d="M463.42,324.52a4.74,4.74,0,0,0,.64.87c.13-.2.4-.45.35-.57a4.37,4.37,0,0,0-.64-.86C463.64,324.15,463.37,324.41,463.42,324.52Z"/><path d="M387.27,331.37a4.45,4.45,0,0,0-1-.25c-.12,0-.25.35-.38.54l1,.32Z"/><path d="M590.1,501.17a4.13,4.13,0,0,0-1-.45c-.12,0-.31.29-.47.45l.93.52Z"/><path d="M390.92,333.34a4.43,4.43,0,0,0,.64.87,3.34,3.34,0,0,0,.35-.5l-.39-.64a3.47,3.47,0,0,1-.25-.29C391.15,333,390.87,333.23,390.92,333.34Z"/><path d="M475.1,316.2a4.37,4.37,0,0,0,.64.86c.05-.08.1-.16.16-.24l-.18-.87-.27-.31C475.32,315.83,475.05,316.08,475.1,316.2Z"/><path d="M410,331.42c-.08-.14-.17-.27-.25-.4l-.18.27Z"/><path d="M439.84,325.29c0-.14-.09-.28-.13-.42l-.21.32Z"/><path d="M696.39,441.48l-.94-.52c-.19.19-.35.36-.52.52a4.52,4.52,0,0,0,1,.45C696,442,696.23,441.64,696.39,441.48Z"/><path d="M438,439.38a.41.41,0,0,1-.05-.09c-.16.16-.48.36-.46.48a4.84,4.84,0,0,0,.46,1c.12-.12.31-.25.4-.36a3.05,3.05,0,0,1-.5-.71C437.82,439.62,437.9,439.5,438,439.38Z"/><path d="M438,439.38c-.1.12-.18.24-.15.3a3.05,3.05,0,0,0,.5.71.14.14,0,0,0,0-.12A3.53,3.53,0,0,0,438,439.38Z"/><path d="M402.05,393c-.07.12-.19.25-.27.36.21.33.43.64.64,1,.14-.17.32-.37.27-.46A4.32,4.32,0,0,0,402.05,393Z"/><path d="M584.39,358.08a4.86,4.86,0,0,0-1-.25c-.12,0-.25.35-.37.54l1,.32Z"/><path d="M564,354.62a2.82,2.82,0,0,0-.7-.15c-.12,0-.25.35-.37.55l.71.22a.56.56,0,0,1,.32.07l0-.05C564,355,564,354.75,564,354.62Z"/><path d="M564,354.62c-.08.13,0,.42,0,.64.13-.19.24-.37.35-.54Z"/><path d="M563.68,355.24l.31.1v0A.56.56,0,0,0,563.68,355.24Z"/><path d="M353.7,398.92l.69.81c.13-.19.4-.45.35-.56a4.37,4.37,0,0,0-.64-.86Z"/><path d="M411.26,386.68a2.91,2.91,0,0,0-.47,1c0,.06.33.23.53.36a4.91,4.91,0,0,0,.67-.85.62.62,0,0,0-.13-.6A.63.63,0,0,0,411.26,386.68Z"/><path d="M432,383.18c.19.13.45.4.56.35a4.74,4.74,0,0,0,.87-.64l-.61-.41Z"/><path d="M587.58,370.06c.11-.34.21-.69.32-1l-.61-.41a4,4,0,0,0-.25,1.05C587,369.81,587.39,369.94,587.58,370.06Z"/><path d="M345,419.47c-.13.19-.4.45-.35.56a2.26,2.26,0,0,0,.36.53l.36.21.32-.49Z"/><path d="M426.45,393.44l-.7-.82c-.12.2-.4.45-.35.56a4.15,4.15,0,0,0,.64.87Z"/><path d="M596.9,359.74a2.26,2.26,0,0,0,.36.53c.12-.22.23-.45.34-.67l-.35-.42C597.12,359.37,596.85,359.62,596.9,359.74Z"/><path d="M593.2,363.46a4.74,4.74,0,0,0,.64.87c.12-.19.4-.45.35-.56a4.74,4.74,0,0,0-.64-.87C593.42,363.09,593.15,363.35,593.2,363.46Z"/><path d="M387.26,367.78a1.22,1.22,0,0,0,1.71,1.13A1.22,1.22,0,0,0,387.26,367.78Z"/><path d="M403.66,364.43c-.12.2-.4.45-.35.56a4.87,4.87,0,0,0,.64.87l.41-.61Z"/><path d="M397.68,367.88a4,4,0,0,0,1.05.25c.12,0,.25-.35.38-.54l-1-.32Z"/><path d="M423.48,363.35a.63.63,0,0,0-.12-.6,2.75,2.75,0,0,0-1-.48c-.06,0-.23.33-.36.53a4.91,4.91,0,0,0,.85.67A.64.64,0,0,0,423.48,363.35Z"/><path d="M320.93,385l.61.41.81-.7c-.19-.12-.44-.4-.55-.35A4.15,4.15,0,0,0,320.93,385Z"/><path d="M325.43,383.83a4.32,4.32,0,0,0,.64.87c.12-.19.4-.45.35-.56a5.26,5.26,0,0,0-.64-.87C325.65,383.46,325.38,383.72,325.43,383.83Z"/><path d="M424.14,363.23c-.21,0-.52,0-.61.15.08.27.16.49.23.71.4.37.87.72,1.17-.16C425,363.8,424.42,363.47,424.14,363.23Z"/><path d="M423.65,364l.11.1c-.07-.22-.15-.44-.23-.71A.66.66,0,0,0,423.65,364Z"/><path d="M447.91,359.14a4.77,4.77,0,0,0,1,.25c.13,0,.26-.35.38-.54l-1-.32Z"/><path d="M562,335.89l-1-.32-.41.61a5,5,0,0,0,1,.25C561.79,336.43,561.92,336.08,562,335.89Z"/><path d="M572,333.85l-.69-.21-.36.62a2.27,2.27,0,0,0,.67.13C571.77,334.4,571.9,334,572,333.85Z"/><path d="M590.83,462.59c.17-.32.35-.63.52-.94-.2-.19-.36-.35-.52-.52a5.11,5.11,0,0,0-.46,1C590.35,462.23,590.67,462.43,590.83,462.59Z"/><path d="M460.55,349v.31l.17-.25Z"/><path d="M387.11,367.16a3.14,3.14,0,0,0-1-.48c-.06,0-.23.33-.36.53a5.51,5.51,0,0,0,.85.68.64.64,0,0,0,.6-.13A.63.63,0,0,0,387.11,367.16Z"/><path d="M395.89,365a4.74,4.74,0,0,0,.64.87c.13-.19.4-.45.35-.56a4.74,4.74,0,0,0-.64-.87C396.11,364.65,395.84,364.91,395.89,365Z"/><path d="M632.8,455a4.6,4.6,0,0,0,1-.46l-.52-.52-.93.52C632.49,454.74,632.69,455.06,632.8,455Z"/><path d="M538.12,353.39l.4-.61-.69-.82c-.13.19-.4.45-.35.56A4.06,4.06,0,0,0,538.12,353.39Z"/><path d="M413.64,379.24a4.42,4.42,0,0,0,.65.86l.4-.61-.7-.81C413.87,378.87,413.59,379.12,413.64,379.24Z"/><path d="M404,384.42l.61.41.82-.7c-.19-.13-.45-.4-.56-.35A4.74,4.74,0,0,0,404,384.42Z"/><path d="M411.27,383.66a.61.61,0,0,0-.11-.6,2.87,2.87,0,0,0-1-.47c-.06,0-.23.33-.36.53a5.32,5.32,0,0,0,.85.67A.61.61,0,0,0,411.27,383.66Z"/><path d="M419.71,381.13c.43.4,1,.91,1.28-.05.05-.13-.51-.46-.78-.7l-.64.13C419.61,380.72,419.58,381,419.71,381.13Z"/><path d="M336.73,385.52a3.14,3.14,0,0,0-.48,1c0,.06.34.23.54.36a5.45,5.45,0,0,0,.67-.85.62.62,0,0,0-.13-.6A.63.63,0,0,0,336.73,385.52Z"/><path d="M471.23,359.31c.12,0,.25-.35.37-.54l-1-.32-.4.61A5,5,0,0,0,471.23,359.31Z"/><path d="M561.4,342.43c.12,0,.25-.36.38-.55l-.91-.28.09.75A2.26,2.26,0,0,0,561.4,342.43Z"/><path d="M560.35,342.17l.61.18-.09-.75-.12,0Z"/><path d="M567.77,342.15a3.85,3.85,0,0,0-1-.25c-.13,0-.26.35-.38.54l1,.32Z"/><path d="M481.72,605.29c-.48.34-1.08.76-.2,1.27.12.07.55-.41.84-.63v-.65C482.14,605.28,481.86,605.19,481.72,605.29Z"/><path d="M408.83,602.37c-.18.31-.35.63-.52.93l.52.52a4.13,4.13,0,0,0,.45-1C409.31,602.72,409,602.53,408.83,602.37Z"/><path d="M453,601.42c-.1-.14-.21-.25-.28-.24a4.84,4.84,0,0,0-1,.46c.16.16.36.48.48.45a3.14,3.14,0,0,0,.8-.35l-.13-.15Z"/><path d="M453,601.42l-.11.17.13.15.18-.1Z"/><path d="M422.93,608.67a5.11,5.11,0,0,0,.46,1l.52-.52c-.17-.31-.35-.62-.52-.94C423.23,608.35,422.91,608.55,422.93,608.67Z"/><path d="M427,607.46c.16.16.36.48.48.46a5.11,5.11,0,0,0,1-.46l-.52-.52Z"/><path d="M423.39,593.63s0,0,0-.08l-.46-.3A5.5,5.5,0,0,0,423.39,593.63Z"/><path d="M423.39,592.17a5.11,5.11,0,0,0-.46,1,.16.16,0,0,0,0,.1l.46.3.48-.86Z"/><path d="M420.23,591.9a5.06,5.06,0,0,0,1-.45l-.52-.52-.94.52C419.91,591.61,420.11,591.93,420.23,591.9Z"/><path d="M476.26,599a4.56,4.56,0,0,0-.45-1c-.17.16-.49.36-.46.48a4.29,4.29,0,0,0,.46,1C476,599.29,476.29,599.1,476.26,599Z"/><path d="M540.6,597.27c.16.16.36.48.48.46a4.77,4.77,0,0,0,1-.46l-.51-.52Z"/><path d="M425.85,597.52c0,.12.29.32.45.48l.52-.94-.52-.52A4.52,4.52,0,0,0,425.85,597.52Z"/><path d="M434.58,632a4.6,4.6,0,0,0,.46,1c.16-.16.48-.36.45-.48a4.25,4.25,0,0,0-.45-1C434.88,631.65,434.56,631.84,434.58,632Z"/><path d="M547.67,631c-.17-.31-.35-.62-.52-.94-.16.16-.48.36-.46.48a5.11,5.11,0,0,0,.46,1Z"/><path d="M545.6,619.82a3,3,0,0,0,.66-.86c0-.05-.28-.29-.45-.46a6.27,6.27,0,0,0-.83.7.63.63,0,0,0,0,.61A.6.6,0,0,0,545.6,619.82Z"/><path d="M438.68,614.74c.16.16.36.48.48.46a4.77,4.77,0,0,0,1-.46l-.51-.52Z"/><path d="M409.09,614.94a1.51,1.51,0,0,1-.06.36c.14-.12.27-.23.25-.31a4.52,4.52,0,0,0-.45-1c-.16.17-.48.36-.46.48a2.33,2.33,0,0,0,.11.28,1.72,1.72,0,0,0,.07-.21C408.74,614.68,409.1,614.81,409.09,614.94Z"/><path d="M409,615.3a1.51,1.51,0,0,0,.06-.36c0-.13-.35-.26-.54-.38a1.72,1.72,0,0,1-.07.21c.11.24.23.47.35.7A1.77,1.77,0,0,1,409,615.3Z"/><path d="M402.3,622.77a.6.6,0,0,0,0,.61,2.93,2.93,0,0,0,.85.67c.06,0,.3-.28.46-.45a4.66,4.66,0,0,0-.7-.83A.63.63,0,0,0,402.3,622.77Z"/><path d="M555.16,622l.94.52.3-.31-.24-.46a2.54,2.54,0,0,0-.52-.2C555.52,621.54,555.32,621.86,555.16,622Z"/><path d="M541.33,622.75c.17-.32.35-.63.51-.94l-.51-.52a4.57,4.57,0,0,0-.46,1C540.84,622.39,541.16,622.59,541.33,622.75Z"/><path d="M400.82,621.29a1.24,1.24,0,0,0,1.46,1.46C402.31,621.74,401.83,621.26,400.82,621.29Z"/><path d="M544.13,621.12c.11.07.55-.41.84-.63,0-.22.08-.52,0-.63a.63.63,0,0,0-.61,0C543.85,620.19,543.25,620.61,544.13,621.12Z"/><path d="M446,537.57c.21.11.42.23.63.32l.56-.46-.67-.37Z"/><path d="M408.37,553.34a5.11,5.11,0,0,0,.46,1l.52-.52c-.17-.31-.35-.62-.52-.94C408.67,553,408.35,553.22,408.37,553.34Z"/><path d="M413.93,550.68l.93.52.52-.52a4.6,4.6,0,0,0-1-.46C414.28,550.2,414.09,550.52,413.93,550.68Z"/><path d="M399.64,548c0,.11.29.31.45.47.18-.31.35-.63.52-.93l-.52-.52A4.13,4.13,0,0,0,399.64,548Z"/><path d="M335.24,329.05c-.13-.15-.27-.3-.41-.44l-.11.09C334.89,328.82,335.12,329,335.24,329.05Z"/><path d="M334.57,580.53a4.25,4.25,0,0,0-.45,1c0,.12.29.32.45.48.18-.31.35-.63.52-.94Z"/><path d="M338.49,576.64a4.25,4.25,0,0,0,.45,1c.16-.16.48-.35.46-.47a4.6,4.6,0,0,0-.46-1C338.78,576.32,338.46,576.52,338.49,576.64Z"/><path d="M403.73,574l.15.09.54-.46a.9.9,0,0,0-.21-.08C404.09,573.49,403.89,573.81,403.73,574Z"/><path d="M376.34,573.72a4.6,4.6,0,0,0,.46,1l.52-.52-.52-.93C376.64,573.41,376.32,573.6,376.34,573.72Z"/><path d="M228.53,583.71a4.29,4.29,0,0,0-1,.46l0,0,1.19-.31C228.69,583.78,228.6,583.7,228.53,583.71Z"/><path d="M395.21,565l.52.94c.16-.17.48-.36.45-.48a4.56,4.56,0,0,0-.45-1Z"/><path d="M393.81,562.08a4.77,4.77,0,0,0,.46,1l.52-.51-.52-.94C394.11,561.76,393.79,562,393.81,562.08Z"/><path d="M392.81,557.23c-.17.32-.35.63-.51.94l.51.52a4.57,4.57,0,0,0,.46-1C393.3,557.59,393,557.39,392.81,557.23Z"/><path d="M363,558l.93.52.52-.52a4.6,4.6,0,0,0-1-.46C363.32,557.48,363.13,557.8,363,558Z"/><path d="M380.92,556.05c-.12,0-.32.29-.48.45l.93.52c.2-.19.36-.36.52-.52A4.25,4.25,0,0,0,380.92,556.05Z"/><path d="M317.1,573.25c.16-.17.48-.36.46-.48a3.51,3.51,0,0,0-.41-.88l-.4.25-.17.17C316.75,572.61,316.93,572.93,317.1,573.25Z"/><path d="M358.6,569.61l.94.51.51-.51a4.29,4.29,0,0,0-1-.46C359,569.12,358.76,569.44,358.6,569.61Z"/><path d="M278.73,569.4c.17.3.34.62.52.93.16-.16.48-.35.45-.47a4.56,4.56,0,0,0-.45-1Z"/><path d="M652.44,568.4a5.11,5.11,0,0,0-.46-1c-.16.16-.48.36-.45.48a4.52,4.52,0,0,0,.45,1C652.14,568.72,652.46,568.52,652.44,568.4Z"/><path d="M554.43,567.42c-.11.11-.29.24-.39.35l.83.66.08-.07C554.78,568.05,554.6,567.74,554.43,567.42Z"/><path d="M370.52,566.94c0,.12.29.32.45.48.18-.31.35-.63.52-.94L371,566A4.25,4.25,0,0,0,370.52,566.94Z"/></g></g></svg>