<svg width="64" height="56" viewBox="0 0 64 56" fill="none" xmlns="http://www.w3.org/2000/svg">
<g clip-path="url(#clip0_108_270)">
<path d="M14.3733 33.7563C15.3402 32.9182 16.1632 31.9316 16.8104 30.8347L21.0045 23.9123C21.3612 23.3361 21.683 22.7395 21.9681 22.1258C22.2829 21.4559 22.4404 20.8977 22.4404 20.451C22.445 20.1058 22.373 19.7637 22.2294 19.4487C22.0858 19.1337 21.8741 18.8534 21.6091 18.6274C21.0549 18.1312 20.3118 17.7342 19.3798 17.4364L19.6065 16.3571H34.8716L34.6071 17.4364C33.811 17.5321 33.0411 17.7785 32.34 18.1622C31.6638 18.5212 31.0767 19.0233 30.6208 19.6323C30.2017 20.1657 29.9697 20.8187 29.9596 21.4931C29.9546 22.1676 30.0179 22.8408 30.1485 23.5029L31.5087 30.7975C31.7354 32.1125 32.1322 33.1112 32.699 33.7935C33.2657 34.4759 34.2167 35.0135 35.5517 35.4063L35.325 36.4484H24.5185L24.7452 35.4063C25.5494 35.2828 26.3278 35.0314 27.0501 34.662C27.6624 34.3517 28.1879 33.898 28.5804 33.3407C28.9454 32.8081 29.1366 32.1783 29.1283 31.5357C29.1245 31.1253 29.0993 30.7153 29.0527 30.3075H19.4931C19.31 30.6598 19.1582 31.0272 19.0397 31.4054C18.9454 31.7007 18.8945 32.0078 18.8886 32.3172C18.8886 33.1857 19.0838 33.8473 19.4743 34.3022C19.8647 34.7571 20.5007 35.1354 21.3824 35.4373L21.1179 36.4794H10.7271L10.9915 35.4373C12.2345 35.1392 13.3915 34.5641 14.3733 33.7563V33.7563ZM13.2964 40.2136H31.5843L31.0931 42.4094H12.843L13.2964 40.2136ZM28.7127 27.7829C28.695 27.4707 28.6571 27.1599 28.5993 26.8525L27.428 19.409H26.0677L21.5713 26.8525C21.3698 27.1998 21.0801 27.6713 20.7023 28.2667H28.7882L28.7127 27.7829Z" fill="#212121"/>
<path d="M32.5416 53.004C33.3392 52.4792 34.0152 51.7943 34.5253 50.9943C35.04 50.1879 35.4242 49.1768 35.6778 47.961L38.1338 36.7958C38.4864 35.183 38.3731 33.868 37.7937 32.8507C37.2143 31.8334 36.169 31.0518 34.6576 30.506L34.8843 29.3895H50.2249C52.6667 29.3895 54.5874 29.9043 55.9871 30.934C57.3869 31.9637 58.0859 33.4462 58.0842 35.3815C58.0842 37.0935 57.6812 38.5698 56.8751 39.8104C56.069 41.051 54.9103 41.9938 53.3989 42.6389C51.8875 43.284 50.0738 43.6066 47.9578 43.6066H38.8895L38.0582 47.7377C37.6552 49.4993 37.7433 50.8888 38.3227 51.9061C38.9021 52.9234 40.0356 53.7422 41.7233 54.3624L41.4966 55.4418H29.2921L29.5188 54.3624C30.7279 53.9903 31.7355 53.5375 32.5416 53.004ZM52.1709 40.8339C53.1491 40.4966 54.0082 39.8894 54.6458 39.0846C55.2503 38.3031 55.5526 37.3168 55.5526 36.1258C55.5526 34.7612 55.0299 33.7501 53.9845 33.0926C52.9392 32.4351 51.5222 32.1063 49.7337 32.1063H46.4087C45.2499 32.1063 44.2843 32.2304 43.5118 32.4785C42.7472 32.7236 42.0798 33.1987 41.6037 33.837C41.0999 34.4986 40.7094 35.4228 40.4324 36.6097L39.4122 41.4107H48.4805C49.8954 41.4107 51.1255 41.2184 52.1709 40.8339V40.8339ZM49.0158 52.8365C47.8882 50.9846 47.0117 48.9951 46.4087 46.9189L45.3129 43.1227L47.4289 43.0111L48.3735 45.9141C48.9529 47.6757 49.7022 48.9907 50.6217 49.8591C51.0637 50.2836 51.5869 50.6173 52.161 50.8409C52.735 51.0645 53.3485 51.1736 53.9656 51.1617C54.4223 51.1614 54.8778 51.1178 55.3259 51.0315C55.7562 50.9519 56.1749 50.8207 56.5728 50.6407L57.2529 51.5711L52.6432 56C51.3333 55.7023 50.1242 54.6478 49.0158 52.8365Z" fill="#212121"/>
<path d="M42.5672 25.9716C40.7231 24.9752 39.2232 23.4589 38.2597 21.6172C37.2773 19.7563 36.7861 17.6246 36.7861 15.222C36.7757 12.6038 37.5016 10.0339 38.8832 7.79707C40.2608 5.51848 42.2217 3.63618 44.5698 2.3385C46.9629 0.998664 49.6204 0.32875 52.5424 0.32875C53.9395 0.319131 55.3294 0.526366 56.661 0.942838C57.8843 1.31982 59.025 1.91946 60.0238 2.71067L61.6864 0.365966H62.8955L63.5 9.11209L61.9509 9.52148C60.9433 7.66061 59.5515 6.24634 57.7756 5.27868C55.9997 4.31103 53.8649 3.8272 51.3711 3.8272C49.2827 3.82661 47.2261 4.33144 45.3822 5.29729C43.5318 6.23268 41.9474 7.60779 40.7724 9.29818C39.6223 10.9113 39.0064 12.8352 39.0091 14.8064C39.0091 16.6921 39.4751 18.3296 40.4072 19.7191C41.3392 21.1085 42.6407 22.163 44.3116 22.8826C45.9909 23.6021 47.8991 23.9619 50.036 23.9619C52.0872 23.9716 54.1078 23.4724 55.9116 22.5104C57.7677 21.5208 59.3969 20.1652 60.6977 18.5281L62.2091 19.3469C60.9496 21.9273 59.1926 23.9371 56.9381 25.3762C54.6836 26.8152 52.1331 27.5348 49.2866 27.5348C46.6963 27.5348 44.4565 27.0137 42.5672 25.9716Z" fill="#212121"/>
<path d="M47.9792 19.0157C47.3352 18.8199 46.726 18.5269 46.1731 18.1473L45.4854 19.1174H45.032L44.7977 15.253L45.2247 15.0979C45.7984 15.902 46.5656 16.5535 47.4575 16.994C48.3495 17.4346 49.3383 17.6506 50.3357 17.6225C50.8732 17.6304 51.4093 17.5682 51.9303 17.4377C52.3316 17.3449 52.7027 17.1542 53.0097 16.8831C53.1358 16.7672 53.2357 16.6265 53.303 16.47C53.3703 16.3136 53.4033 16.1449 53.4001 15.975C53.4039 15.7972 53.3689 15.6207 53.2974 15.4574C53.2259 15.294 53.1196 15.1478 52.9857 15.0285C52.6899 14.7649 52.3446 14.561 51.9693 14.428C51.5688 14.2792 51.0087 14.0968 50.2891 13.8809C49.4553 13.6452 48.7886 13.4298 48.289 13.2346C47.806 13.0515 47.3706 12.7646 47.0144 12.3947C46.6581 12.0183 46.4675 11.5184 46.4842 11.004C46.4744 10.4352 46.6811 9.88331 47.0636 9.457C47.4795 9.0006 48.0066 8.65606 48.5951 8.45585C49.246 8.22236 49.934 8.10515 50.6267 8.10973C51.2468 8.101 51.865 8.17869 52.463 8.34048C52.9556 8.47551 53.4265 8.6776 53.8623 8.94092L54.4719 8.10973H54.8939L55.3158 11.5747L54.8624 11.7434C54.3552 11.1156 53.7049 10.6145 52.9643 10.2808C52.2288 9.94993 51.361 9.78452 50.3609 9.78452C49.9048 9.77999 49.4501 9.83675 49.0095 9.95324C48.6507 10.0402 48.3166 10.2061 48.0321 10.4383C47.9214 10.5269 47.8318 10.6383 47.7698 10.7648C47.7077 10.8914 47.6747 11.0298 47.6732 11.1703C47.6773 11.3054 47.7125 11.4378 47.7759 11.5577C47.8394 11.6776 47.9296 11.7818 48.0397 11.8625C48.3129 12.0838 48.622 12.2583 48.9541 12.3786C49.3193 12.5175 49.8403 12.6945 50.5171 12.9095C51.265 13.1237 51.9986 13.3835 52.7137 13.6874C53.2574 13.9223 53.7526 14.2537 54.1747 14.665C54.3738 14.8592 54.5306 15.0914 54.6355 15.3474C54.7403 15.6033 54.7909 15.8777 54.7843 16.1537C54.7843 17.1908 54.3598 17.9811 53.5109 18.5244C52.662 19.0678 51.5184 19.3399 50.0801 19.3407C49.3668 19.3418 48.6578 19.2321 47.9792 19.0157V19.0157Z" fill="#212121"/>
<path d="M3.69282 23.5215C4.46403 23 5.11435 22.3235 5.60096 21.5366C6.07957 20.755 6.45742 19.7687 6.7345 18.5778L9.11495 7.3753C9.36685 6.3084 9.41723 5.39036 9.26609 4.6212C9.12104 3.86362 8.75314 3.16475 8.20811 2.61145C7.65393 2.04079 6.87305 1.53214 5.86545 1.08553L6.05437 0.00622559H21.1683C23.511 0.00622559 25.3498 0.589301 26.6849 1.75545C28.02 2.9216 28.6875 4.50955 28.6875 6.5193C28.6875 8.92603 27.7744 10.8179 25.9481 12.195C24.1218 13.572 21.5462 14.2585 18.2211 14.2543H9.87064L9.0016 18.3483C8.7497 19.4896 8.69932 20.4573 8.85046 21.2512C9.00494 22.0513 9.41541 22.7817 10.0218 23.3354C10.6515 23.9309 11.5458 24.4768 12.7045 24.973L12.5156 26.0523H0.5L0.688924 24.973C1.89804 24.5512 2.89934 24.0674 3.69282 23.5215ZM24.1344 10.6318C25.4821 9.72207 26.1559 8.4236 26.1559 6.7364C26.1559 5.42138 25.6584 4.42271 24.6634 3.74039C23.6684 3.05807 22.2893 2.7169 20.526 2.7169H17.4276C16.2689 2.7169 15.3054 2.83476 14.5371 3.07047C13.764 3.30936 13.0845 3.77722 12.5912 4.4103C12.0622 5.06781 11.6591 5.99205 11.382 7.18301L10.3619 11.9841H18.3345C20.8535 11.9841 22.7868 11.5333 24.1344 10.6318Z" fill="#212121"/>
</g>
<defs>
<clipPath id="clip0_108_270">
<rect width="63" height="56" fill="white" transform="translate(0.5)"/>
</clipPath>
</defs>
</svg>
