<svg width="721" height="162" viewBox="0 0 721 162" fill="none" xmlns="http://www.w3.org/2000/svg">
<path d="M19.6423 143.499C24.1509 140.403 27.9497 136.386 30.7879 131.716C33.5835 127.091 35.7906 121.254 37.4091 114.207L51.3135 47.9125C52.7849 41.5987 53.0792 36.166 52.1963 31.6142C51.3491 27.131 49.2001 22.9952 46.0166 19.7209C42.7796 16.3438 38.2183 13.3338 32.3329 10.6908L33.4364 4.30371H121.719C135.402 4.30371 146.143 7.75424 153.942 14.6553C161.74 21.5563 165.639 30.9535 165.639 42.8468C165.639 57.0894 160.305 68.2852 149.638 76.4343C138.97 84.5835 123.926 88.658 104.504 88.658H55.7276L50.6514 112.885C49.1801 119.639 48.8858 125.366 49.7686 130.064C50.6709 134.799 53.0686 139.121 56.6105 142.398C60.2889 145.922 65.5122 149.152 72.2805 152.089L71.177 158.476H0.992676L2.0962 152.089C9.16368 149.593 15.0124 146.73 19.6423 143.499ZM139.044 67.1473C146.916 61.788 150.852 54.1161 150.852 44.1316C150.852 36.3495 147.946 30.4396 142.134 26.4018C136.322 22.3639 128.266 20.345 117.967 20.345H99.8687C93.1004 20.345 87.4724 21.0424 82.9847 22.4373C78.4691 23.851 74.5001 26.6197 71.6184 30.3662C68.5286 34.2817 66.1744 39.7511 64.5558 46.7745L58.5968 75.1863H105.166C119.884 75.2108 131.179 72.5433 139.051 67.184L139.044 67.1473Z" fill="#121212"/>
<path d="M145.592 107.269C151.239 102.309 156.046 96.4704 159.827 89.9795L184.325 49.0137C186.406 45.6021 188.285 42.0722 189.953 38.4419C191.793 34.4774 192.712 31.1738 192.712 28.5308C192.738 26.4878 192.317 24.4639 191.478 22.6C190.639 20.7361 189.404 19.0772 187.857 17.7387C184.62 14.8021 180.279 12.4528 174.835 10.6908L176.159 4.30371H265.361L263.816 10.6908C259.166 11.257 254.669 12.7154 250.574 14.9856C246.624 17.1104 243.195 20.0814 240.532 23.6854C238.084 26.8423 236.729 30.7065 236.669 34.6977C236.64 38.6889 237.01 42.673 237.773 46.591L245.718 89.7593C247.042 97.5413 249.36 103.451 252.67 107.489C255.981 111.527 261.536 114.721 269.334 117.07L268.01 123.237H204.888L206.212 117.07C210.909 116.336 215.455 114.849 219.675 112.665C223.237 110.822 226.293 108.138 228.577 104.846C230.706 101.692 231.822 97.9665 231.777 94.1642C231.755 91.7355 231.608 89.3096 231.336 86.896H175.497C174.421 88.9781 173.534 91.1527 172.849 93.3933C172.298 95.1407 172 96.9578 171.966 98.7893C171.966 103.928 173.106 107.856 175.387 110.573C177.667 113.289 181.383 115.528 186.532 117.29L184.987 123.457H124.293L125.838 117.29C133.105 115.504 139.864 112.076 145.592 107.269V107.269ZM139.301 145.445H246.123L243.254 158.439H136.653L139.301 145.445ZM229.349 71.956C229.242 70.1088 229.021 68.2699 228.687 66.4499L221.845 22.4006H213.9L187.636 66.4499C186.449 68.5055 184.757 71.2953 182.56 74.8192H229.791L229.349 71.956Z" fill="#121212"/>
<path d="M272.6 144.05C277.259 140.944 281.207 136.891 284.187 132.157C287.204 127.385 289.447 121.401 290.919 114.207L305.265 48.1327C307.325 38.5887 306.662 30.8067 303.278 24.7866C299.894 18.7665 293.788 14.1414 284.96 10.9111L286.284 4.30371H375.89C390.163 4.30371 401.382 7.35044 409.548 13.4439C417.714 19.5374 421.797 28.3105 421.797 39.7633C421.797 49.8947 419.443 58.6311 414.735 65.9726C410.026 73.3142 403.258 78.8938 394.43 82.7114C385.601 86.529 375.007 88.4378 362.648 88.4378H309.679L304.823 112.885C302.469 123.31 302.984 131.533 306.368 137.553C309.752 143.573 316.373 148.418 326.232 152.089L324.907 158.476H253.59L254.914 152.089C261.997 149.886 267.892 147.207 272.6 144.05ZM387.257 72.0294C392.971 70.0357 397.99 66.442 401.713 61.6778C405.244 57.0527 407.01 51.2161 407.01 44.1683C407.01 36.0926 403.957 30.1092 397.851 26.2182C391.744 22.3272 383.468 20.3817 373.021 20.3817H353.599C346.831 20.3817 341.191 21.1158 336.678 22.5841C332.213 24.0363 328.315 26.8475 325.533 30.6231C322.59 34.5142 320.309 39.9836 318.691 47.0315L312.732 75.4432H365.701C373.965 75.4432 381.15 74.3053 387.257 72.0294ZM368.828 143.059C362.247 132.096 357.128 120.324 353.599 108.04L347.199 85.5746L359.558 84.9138L365.076 102.093C368.46 112.518 372.837 120.3 378.208 125.439C380.79 127.951 383.846 129.926 387.199 131.249C390.552 132.573 394.135 133.218 397.74 133.148C400.407 133.146 403.068 132.888 405.686 132.377C408.199 131.906 410.645 131.129 412.969 130.064L416.942 135.57L390.015 161.78C382.364 160.018 375.302 153.777 368.828 143.059Z" fill="#121212"/>
<path d="M454.903 152.75C444.131 146.853 435.37 137.88 429.742 126.981C424.004 115.968 421.135 103.341 421.135 89.0984C421.074 73.6043 425.314 58.3961 433.384 45.1593C441.436 31.6885 452.889 20.5625 466.6 12.8932C480.578 4.96436 496.101 0.999941 513.169 0.999941C521.329 0.943017 529.448 2.16939 537.226 4.63399C544.371 6.86489 551.034 10.4135 556.869 15.0957L566.58 1.22018H573.642L577.174 52.978L568.125 55.4008C562.239 44.3884 554.11 36.0191 543.737 30.2927C533.364 24.5663 520.894 21.7031 506.327 21.7031C494.131 21.7008 482.121 24.6882 471.353 30.4028C460.544 35.9382 451.29 44.0759 444.427 54.0793C437.708 63.6255 434.111 75.0105 434.127 86.6757C434.127 97.8348 436.849 107.526 442.293 115.748C447.737 123.971 455.339 130.211 465.099 134.469C474.908 138.727 486.054 140.856 498.536 140.856C510.517 140.914 522.32 137.96 532.856 132.267C543.698 126.411 553.214 118.388 560.812 108.7L569.64 113.546C562.283 128.816 552.021 140.709 538.852 149.226C525.683 157.742 510.785 162 494.159 162C479.023 162 465.938 158.916 454.903 152.75Z" fill="#121212"/>
<path d="M618.262 156.934C608.477 153.704 600.139 149.519 593.248 144.38L583.758 158.476H577.799L574.268 104.516L580.227 102.534C588.318 114.037 599.019 123.471 611.457 130.064C623.718 136.525 637.291 139.755 652.177 139.755C659.85 139.847 667.5 138.884 674.909 136.892C681.678 134.983 687.011 132.157 690.91 128.413C692.783 126.69 694.271 124.594 695.279 122.261C696.286 119.927 696.791 117.408 696.759 114.867C696.808 112.223 696.292 109.598 695.246 107.167C694.199 104.737 692.646 102.557 690.69 100.772C686.385 96.7909 681.369 93.653 675.903 91.5213C667.986 88.4737 659.92 85.8273 651.735 83.5924C642.151 80.9136 632.72 77.7153 623.485 74.0117C616.557 71.179 610.294 66.9416 605.093 61.5677C600.017 56.2818 597.479 49.601 597.479 41.5253C597.41 33.6457 600.296 26.0253 605.571 20.1615C610.942 13.9946 618.053 9.25929 626.906 5.95559C635.945 2.61441 645.517 0.935443 655.156 1.00005C663.993 0.883054 672.801 2.03272 681.31 4.41386C688.252 6.37739 694.853 9.38525 700.886 13.3338L709.715 1.00005H715.674L720.971 49.8947L714.57 52.0972C707.549 42.8561 698.486 35.3567 688.085 30.1827C677.639 24.9702 665.353 22.3639 651.228 22.3639C644.74 22.3066 638.276 23.1592 632.026 24.8968C626.141 26.5853 621.432 29.0447 617.901 32.275C614.37 35.5053 612.604 39.3229 612.604 43.7278C612.604 47.8391 614.407 51.3997 618.011 54.4098C622.102 57.7027 626.682 60.3405 631.585 62.2285C637.029 64.431 644.533 67.0739 654.097 70.1574C666.604 74.2686 676.866 78.0128 684.885 81.3899C692.586 84.5528 699.567 89.2349 705.411 95.1553C711.076 100.955 713.908 108.04 713.908 116.409C713.908 131.239 707.949 142.508 696.031 150.217C684.113 157.925 668.296 161.78 648.579 161.78C638.278 161.798 628.041 160.162 618.262 156.934V156.934Z" fill="#121212"/>
<path d="M458.486 73.7326C458.98 73.1174 459.319 72.392 459.471 71.6182L460.207 68.0943C460.413 67.3132 460.33 66.484 459.972 65.7597C459.595 65.0868 458.969 64.5884 458.228 64.3721L458.383 63.638L462.708 61.7659H463.393V61.832C463.003 62.801 462.657 63.66 462.451 64.4088C462.197 65.2041 461.989 66.013 461.826 66.8316L460.832 71.5008C460.653 72.1952 460.724 72.9303 461.031 73.5784C461.178 73.878 461.384 74.1448 461.637 74.363C461.89 74.5812 462.184 74.7464 462.502 74.8485L462.304 75.7515H456.212L456.433 74.8485C457.217 74.7003 457.935 74.3099 458.486 73.7326V73.7326Z" fill="#121212"/>
<path d="M467.012 75.502C466.296 75.1663 465.673 74.6625 465.195 74.0337C464.76 73.467 464.474 72.8007 464.364 72.0955L465.026 71.6991C465.57 72.3691 466.273 72.8938 467.071 73.2261C467.925 73.5666 468.84 73.7279 469.758 73.7002C470.677 73.6724 471.581 73.456 472.412 73.0646C473.283 72.6517 474.04 72.0345 474.619 71.2659C475.197 70.524 475.529 69.6206 475.568 68.6817C474.872 69.4514 474.013 70.056 473.052 70.451C472.073 70.8576 471.023 71.0648 469.962 71.0604C469.047 71.0812 468.138 70.8928 467.307 70.5097C466.589 70.1784 465.979 69.6517 465.548 68.99C465.13 68.3322 464.915 67.5663 464.93 66.7876C464.925 65.8677 465.208 64.9692 465.739 64.218C466.293 63.4322 467.041 62.8025 467.91 62.3899C468.837 61.9386 469.858 61.7099 470.889 61.7219C471.942 61.7156 472.981 61.9677 473.913 62.456C474.846 62.94 475.629 63.6684 476.179 64.5631C476.759 65.526 477.052 66.6336 477.025 67.7567C477.038 69.2165 476.681 70.6559 475.988 71.9413C475.349 73.1599 474.406 74.194 473.251 74.944C472.17 75.6562 470.904 76.0365 469.609 76.0379C468.714 76.0587 467.826 75.8755 467.012 75.502V75.502ZM472.898 69.0634C473.86 68.6624 474.731 68.0705 475.458 67.3235C475.184 66.3841 474.591 65.569 473.781 65.0182C472.852 64.3877 471.747 64.0689 470.624 64.1079C469.875 64.0926 469.129 64.2043 468.417 64.4383C467.831 64.622 467.306 64.9592 466.894 65.4147C466.524 65.8314 466.323 66.3703 466.328 66.9271C466.331 67.3986 466.486 67.8566 466.769 68.2338C467.098 68.6651 467.531 69.0062 468.027 69.225C468.638 69.4969 469.301 69.6298 469.97 69.614C470.967 69.6216 471.957 69.4346 472.883 69.0634H472.898Z" fill="#121212"/>
<path d="M479.813 75.5826C479.052 75.3134 478.375 74.8502 477.849 74.239C477.573 73.9179 477.369 73.5409 477.253 73.134C477.136 72.7271 477.109 72.2998 477.173 71.8814C477.237 71.463 477.392 71.0635 477.625 70.7101C477.858 70.3568 478.166 70.0579 478.526 69.8341C479.531 69.1895 480.649 68.7388 481.821 68.5053C481.202 68.1391 480.649 67.6698 480.188 67.1177C479.804 66.6283 479.601 66.0214 479.614 65.3998C479.594 64.6625 479.857 63.9453 480.35 63.3956C480.871 62.8271 481.526 62.398 482.256 62.1475C482.984 61.8836 483.753 61.747 484.529 61.7438C485.368 61.7318 486.2 61.8969 486.971 62.2283C487.644 62.5084 488.233 62.9588 488.678 63.5351C489.083 64.0643 489.3 64.7123 489.296 65.3778C489.315 65.9966 489.126 66.6039 488.759 67.1031C488.395 67.5826 487.92 67.9678 487.376 68.2263C486.787 68.509 486.164 68.7138 485.522 68.8357C486.075 69.1085 486.605 69.4278 487.104 69.7901C487.502 70.0823 487.839 70.4488 488.097 70.8693C488.342 71.2876 488.467 71.7651 488.457 72.2495C488.484 73.0144 488.222 73.7614 487.722 74.3418C487.152 74.9519 486.428 75.396 485.625 75.6266C484.648 75.9267 483.631 76.0729 482.609 76.0598C481.655 76.0741 480.707 75.9123 479.813 75.5826V75.5826ZM485.044 73.5343C485.511 73.431 485.949 73.2225 486.324 72.9249C486.452 72.8319 486.557 72.712 486.634 72.5737C486.71 72.4354 486.755 72.2822 486.765 72.1247C486.769 71.8221 486.665 71.5281 486.471 71.2951C486.176 70.9736 485.834 70.6988 485.456 70.4802C484.978 70.1792 484.279 69.8048 483.366 69.3496C482.297 69.5485 481.253 69.8661 480.254 70.2966C479.46 70.6637 479.063 71.1531 479.063 71.7649C479.063 71.9755 479.113 72.183 479.209 72.3705C479.305 72.5581 479.444 72.7204 479.614 72.8442C480.052 73.1683 480.553 73.396 481.086 73.5122C481.738 73.6728 482.408 73.7517 483.079 73.7472C483.741 73.7599 484.401 73.6884 485.044 73.5343V73.5343ZM486.515 67.1765C487.251 66.8167 487.575 66.3616 487.575 65.8036C487.577 65.606 487.539 65.4099 487.462 65.2279C487.384 65.0459 487.27 64.8819 487.126 64.7464C486.771 64.4247 486.341 64.1974 485.875 64.0857C485.307 63.9339 484.72 63.8598 484.132 63.8654C483.396 63.8459 482.666 64.0046 482.005 64.328C481.751 64.4237 481.531 64.5915 481.372 64.8106C481.212 65.0298 481.121 65.2908 481.108 65.5613C481.118 65.8207 481.19 66.074 481.318 66.3001C481.446 66.5261 481.626 66.7183 481.844 66.8608C482.476 67.3268 483.159 67.7185 483.881 68.0281C484.789 67.865 485.671 67.5785 486.5 67.1765H486.515Z" fill="#121212"/>
<path d="M496.087 73.6078C496.722 72.9039 497.135 72.0275 497.271 71.0896L498.507 65.0769C498.743 64.2456 498.683 63.3585 498.338 62.5661C497.936 61.8554 497.303 61.3035 496.543 61.0024L496.697 60.3196H504.054L503.899 61.0024C502.902 61.1921 501.969 61.6345 501.192 62.2871C500.48 62.994 500.013 63.9099 499.861 64.9007L498.779 70.1646C498.657 70.5919 498.63 71.0405 498.7 71.4792C498.77 71.918 498.935 72.3362 499.184 72.7048C499.488 73.0345 499.865 73.289 500.286 73.4483C500.706 73.6076 501.157 73.6672 501.604 73.6225H502.987C503.734 73.6283 504.478 73.5243 505.194 73.3141C505.88 73.1095 506.535 72.8158 507.144 72.4404C507.771 72.0555 508.353 71.6025 508.88 71.0896L509.388 71.4641L506.783 75.7368H493.423L493.578 75.054C494.517 74.7764 495.376 74.2808 496.087 73.6078V73.6078Z" fill="#121212"/>
<path d="M509.961 75.1643C509.72 74.4673 509.704 73.7121 509.917 73.0058L510.447 70.7593C510.644 70.0421 510.684 69.291 510.565 68.5569C510.421 67.9899 510.111 67.4786 509.675 67.0886L509.785 66.4498L512.853 65.0843H513.471C512.771 66.7852 512.232 68.5474 511.86 70.3482L511.484 72.0881C511.376 72.4748 511.392 72.8854 511.528 73.2628C511.584 73.398 511.679 73.5136 511.801 73.5947C511.923 73.6758 512.066 73.7187 512.213 73.718C512.441 73.6974 512.659 73.6192 512.849 73.4908C513.038 73.3623 513.191 73.1878 513.294 72.9838L513.691 73.2922C513.502 73.9909 513.174 74.6449 512.728 75.2156C512.569 75.4479 512.357 75.6398 512.111 75.7762C511.864 75.9126 511.589 75.9896 511.308 76.0012C511.023 76.0242 510.739 75.9553 510.496 75.8046C510.254 75.6539 510.066 75.4294 509.961 75.1643V75.1643ZM511.86 62.5955C511.627 62.3324 511.501 61.9921 511.506 61.6411C511.513 61.2131 511.687 60.8046 511.992 60.5032C512.131 60.3411 512.304 60.2111 512.498 60.1224C512.692 60.0336 512.904 59.9882 513.118 59.9893C513.304 59.9768 513.49 60.0037 513.665 60.0682C513.84 60.1328 514 60.2335 514.133 60.3637C514.379 60.6422 514.506 61.006 514.486 61.3769C514.489 61.5941 514.446 61.8095 514.358 62.0084C514.27 62.2073 514.141 62.385 513.978 62.5294C513.652 62.8413 513.216 63.0127 512.764 63.0067C512.592 63.0102 512.422 62.9751 512.265 62.904C512.108 62.8328 511.97 62.7274 511.86 62.5955Z" fill="#121212"/>
<path d="M515.7 75.0763C515.366 74.3263 515.293 73.4862 515.494 72.6903L516.23 69.4967C516.444 68.6863 516.429 67.8322 516.185 67.0299C516.064 66.7377 515.86 66.4867 515.599 66.307C515.338 66.1273 515.031 66.0265 514.714 66.0168L514.846 65.3561C515.399 65.2891 515.933 65.1172 516.421 64.8495C516.934 64.5533 517.384 64.1592 517.745 63.6895C518.195 63.1084 518.564 62.4687 518.841 61.7881H519.503L518.768 65.3561H521.813L521.659 66.0168C520.683 66.1292 519.755 66.502 518.974 67.096C518.231 67.6941 517.727 68.538 517.554 69.4747L517.046 71.9194C516.886 72.402 516.917 72.9277 517.134 73.3877C517.247 73.5742 517.411 73.7249 517.606 73.8224C517.802 73.9198 518.021 73.96 518.238 73.9383C518.591 73.9343 518.93 73.804 519.194 73.5712C519.483 73.329 519.715 73.0255 519.871 72.6829L520.467 72.9472C520.256 73.799 519.851 74.5905 519.283 75.2598C519.062 75.5114 518.789 75.7124 518.483 75.8493C518.177 75.9861 517.845 76.0555 517.51 76.0527C517.144 76.0969 516.773 76.0267 516.449 75.8518C516.125 75.6769 515.863 75.4059 515.7 75.0763Z" fill="#121212"/>
<path d="M522.586 75.0762C522.268 74.3316 522.206 73.503 522.409 72.7196L523.145 69.526C523.36 68.7156 523.344 67.8615 523.101 67.0593C522.979 66.767 522.776 66.516 522.515 66.3363C522.254 66.1566 521.946 66.0558 521.629 66.0461L521.762 65.3854C522.314 65.3184 522.849 65.1465 523.336 64.8788C523.85 64.5826 524.3 64.1885 524.66 63.7189C525.111 63.1377 525.48 62.498 525.757 61.8174H526.419L525.683 65.3854H528.729L528.574 66.0461C527.598 66.1585 526.671 66.5313 525.889 67.1253C525.146 67.7234 524.642 68.5673 524.469 69.504L523.962 71.9487C523.801 72.4313 523.833 72.957 524.05 73.417C524.163 73.6035 524.326 73.7542 524.522 73.8517C524.717 73.9491 524.936 73.9893 525.153 73.9676C525.506 73.9636 525.845 73.8333 526.11 73.6005C526.399 73.3583 526.63 73.0549 526.787 72.7123L527.383 72.9765C527.172 73.8283 526.767 74.6198 526.198 75.2891C525.977 75.5407 525.704 75.7417 525.398 75.8786C525.092 76.0154 524.76 76.0848 524.425 76.082C524.051 76.1302 523.672 76.0588 523.341 75.878C523.011 75.6973 522.746 75.4165 522.586 75.0762V75.0762Z" fill="#121212"/>
<path d="M528.898 75.1864C528.694 74.4813 528.694 73.7331 528.898 73.028L530.553 65.2533C530.76 64.4208 530.822 63.5592 530.737 62.7058C530.66 62.0845 530.35 61.5154 529.869 61.1126L530.001 60.4739L533.003 59.1084H533.643C533.57 59.314 533.503 59.5122 533.445 59.7031C533.136 60.4475 532.866 61.2071 532.635 61.9789C532.422 62.7131 532.216 63.5427 532.01 64.4824L530.421 72.0589C530.312 72.4504 530.328 72.8658 530.465 73.2482C530.515 73.382 530.605 73.4967 530.724 73.5758C530.843 73.655 530.984 73.6945 531.127 73.6887C531.351 73.6866 531.568 73.6119 531.745 73.4758C531.942 73.3318 532.107 73.1495 532.231 72.9399L532.65 73.2702C532.46 73.969 532.133 74.6229 531.686 75.1937C531.519 75.4299 531.299 75.6239 531.044 75.7603C530.788 75.8966 530.504 75.9716 530.215 75.9793C529.938 76.015 529.657 75.9561 529.418 75.8121C529.179 75.6681 528.995 75.4476 528.898 75.1864V75.1864Z" fill="#121212"/>
<path d="M535.563 75.4505C534.847 75.0599 534.26 74.471 533.871 73.7546C533.478 73.0161 533.278 72.1902 533.29 71.3539C533.286 70.2677 533.567 69.1994 534.107 68.2558C534.637 67.3107 535.395 66.5131 536.314 65.9359C537.208 65.3582 538.25 65.0521 539.315 65.0549C540.142 65.0365 540.96 65.2366 541.684 65.6349C542.365 66.0218 542.923 66.5916 543.295 67.2794C543.704 68.0473 543.928 68.8992 543.95 69.7682L543.641 70.2086L534.394 72.0587L534.305 70.7813L542.398 69.1515C542.13 68.5577 541.672 68.0695 541.096 67.7639C540.404 67.372 539.618 67.1742 538.822 67.1913C538.096 67.1813 537.378 67.3423 536.726 67.6612C536.116 67.9559 535.594 68.4036 535.21 68.9606C534.837 69.5104 534.642 70.1613 534.651 70.8254C534.631 71.4648 534.825 72.0927 535.203 72.6093C535.581 73.098 536.091 73.4676 536.674 73.6739C537.287 73.9072 537.938 74.0242 538.594 74.0189C539.351 74.0261 540.101 73.8839 540.801 73.6004C541.52 73.2993 542.17 72.8574 542.714 72.301L543.156 72.6313C542.724 73.676 541.995 74.5718 541.059 75.2082C540.186 75.781 539.161 76.0802 538.116 76.0672C537.226 76.0873 536.346 75.8747 535.563 75.4505Z" fill="#121212"/>
<path d="M457.882 97.189C456.79 96.6109 455.892 95.725 455.3 94.6415C454.665 93.4707 454.348 92.1546 454.381 90.8239C454.376 89.2835 454.804 87.7727 455.616 86.463C456.438 85.1145 457.593 83.9995 458.971 83.2253C460.359 82.4241 461.936 82.006 463.54 82.014C464.392 82.0019 465.241 82.1233 466.056 82.3737C466.758 82.5919 467.415 82.9324 467.998 83.3795L469.013 82.014H469.749L470.146 87.3219L469.175 87.5422C468.589 86.5135 467.718 85.675 466.666 85.1268C465.493 84.5738 464.204 84.307 462.907 84.3486C461.687 84.3447 460.484 84.6317 459.398 85.1856C458.337 85.7052 457.422 86.4796 456.735 87.4394C456.082 88.3407 455.731 89.4253 455.734 90.5375C455.705 91.5458 456.008 92.5358 456.595 93.3567C457.194 94.1529 458.004 94.7659 458.934 95.126C460.002 95.5462 461.142 95.7532 462.289 95.7354C463.455 95.7451 464.606 95.473 465.644 94.9425C466.713 94.3881 467.671 93.6414 468.469 92.74L469.374 93.2245C468.739 94.6961 467.688 95.9513 466.35 96.8366C464.994 97.7017 463.412 98.1462 461.804 98.114C460.439 98.1405 459.09 97.8223 457.882 97.189V97.189Z" fill="#121212"/>
<path d="M472.368 97.4824C471.617 97.0821 470.992 96.4833 470.56 95.7516C470.127 95.02 469.906 94.1837 469.918 93.3344C469.901 92.2139 470.169 91.1074 470.698 90.1188C471.199 89.2049 471.939 88.4437 472.839 87.9164C473.759 87.3777 474.81 87.101 475.877 87.1162C476.786 87.1017 477.683 87.3136 478.489 87.7328C479.237 88.1231 479.858 88.7193 480.277 89.4508C480.704 90.2102 480.922 91.0688 480.909 91.9395C480.926 93.0627 480.636 94.1694 480.071 95.1405C479.545 96.0582 478.783 96.8187 477.864 97.343C476.953 97.8594 475.924 98.1301 474.877 98.1285C473.999 98.13 473.135 97.9076 472.368 97.4824V97.4824ZM477.29 95.4929C477.94 95.2048 478.503 94.7517 478.923 94.1787C479.337 93.6071 479.554 92.9166 479.541 92.2112C479.544 91.6499 479.351 91.1049 478.997 90.6695C478.62 90.1998 478.132 89.8314 477.577 89.5976C476.97 89.3383 476.316 89.2083 475.656 89.2159C474.895 89.2027 474.14 89.3634 473.449 89.6857C472.808 89.9845 472.255 90.445 471.846 91.0218C471.444 91.5881 471.233 92.2666 471.242 92.96C471.229 93.5419 471.419 94.1102 471.779 94.5678C472.166 95.0402 472.675 95.3982 473.251 95.603C473.868 95.8415 474.524 95.9611 475.186 95.9554C475.912 95.9541 476.63 95.7964 477.29 95.4929V95.4929Z" fill="#121212"/>
<path d="M482.498 97.2108C482.294 96.5057 482.294 95.7575 482.498 95.0524L484.154 87.2777C484.36 86.4452 484.422 85.5836 484.338 84.7302C484.26 84.1089 483.95 83.5398 483.469 83.137L483.602 82.4983L486.604 81.1328H487.244C487.17 81.3384 487.104 81.5366 487.045 81.7275C486.737 82.4719 486.467 83.2315 486.236 84.0033C486.022 84.7375 485.816 85.5671 485.61 86.5068L484.021 94.0833C483.913 94.4748 483.928 94.8902 484.065 95.2726C484.115 95.4064 484.206 95.5211 484.325 95.6002C484.444 95.6794 484.585 95.7189 484.728 95.7131C484.951 95.711 485.168 95.6363 485.346 95.5002C485.542 95.3562 485.707 95.1739 485.831 94.9643L486.25 95.2946C486.061 95.9934 485.733 96.6473 485.287 97.2181C485.12 97.4543 484.9 97.6483 484.644 97.7847C484.389 97.9211 484.105 97.996 483.815 98.0037C483.538 98.0394 483.257 97.9805 483.018 97.8365C482.779 97.6925 482.596 97.472 482.498 97.2108V97.2108Z" fill="#121212"/>
<path d="M487.663 97.2108C487.459 96.5057 487.459 95.7575 487.663 95.0524L489.318 87.2777C489.525 86.4452 489.587 85.5836 489.502 84.7302C489.425 84.1089 489.114 83.5398 488.634 83.137L488.767 82.4983L491.768 81.1328H492.408C492.335 81.3384 492.268 81.5366 492.209 81.7275C491.901 82.4719 491.631 83.2315 491.4 84.0033C491.187 84.7375 490.981 85.5671 490.775 86.5068L489.186 94.0833C489.077 94.4748 489.093 94.8902 489.23 95.2726C489.28 95.4064 489.37 95.5211 489.489 95.6002C489.608 95.6794 489.749 95.7189 489.892 95.7131C490.116 95.711 490.333 95.6363 490.51 95.5002C490.707 95.3562 490.872 95.1739 490.996 94.9643L491.415 95.2946C491.225 95.9934 490.897 96.6473 490.451 97.2181C490.284 97.4543 490.064 97.6483 489.809 97.7847C489.553 97.9211 489.269 97.996 488.98 98.0037C488.703 98.0394 488.422 97.9805 488.183 97.8365C487.944 97.6925 487.76 97.472 487.663 97.2108V97.2108Z" fill="#121212"/>
<path d="M492.827 97.1889C492.586 96.4919 492.57 95.7367 492.783 95.0305L493.313 92.784C493.51 92.0667 493.55 91.3156 493.431 90.5815C493.287 90.0146 492.977 89.5033 492.541 89.1132L492.651 88.4745L495.719 87.109H496.337C495.637 88.8098 495.097 90.5721 494.725 92.3729L494.35 94.1128C494.242 94.4994 494.258 94.91 494.394 95.2875C494.45 95.4227 494.545 95.5382 494.667 95.6193C494.789 95.7004 494.932 95.7434 495.079 95.7426C495.307 95.7221 495.525 95.6439 495.715 95.5154C495.904 95.387 496.057 95.2125 496.16 95.0085L496.557 95.3168C496.368 96.0156 496.04 96.6695 495.594 97.2403C495.435 97.4725 495.223 97.6645 494.977 97.8009C494.73 97.9372 494.455 98.0143 494.174 98.0259C493.889 98.0489 493.604 97.9799 493.362 97.8292C493.12 97.6785 492.932 97.454 492.827 97.1889V97.1889ZM494.725 84.6202C494.493 84.357 494.367 84.0167 494.372 83.6658C494.379 83.2377 494.553 82.8292 494.858 82.5279C494.997 82.3658 495.17 82.2358 495.364 82.147C495.558 82.0583 495.77 82.0129 495.983 82.014C496.17 82.0015 496.356 82.0284 496.531 82.0929C496.706 82.1574 496.865 82.2581 496.999 82.3884C497.245 82.6669 497.372 83.0307 497.352 83.4015C497.355 83.6187 497.312 83.8341 497.224 84.033C497.136 84.2319 497.007 84.4096 496.844 84.5541C496.518 84.8659 496.082 85.0373 495.63 85.0313C495.458 85.0349 495.288 84.9998 495.131 84.9286C494.974 84.8574 494.836 84.752 494.725 84.6202Z" fill="#121212"/>
<path d="M498.058 95.9188C498.494 95.2812 498.787 94.5577 498.919 93.7971L499.139 92.784C499.338 92.0482 499.338 91.2732 499.139 90.5374C498.932 89.956 498.562 89.4463 498.073 89.0691L498.205 88.4304L501.273 87.0869H501.935C501.817 87.3806 501.67 87.8064 501.494 88.3643C501.317 88.9223 501.17 89.4117 501.052 89.8326L500.258 93.5034C500.035 94.2433 500.035 95.0321 500.258 95.772C500.518 96.3774 500.996 96.8642 501.597 97.1375L501.442 97.7762H496.101L496.256 97.1375C496.956 96.9019 497.579 96.4806 498.058 95.9188ZM506.467 97.6073C506.162 97.2534 506.004 96.7964 506.025 96.3299C506.031 95.9506 506.083 95.5734 506.18 95.2067C506.283 94.7955 506.445 94.2229 506.665 93.4888C506.814 93.0341 506.935 92.5707 507.026 92.1012C507.093 91.7379 507.128 91.3694 507.129 91C507.138 90.7575 507.099 90.5156 507.013 90.2886C506.927 90.0616 506.796 89.8542 506.629 89.6785C506.43 89.4996 506.198 89.3624 505.945 89.2754C505.692 89.1883 505.424 89.1532 505.157 89.1719C504.367 89.2012 503.589 89.3755 502.862 89.6858C502.042 89.9963 501.275 90.4322 500.589 90.9779L500.964 89.4362C501.731 88.735 502.596 88.1489 503.531 87.6963C504.312 87.3078 505.168 87.0972 506.04 87.0796C506.402 87.0574 506.764 87.1113 507.104 87.2378C507.444 87.3642 507.753 87.5604 508.012 87.8137C508.25 88.0544 508.438 88.3401 508.564 88.6539C508.69 88.9678 508.753 89.3036 508.747 89.6418C508.742 90.0256 508.708 90.4085 508.644 90.7871C508.578 91.2129 508.505 91.6166 508.416 91.9984L507.997 93.8925C507.931 94.2042 507.894 94.5212 507.887 94.8396C507.876 95.1227 507.953 95.4022 508.107 95.6398C508.171 95.7402 508.259 95.8227 508.363 95.8792C508.467 95.9358 508.585 95.9646 508.703 95.9629C508.82 95.9623 508.936 95.9372 509.042 95.8891C509.149 95.841 509.244 95.7711 509.321 95.6839C509.524 95.4641 509.695 95.2169 509.829 94.9497L510.204 95.236C510.07 95.9942 509.746 96.7062 509.262 97.3064C509.084 97.5456 508.854 97.7412 508.589 97.8786C508.324 98.0159 508.031 98.0914 507.732 98.0992C507.498 98.1177 507.262 98.0831 507.043 97.998C506.824 97.9128 506.627 97.7792 506.467 97.6073V97.6073Z" fill="#121212"/>
<path d="M513.75 97.7689C513.145 97.5485 512.567 97.2578 512.029 96.9026L511.455 97.7616H510.793L510.683 94.0908L511.367 93.8045C511.87 94.5256 512.545 95.1108 513.331 95.5077C514.135 95.9261 515.029 96.1427 515.935 96.1391C516.597 96.1668 517.257 96.0619 517.878 95.8308C518.094 95.7641 518.282 95.6293 518.415 95.4466C518.547 95.2639 518.617 95.0432 518.613 94.8176C518.607 94.5919 518.533 94.3732 518.402 94.1891C518.271 94.0049 518.089 93.8634 517.878 93.7825C517.186 93.4591 516.461 93.2129 515.715 93.0483C515.06 92.9022 514.42 92.6983 513.802 92.439C513.315 92.2375 512.882 91.9258 512.537 91.5286C512.208 91.1335 512.035 90.6322 512.051 90.119C512.051 89.5592 512.246 89.0169 512.603 88.5847C512.995 88.1021 513.5 87.7238 514.074 87.4834C514.728 87.2081 515.432 87.0706 516.141 87.0796C516.724 87.0707 517.306 87.1398 517.87 87.2852C518.342 87.4087 518.788 87.615 519.187 87.8946L519.739 87.0796H520.357L520.776 90.5596L520.136 90.8238C519.64 90.266 519.034 89.8162 518.356 89.5024C517.639 89.1839 516.86 89.0261 516.075 89.0398C515.474 89.011 514.875 89.1321 514.332 89.3922C514.148 89.47 513.99 89.5983 513.877 89.762C513.764 89.9258 513.699 90.1184 513.692 90.3173C513.69 90.4445 513.717 90.5705 513.771 90.686C513.824 90.8015 513.903 90.9038 514.001 90.9853C514.246 91.1899 514.532 91.3401 514.839 91.4258C515.192 91.536 515.678 91.6681 516.311 91.8149C517.003 91.9644 517.682 92.1707 518.341 92.4316C518.883 92.6441 519.369 92.9782 519.761 93.408C520.135 93.8224 520.337 94.3629 520.327 94.9204C520.335 95.3736 520.229 95.8214 520.018 96.2229C519.807 96.6243 519.499 96.9666 519.121 97.2183C518.187 97.8383 517.078 98.1444 515.957 98.0919C515.209 98.1128 514.462 98.0035 513.75 97.7689V97.7689Z" fill="#121212"/>
<path d="M530.708 97.6513C529.798 97.3711 528.937 96.9526 528.155 96.4106L527.184 97.7982H526.529L526.198 92.27L526.794 92.0497C527.606 93.1981 528.69 94.1286 529.949 94.7587C531.208 95.3888 532.603 95.699 534.011 95.6618C534.77 95.6733 535.527 95.5844 536.262 95.3975C536.828 95.2643 537.352 94.9917 537.785 94.6046C537.963 94.4387 538.105 94.2373 538.2 94.0135C538.295 93.7896 538.342 93.5483 538.337 93.3052C538.344 93.0504 538.296 92.797 538.195 92.5626C538.095 92.3282 537.945 92.1182 537.756 91.947C537.327 91.5662 536.827 91.2743 536.284 91.088C535.718 90.8751 534.923 90.6181 533.908 90.3098C532.731 89.9721 531.789 89.6637 531.083 89.3848C530.403 89.1212 529.79 88.7099 529.288 88.1807C528.789 87.6405 528.525 86.9253 528.552 86.1912C528.542 85.3816 528.833 84.5969 529.369 83.9887C529.951 83.3217 530.696 82.8159 531.532 82.5204C532.451 82.1875 533.423 82.0209 534.401 82.0285C535.278 82.0161 536.152 82.1273 536.998 82.3589C537.692 82.5518 538.356 82.8409 538.97 83.2179L539.83 82.0285H540.426L541.022 86.9841L540.382 87.2263C539.667 86.328 538.75 85.611 537.704 85.134C536.545 84.6292 535.291 84.3788 534.026 84.3999C533.383 84.3938 532.742 84.4753 532.12 84.6422C531.613 84.7643 531.14 85.0003 530.737 85.3322C530.581 85.4593 530.454 85.6193 530.366 85.8007C530.279 85.9822 530.232 86.1807 530.23 86.3821C530.237 86.5758 530.287 86.7654 530.378 86.937C530.468 87.1086 530.596 87.2577 530.752 87.3732C531.137 87.6886 531.572 87.9368 532.04 88.1073C532.555 88.3056 533.29 88.5625 534.247 88.8415C535.303 89.1464 536.34 89.5167 537.351 89.9501C538.118 90.2879 538.816 90.7632 539.411 91.3523C539.691 91.6322 539.912 91.9657 540.06 92.3328C540.208 92.6999 540.28 93.0931 540.272 93.4887C540.301 94.1622 540.151 94.8314 539.835 95.4275C539.52 96.0236 539.051 96.5252 538.477 96.8805C537.007 97.7265 535.324 98.1317 533.629 98.0478C532.64 98.067 531.655 97.9333 530.708 97.6513V97.6513Z" fill="#121212"/>
<path d="M542.346 97.1009C542.029 96.3562 541.967 95.5277 542.17 94.7442L542.905 91.5507C543.12 90.7402 543.105 89.8862 542.861 89.0839C542.74 88.7917 542.536 88.5406 542.275 88.3609C542.014 88.1812 541.707 88.0805 541.39 88.0708L541.522 87.41C542.077 87.3426 542.614 87.1707 543.104 86.9035C543.618 86.6073 544.067 86.2132 544.428 85.7435C544.876 85.162 545.242 84.5223 545.517 83.842H546.179L545.444 87.41H548.489L548.335 88.0708C547.361 88.183 546.436 88.5559 545.657 89.15C544.912 89.7473 544.406 90.5911 544.23 91.5286L543.722 93.9734C543.562 94.456 543.593 94.9816 543.81 95.4417C543.923 95.6282 544.087 95.7789 544.282 95.8763C544.478 95.9738 544.697 96.014 544.914 95.9923C545.269 95.99 545.611 95.8596 545.878 95.6252C546.165 95.3827 546.393 95.0792 546.547 94.7369L547.143 95.0012C546.935 95.8523 546.532 96.6438 545.966 97.3137C545.743 97.5655 545.469 97.7666 545.162 97.9034C544.855 98.0402 544.522 98.1095 544.186 98.1066C543.812 98.1549 543.432 98.0834 543.102 97.9027C542.771 97.7219 542.507 97.4412 542.346 97.1009V97.1009Z" fill="#121212"/>
</svg>
