<svg width="735" height="162" viewBox="0 0 735 162" fill="none" xmlns="http://www.w3.org/2000/svg">
<path d="M588.65 143.499C593.158 140.403 596.957 136.386 599.795 131.716C602.591 127.091 604.798 121.254 606.416 114.207L620.321 47.9125C621.792 41.5987 622.086 36.166 621.204 31.6142C620.356 27.131 618.207 22.9952 615.024 19.7209C611.787 16.3438 607.226 13.3338 601.34 10.6908L602.444 4.30371H690.726C704.41 4.30371 715.151 7.75424 722.949 14.6553C730.747 21.5563 734.646 30.9535 734.646 42.8468C734.646 57.0894 729.313 68.2852 718.645 76.4343C707.978 84.5835 692.933 88.658 673.511 88.658H624.735L619.659 112.885C618.187 119.639 617.893 125.366 618.776 130.064C619.678 134.799 622.076 139.121 625.618 142.398C629.296 145.922 634.52 149.152 641.288 152.089L640.184 158.476H570L571.104 152.089C578.171 149.593 584.02 146.73 588.65 143.499ZM708.051 67.1473C715.923 61.788 719.859 54.1161 719.859 44.1316C719.859 36.3495 716.953 30.4396 711.141 26.4018C705.329 22.3639 697.274 20.345 686.974 20.345H668.876C662.108 20.345 656.48 21.0424 651.992 22.4373C647.476 23.851 643.507 26.6197 640.626 30.3662C637.536 34.2817 635.182 39.7511 633.563 46.7745L627.604 75.1863H674.173C688.892 75.2108 700.187 72.5433 708.059 67.184L708.051 67.1473Z" fill="#121212"/>
<path d="M461.298 107.269C466.946 102.309 471.753 96.4704 475.534 89.9795L500.032 49.0137C502.113 45.6021 503.992 42.0722 505.66 38.4419C507.499 34.4774 508.419 31.1738 508.419 28.5308C508.444 26.4878 508.023 24.4639 507.184 22.6C506.346 20.7361 505.11 19.0772 503.563 17.7387C500.326 14.8021 495.986 12.4528 490.542 10.6908L491.866 4.30371H581.068L579.523 10.6908C574.872 11.257 570.376 12.7154 566.28 14.9856C562.331 17.1104 558.901 20.0814 556.238 23.6854C553.79 26.8423 552.435 30.7065 552.376 34.6977C552.347 38.6889 552.717 42.673 553.479 46.591L561.425 89.7593C562.749 97.5413 565.066 103.451 568.377 107.489C571.688 111.527 577.242 114.721 585.04 117.07L583.716 123.237H520.594L521.919 117.07C526.615 116.336 531.162 114.849 535.382 112.665C538.943 110.822 541.999 108.138 544.283 104.846C546.412 101.692 547.529 97.9665 547.484 94.1642C547.462 91.7355 547.314 89.3096 547.042 86.896H491.204C490.127 88.9781 489.241 91.1527 488.555 93.3933C488.004 95.1407 487.707 96.9578 487.672 98.7893C487.672 103.928 488.813 107.856 491.093 110.573C493.374 113.289 497.089 115.528 502.239 117.29L500.694 123.457H440L441.545 117.29C448.812 115.504 455.57 112.076 461.298 107.269V107.269ZM455.008 145.445H561.829L558.96 158.439H452.359L455.008 145.445ZM545.056 71.956C544.949 70.1088 544.728 68.2699 544.394 66.4499L537.552 22.4006H529.606L503.342 66.4499C502.156 68.5055 500.464 71.2953 498.266 74.8192H545.497L545.056 71.956Z" fill="#121212"/>
<path d="M298.01 144.05C302.669 140.944 306.617 136.891 309.597 132.157C312.613 127.385 314.857 121.401 316.329 114.207L330.674 48.1327C332.734 38.5887 332.072 30.8067 328.688 24.7866C325.304 18.7665 319.198 14.1414 310.37 10.9111L311.694 4.30371H401.3C415.573 4.30371 426.792 7.35044 434.958 13.4439C443.124 19.5374 447.207 28.3105 447.207 39.7633C447.207 49.8947 444.853 58.6311 440.144 65.9726C435.436 73.3142 428.668 78.8938 419.84 82.7114C411.011 86.529 400.417 88.4378 388.058 88.4378H335.089L330.233 112.885C327.879 123.31 328.394 131.533 331.778 137.553C335.162 143.573 341.783 148.418 351.642 152.089L350.317 158.476H279L280.324 152.089C287.406 149.886 293.302 147.207 298.01 144.05ZM412.667 72.0294C418.381 70.0357 423.4 66.442 427.123 61.6778C430.654 57.0527 432.42 51.2161 432.42 44.1683C432.42 36.0926 429.367 30.1092 423.26 26.2182C417.154 22.3272 408.878 20.3817 398.431 20.3817H379.009C372.241 20.3817 366.6 21.1158 362.088 22.5841C357.623 24.0363 353.725 26.8475 350.943 30.6231C348 34.5142 345.719 39.9836 344.101 47.0315L338.142 75.4432H391.111C399.375 75.4432 406.56 74.3053 412.667 72.0294ZM394.238 143.059C387.657 132.096 382.538 120.324 379.009 108.04L372.609 85.5746L384.968 84.9138L390.486 102.093C393.87 112.518 398.247 120.3 403.618 125.439C406.199 127.951 409.256 129.926 412.609 131.249C415.962 132.573 419.545 133.218 423.15 133.148C425.817 133.146 428.478 132.888 431.095 132.377C433.609 131.906 436.055 131.129 438.379 130.064L442.351 135.57L415.425 161.78C407.774 160.018 400.712 153.777 394.238 143.059Z" fill="#121212"/>
<path d="M180.769 152.75C169.997 146.853 161.236 137.88 155.608 126.981C149.87 115.968 147.001 103.341 147.001 89.0984C146.94 73.6043 151.18 58.3961 159.25 45.1593C167.302 31.6885 178.755 20.5625 192.466 12.8932C206.444 4.96436 221.967 0.999941 239.035 0.999941C247.195 0.943017 255.314 2.16939 263.092 4.63399C270.237 6.86489 276.9 10.4135 282.735 15.0957L292.446 1.22018H299.508L303.039 52.978L293.991 55.4008C288.105 44.3884 279.976 36.0191 269.603 30.2927C259.229 24.5663 246.76 21.7031 232.193 21.7031C219.997 21.7008 207.987 24.6882 197.219 30.4028C186.41 35.9382 177.156 44.0759 170.292 54.0793C163.574 63.6255 159.977 75.0105 159.993 86.6757C159.993 97.8348 162.715 107.526 168.159 115.748C173.603 123.971 181.205 130.211 190.965 134.469C200.774 138.727 211.92 140.856 224.402 140.856C236.383 140.914 248.186 137.96 258.722 132.267C269.563 126.411 279.08 118.388 286.678 108.7L295.506 113.546C288.149 128.816 277.886 140.709 264.718 149.226C251.549 157.742 236.651 162 220.025 162C204.889 162 191.804 158.916 180.769 152.75Z" fill="#121212"/>
<path d="M43.9939 156.934C34.2093 153.704 25.8715 149.519 18.9806 144.38L9.49035 158.476H3.53123L0 104.516L5.95903 102.534C14.0503 114.037 24.7509 123.471 37.1888 130.064C49.4502 136.525 63.0237 139.755 77.909 139.755C85.5824 139.847 93.2318 138.884 100.642 136.892C107.41 134.983 112.744 132.157 116.643 128.413C118.515 126.69 120.003 124.594 121.011 122.261C122.018 119.927 122.523 117.408 122.492 114.867C122.541 112.223 122.025 109.598 120.978 107.167C119.932 104.737 118.378 102.557 116.422 100.772C112.117 96.7909 107.101 93.653 101.635 91.5213C93.7181 88.4737 85.652 85.8273 77.4676 83.5924C67.8833 80.9136 58.4526 77.7153 49.2173 74.0117C42.2895 71.179 36.0265 66.9416 30.8252 61.5677C25.749 56.2818 23.2108 49.601 23.2108 41.5253C23.1419 33.6457 26.0285 26.0253 31.3033 20.1615C36.6738 13.9946 43.7855 9.25929 52.6382 5.95559C61.6777 2.61441 71.2491 0.935443 80.8885 1.00005C89.7252 0.883054 98.5329 2.03272 107.042 4.41386C113.984 6.37739 120.585 9.38525 126.619 13.3338L135.447 1.00005H141.406L146.703 49.8947L140.302 52.0972C133.281 42.8561 124.218 35.3567 113.818 30.1827C103.371 24.9702 91.0851 22.3639 76.96 22.3639C70.4722 22.3066 64.0086 23.1592 57.7586 24.8968C51.8731 26.5853 47.1647 29.0447 43.6334 32.275C40.1021 35.5053 38.3365 39.3229 38.3365 43.7278C38.3365 47.8391 40.1389 51.3997 43.7438 54.4098C47.8346 57.7027 52.4138 60.3405 57.3172 62.2285C62.7613 64.431 70.2653 67.0739 79.8292 70.1574C92.3358 74.2686 102.599 78.0128 110.618 81.3899C118.318 84.5528 125.3 89.2349 131.143 95.1553C136.808 100.955 139.64 108.04 139.64 116.409C139.64 131.239 133.681 142.508 121.763 150.217C109.845 157.925 94.0279 161.78 74.3115 161.78C64.0106 161.798 53.7738 160.162 43.9939 156.934V156.934Z" fill="#121212"/>
<path d="M184.351 73.7326C184.846 73.1174 185.184 72.392 185.337 71.6182L186.073 68.0943C186.279 67.3132 186.196 66.484 185.838 65.7597C185.461 65.0868 184.835 64.5884 184.094 64.3721L184.248 63.638L188.574 61.7659H189.258V61.832C188.869 62.801 188.523 63.66 188.317 64.4088C188.063 65.2041 187.854 66.013 187.691 66.8316L186.698 71.5008C186.519 72.1952 186.589 72.9303 186.897 73.5784C187.044 73.878 187.25 74.1448 187.503 74.363C187.756 74.5812 188.05 74.7464 188.368 74.8485L188.17 75.7515H182.078L182.299 74.8485C183.083 74.7003 183.801 74.3099 184.351 73.7326V73.7326Z" fill="#121212"/>
<path d="M192.878 75.502C192.162 75.1663 191.539 74.6625 191.061 74.0337C190.626 73.467 190.34 72.8007 190.23 72.0955L190.892 71.6991C191.436 72.3691 192.139 72.8938 192.937 73.2261C193.791 73.5666 194.705 73.7279 195.624 73.7002C196.543 73.6724 197.447 73.456 198.278 73.0646C199.148 72.6517 199.906 72.0345 200.485 71.2659C201.063 70.524 201.395 69.6206 201.434 68.6817C200.738 69.4514 199.879 70.056 198.918 70.451C197.939 70.8576 196.889 71.0648 195.828 71.0604C194.912 71.0812 194.004 70.8928 193.172 70.5097C192.455 70.1784 191.845 69.6517 191.414 68.99C190.996 68.3322 190.781 67.5663 190.796 66.7876C190.79 65.8677 191.073 64.9692 191.605 64.218C192.159 63.4322 192.906 62.8025 193.776 62.3899C194.703 61.9386 195.723 61.7099 196.755 61.7219C197.808 61.7156 198.846 61.9677 199.779 62.456C200.712 62.94 201.495 63.6684 202.045 64.5631C202.624 65.526 202.918 66.6336 202.891 67.7567C202.904 69.2165 202.547 70.6559 201.853 71.9413C201.214 73.1599 200.272 74.194 199.117 74.944C198.036 75.6562 196.77 76.0365 195.475 76.0379C194.58 76.0587 193.692 75.8755 192.878 75.502V75.502ZM198.764 69.0634C199.726 68.6624 200.597 68.0705 201.324 67.3235C201.05 66.3841 200.457 65.569 199.646 65.0182C198.718 64.3877 197.613 64.0689 196.49 64.1079C195.741 64.0926 194.995 64.2043 194.283 64.4383C193.697 64.622 193.171 64.9592 192.76 65.4147C192.39 65.8314 192.188 66.3703 192.194 66.9271C192.197 67.3986 192.352 67.8566 192.635 68.2338C192.964 68.6651 193.397 69.0062 193.893 69.225C194.504 69.4969 195.167 69.6298 195.836 69.614C196.833 69.6216 197.823 69.4346 198.749 69.0634H198.764Z" fill="#121212"/>
<path d="M205.679 75.5826C204.918 75.3134 204.241 74.8502 203.715 74.239C203.438 73.9179 203.235 73.5409 203.118 73.134C203.002 72.7271 202.975 72.2998 203.039 71.8814C203.103 71.463 203.257 71.0635 203.491 70.7101C203.724 70.3568 204.032 70.0579 204.391 69.8341C205.397 69.1895 206.515 68.7388 207.687 68.5053C207.068 68.1391 206.515 67.6698 206.054 67.1177C205.67 66.6283 205.467 66.0214 205.48 65.3998C205.46 64.6625 205.723 63.9453 206.216 63.3956C206.736 62.8271 207.392 62.398 208.121 62.1475C208.85 61.8836 209.619 61.747 210.395 61.7438C211.234 61.7318 212.066 61.8969 212.837 62.2283C213.51 62.5084 214.099 62.9588 214.544 63.5351C214.948 64.0643 215.166 64.7123 215.162 65.3778C215.181 65.9966 214.992 66.6039 214.625 67.1031C214.261 67.5826 213.786 67.9678 213.242 68.2263C212.653 68.509 212.03 68.7138 211.388 68.8357C211.941 69.1085 212.47 69.4278 212.97 69.7901C213.367 70.0823 213.705 70.4488 213.963 70.8693C214.208 71.2876 214.332 71.7651 214.323 72.2495C214.35 73.0144 214.087 73.7614 213.588 74.3418C213.018 74.9519 212.294 75.396 211.491 75.6266C210.514 75.9267 209.496 76.0729 208.475 76.0598C207.521 76.0741 206.573 75.9123 205.679 75.5826V75.5826ZM210.91 73.5343C211.377 73.431 211.815 73.2225 212.19 72.9249C212.317 72.8319 212.423 72.712 212.499 72.5737C212.576 72.4354 212.621 72.2822 212.631 72.1247C212.635 71.8221 212.53 71.5281 212.337 71.2951C212.042 70.9736 211.7 70.6988 211.322 70.4802C210.843 70.1792 210.144 69.8048 209.232 69.3496C208.163 69.5485 207.119 69.8661 206.12 70.2966C205.326 70.6637 204.929 71.1531 204.929 71.7649C204.929 71.9755 204.979 72.183 205.075 72.3705C205.171 72.5581 205.31 72.7204 205.48 72.8442C205.918 73.1683 206.419 73.396 206.952 73.5122C207.604 73.6728 208.274 73.7517 208.945 73.7472C209.606 73.7599 210.267 73.6884 210.91 73.5343V73.5343ZM212.381 67.1765C213.117 66.8167 213.44 66.3616 213.44 65.8036C213.443 65.606 213.405 65.4099 213.327 65.2279C213.25 65.0459 213.136 64.8819 212.992 64.7464C212.637 64.4247 212.207 64.1974 211.741 64.0857C211.172 63.9339 210.586 63.8598 209.997 63.8654C209.262 63.8459 208.532 64.0046 207.871 64.328C207.617 64.4237 207.397 64.5915 207.238 64.8106C207.078 65.0298 206.986 65.2908 206.974 65.5613C206.984 65.8207 207.056 66.074 207.184 66.3001C207.312 66.5261 207.492 66.7183 207.709 66.8608C208.341 67.3268 209.025 67.7185 209.747 68.0281C210.655 67.865 211.536 67.5785 212.366 67.1765H212.381Z" fill="#121212"/>
<path d="M221.952 73.6078C222.588 72.9039 223 72.0275 223.137 71.0896L224.373 65.0769C224.608 64.2456 224.549 63.3585 224.204 62.5661C223.802 61.8554 223.168 61.3035 222.408 61.0024L222.563 60.3196H229.92L229.765 61.0024C228.767 61.1921 227.835 61.6345 227.058 62.2871C226.346 62.994 225.879 63.9099 225.726 64.9007L224.645 70.1646C224.523 70.5919 224.496 71.0405 224.566 71.4792C224.636 71.918 224.801 72.3362 225.05 72.7048C225.354 73.0345 225.731 73.289 226.151 73.4483C226.571 73.6076 227.023 73.6672 227.47 73.6225H228.853C229.6 73.6283 230.344 73.5243 231.06 73.3141C231.746 73.1095 232.401 72.8158 233.01 72.4404C233.637 72.0555 234.219 71.6025 234.746 71.0896L235.253 71.4641L232.649 75.7368H219.289L219.444 75.054C220.383 74.7764 221.242 74.2808 221.952 73.6078V73.6078Z" fill="#121212"/>
<path d="M235.827 75.1643C235.586 74.4673 235.57 73.7121 235.783 73.0058L236.313 70.7593C236.51 70.0421 236.55 69.291 236.431 68.5569C236.287 67.9899 235.977 67.4786 235.54 67.0886L235.651 66.4498L238.719 65.0843H239.337C238.637 66.7852 238.097 68.5474 237.725 70.3482L237.35 72.0881C237.242 72.4748 237.258 72.8854 237.394 73.2628C237.45 73.398 237.545 73.5136 237.667 73.5947C237.789 73.6758 237.932 73.7187 238.079 73.718C238.306 73.6974 238.525 73.6192 238.715 73.4908C238.904 73.3623 239.057 73.1878 239.16 72.9838L239.557 73.2922C239.367 73.9909 239.04 74.6449 238.594 75.2156C238.434 75.4479 238.223 75.6398 237.977 75.7762C237.73 75.9126 237.455 75.9896 237.174 76.0012C236.889 76.0242 236.604 75.9553 236.362 75.8046C236.12 75.6539 235.932 75.4294 235.827 75.1643V75.1643ZM237.725 62.5955C237.493 62.3324 237.367 61.9921 237.372 61.6411C237.379 61.2131 237.553 60.8046 237.858 60.5032C237.997 60.3411 238.169 60.2111 238.364 60.1224C238.558 60.0336 238.77 59.9882 238.983 59.9893C239.17 59.9768 239.356 60.0037 239.531 60.0682C239.706 60.1328 239.865 60.2335 239.999 60.3637C240.245 60.6422 240.372 61.006 240.352 61.3769C240.355 61.5941 240.312 61.8095 240.224 62.0084C240.136 62.2073 240.007 62.385 239.844 62.5294C239.518 62.8413 239.082 63.0127 238.63 63.0067C238.458 63.0102 238.288 62.9751 238.131 62.904C237.974 62.8328 237.836 62.7274 237.725 62.5955Z" fill="#121212"/>
<path d="M241.566 75.0763C241.232 74.3263 241.159 73.4862 241.36 72.6903L242.095 69.4967C242.31 68.6863 242.295 67.8322 242.051 67.0299C241.93 66.7377 241.726 66.4867 241.465 66.307C241.204 66.1273 240.897 66.0265 240.58 66.0168L240.712 65.3561C241.265 65.2891 241.799 65.1172 242.287 64.8495C242.8 64.5533 243.25 64.1592 243.611 63.6895C244.061 63.1084 244.43 62.4687 244.707 61.7881H245.369L244.633 65.3561H247.679L247.525 66.0168C246.549 66.1292 245.621 66.502 244.839 67.096C244.097 67.6941 243.593 68.538 243.42 69.4747L242.912 71.9194C242.752 72.402 242.783 72.9277 243 73.3877C243.113 73.5742 243.277 73.7249 243.472 73.8224C243.668 73.9198 243.887 73.96 244.104 73.9383C244.456 73.9343 244.796 73.804 245.06 73.5712C245.349 73.329 245.58 73.0255 245.737 72.6829L246.333 72.9472C246.122 73.799 245.717 74.5905 245.148 75.2598C244.927 75.5114 244.655 75.7124 244.349 75.8493C244.043 75.9861 243.711 76.0555 243.375 76.0527C243.01 76.0969 242.639 76.0267 242.315 75.8518C241.991 75.6769 241.729 75.4059 241.566 75.0763Z" fill="#121212"/>
<path d="M248.452 75.0762C248.134 74.3316 248.072 73.503 248.275 72.7196L249.011 69.526C249.225 68.7156 249.21 67.8615 248.967 67.0593C248.845 66.767 248.642 66.516 248.381 66.3363C248.12 66.1566 247.812 66.0558 247.495 66.0461L247.628 65.3854C248.18 65.3184 248.715 65.1465 249.202 64.8788C249.716 64.5826 250.165 64.1885 250.526 63.7189C250.977 63.1377 251.345 62.498 251.622 61.8174H252.285L251.549 65.3854H254.595L254.44 66.0461C253.464 66.1585 252.537 66.5313 251.755 67.1253C251.012 67.7234 250.508 68.5673 250.335 69.504L249.827 71.9487C249.667 72.4313 249.699 72.957 249.916 73.417C250.029 73.6035 250.192 73.7542 250.388 73.8517C250.583 73.9491 250.802 73.9893 251.019 73.9676C251.372 73.9636 251.711 73.8333 251.976 73.6005C252.265 73.3583 252.496 73.0549 252.652 72.7123L253.248 72.9765C253.038 73.8283 252.632 74.6198 252.064 75.2891C251.843 75.5407 251.57 75.7417 251.264 75.8786C250.958 76.0154 250.626 76.0848 250.291 76.082C249.917 76.1302 249.538 76.0588 249.207 75.878C248.877 75.6973 248.612 75.4165 248.452 75.0762V75.0762Z" fill="#121212"/>
<path d="M254.764 75.1864C254.56 74.4813 254.56 73.7331 254.764 73.028L256.419 65.2533C256.625 64.4208 256.688 63.5592 256.603 62.7058C256.525 62.0845 256.215 61.5154 255.735 61.1126L255.867 60.4739L258.869 59.1084H259.509C259.435 59.314 259.369 59.5122 259.31 59.7031C259.002 60.4475 258.732 61.2071 258.501 61.9789C258.288 62.7131 258.082 63.5427 257.876 64.4824L256.287 72.0589C256.178 72.4504 256.193 72.8658 256.331 73.2482C256.38 73.382 256.471 73.4967 256.59 73.5758C256.709 73.655 256.85 73.6945 256.993 73.6887C257.217 73.6866 257.434 73.6119 257.611 73.4758C257.807 73.3318 257.973 73.1495 258.096 72.9399L258.516 73.2702C258.326 73.969 257.998 74.6229 257.552 75.1937C257.385 75.4299 257.165 75.6239 256.91 75.7603C256.654 75.8966 256.37 75.9716 256.081 75.9793C255.804 76.015 255.523 75.9561 255.284 75.8121C255.044 75.6681 254.861 75.4476 254.764 75.1864V75.1864Z" fill="#121212"/>
<path d="M261.429 75.4505C260.713 75.0599 260.125 74.471 259.737 73.7546C259.344 73.0161 259.144 72.1902 259.156 71.3539C259.152 70.2677 259.433 69.1994 259.973 68.2558C260.503 67.3107 261.261 66.5131 262.18 65.9359C263.074 65.3582 264.116 65.0521 265.181 65.0549C266.008 65.0365 266.826 65.2366 267.55 65.6349C268.231 66.0218 268.789 66.5916 269.161 67.2794C269.569 68.0473 269.794 68.8992 269.816 69.7682L269.507 70.2086L260.259 72.0587L260.171 70.7813L268.264 69.1515C267.996 68.5577 267.538 68.0695 266.962 67.7639C266.269 67.372 265.484 67.1742 264.688 67.1913C263.962 67.1813 263.244 67.3423 262.592 67.6612C261.982 67.9559 261.46 68.4036 261.076 68.9606C260.703 69.5104 260.508 70.1613 260.517 70.8254C260.497 71.4648 260.691 72.0927 261.069 72.6093C261.446 73.098 261.957 73.4676 262.54 73.6739C263.153 73.9072 263.804 74.0242 264.46 74.0189C265.216 74.0261 265.967 73.8839 266.667 73.6004C267.386 73.2993 268.036 72.8574 268.58 72.301L269.022 72.6313C268.589 73.676 267.861 74.5718 266.925 75.2082C266.052 75.781 265.027 76.0802 263.982 76.0672C263.092 76.0873 262.212 75.8747 261.429 75.4505Z" fill="#121212"/>
<path d="M183.748 97.189C182.656 96.6109 181.758 95.725 181.166 94.6415C180.531 93.4707 180.214 92.1546 180.246 90.8239C180.242 89.2835 180.67 87.7727 181.482 86.463C182.304 85.1145 183.459 83.9995 184.837 83.2253C186.225 82.4241 187.802 82.006 189.406 82.014C190.258 82.0019 191.107 82.1233 191.922 82.3737C192.624 82.5919 193.281 82.9324 193.864 83.3795L194.879 82.014H195.615L196.012 87.3219L195.041 87.5422C194.454 86.5135 193.583 85.675 192.532 85.1268C191.359 84.5738 190.07 84.307 188.773 84.3486C187.553 84.3447 186.35 84.6317 185.264 85.1856C184.203 85.7052 183.288 86.4796 182.601 87.4394C181.947 88.3407 181.597 89.4253 181.6 90.5375C181.571 91.5458 181.873 92.5358 182.461 93.3567C183.06 94.1529 183.87 94.7659 184.8 95.126C185.868 95.5462 187.008 95.7532 188.155 95.7354C189.321 95.7451 190.472 95.473 191.51 94.9425C192.579 94.3881 193.537 93.6414 194.335 92.74L195.24 93.2245C194.605 94.6961 193.554 95.9513 192.216 96.8366C190.86 97.7017 189.278 98.1462 187.669 98.114C186.305 98.1405 184.956 97.8223 183.748 97.189V97.189Z" fill="#121212"/>
<path d="M198.234 97.4824C197.483 97.0821 196.858 96.4833 196.425 95.7516C195.993 95.02 195.771 94.1837 195.784 93.3344C195.766 92.2139 196.035 91.1074 196.564 90.1188C197.065 89.2049 197.804 88.4437 198.705 87.9164C199.625 87.3777 200.676 87.101 201.743 87.1162C202.651 87.1017 203.549 87.3136 204.355 87.7328C205.103 88.1231 205.723 88.7193 206.142 89.4508C206.569 90.2102 206.788 91.0688 206.775 91.9395C206.792 93.0627 206.502 94.1694 205.936 95.1405C205.411 96.0582 204.649 96.8187 203.729 97.343C202.819 97.8594 201.79 98.1301 200.743 98.1285C199.865 98.13 199.001 97.9076 198.234 97.4824V97.4824ZM203.156 95.4929C203.806 95.2048 204.369 94.7517 204.789 94.1787C205.203 93.6071 205.42 92.9166 205.407 92.2112C205.41 91.6499 205.217 91.1049 204.862 90.6695C204.486 90.1998 203.998 89.8314 203.442 89.5976C202.836 89.3383 202.182 89.2083 201.522 89.2159C200.76 89.2027 200.005 89.3634 199.315 89.6857C198.673 89.9845 198.121 90.445 197.712 91.0218C197.31 91.5881 197.099 92.2666 197.108 92.96C197.095 93.5419 197.285 94.1102 197.645 94.5678C198.032 95.0402 198.541 95.3982 199.117 95.603C199.733 95.8415 200.39 95.9611 201.051 95.9554C201.778 95.9541 202.496 95.7964 203.156 95.4929V95.4929Z" fill="#121212"/>
<path d="M208.364 97.2108C208.16 96.5057 208.16 95.7575 208.364 95.0524L210.02 87.2777C210.226 86.4452 210.288 85.5836 210.203 84.7302C210.126 84.1089 209.816 83.5398 209.335 83.137L209.468 82.4983L212.469 81.1328H213.109C213.036 81.3384 212.97 81.5366 212.911 81.7275C212.603 82.4719 212.332 83.2315 212.102 84.0033C211.888 84.7375 211.682 85.5671 211.476 86.5068L209.887 94.0833C209.778 94.4748 209.794 94.8902 209.931 95.2726C209.981 95.4064 210.072 95.5211 210.191 95.6002C210.31 95.6794 210.451 95.7189 210.593 95.7131C210.817 95.711 211.034 95.6363 211.211 95.5002C211.408 95.3562 211.573 95.1739 211.697 94.9643L212.116 95.2946C211.926 95.9934 211.599 96.6473 211.152 97.2181C210.985 97.4543 210.765 97.6483 210.51 97.7847C210.255 97.9211 209.971 97.996 209.681 98.0037C209.404 98.0394 209.123 97.9805 208.884 97.8365C208.645 97.6925 208.462 97.472 208.364 97.2108V97.2108Z" fill="#121212"/>
<path d="M213.529 97.2108C213.325 96.5057 213.325 95.7575 213.529 95.0524L215.184 87.2777C215.39 86.4452 215.453 85.5836 215.368 84.7302C215.29 84.1089 214.98 83.5398 214.5 83.137L214.632 82.4983L217.634 81.1328H218.274C218.2 81.3384 218.134 81.5366 218.075 81.7275C217.767 82.4719 217.497 83.2315 217.266 84.0033C217.053 84.7375 216.847 85.5671 216.641 86.5068L215.052 94.0833C214.943 94.4748 214.958 94.8902 215.096 95.2726C215.145 95.4064 215.236 95.5211 215.355 95.6002C215.474 95.6794 215.615 95.7189 215.758 95.7131C215.982 95.711 216.199 95.6363 216.376 95.5002C216.572 95.3562 216.738 95.1739 216.861 94.9643L217.281 95.2946C217.091 95.9934 216.763 96.6473 216.317 97.2181C216.15 97.4543 215.93 97.6483 215.675 97.7847C215.419 97.9211 215.135 97.996 214.846 98.0037C214.569 98.0394 214.288 97.9805 214.049 97.8365C213.809 97.6925 213.626 97.472 213.529 97.2108V97.2108Z" fill="#121212"/>
<path d="M218.693 97.1889C218.452 96.4919 218.436 95.7367 218.649 95.0305L219.179 92.784C219.376 92.0667 219.416 91.3156 219.297 90.5815C219.153 90.0146 218.843 89.5033 218.406 89.1132L218.517 88.4745L221.584 87.109H222.202C221.503 88.8098 220.963 90.5721 220.591 92.3729L220.216 94.1128C220.108 94.4994 220.124 94.91 220.26 95.2875C220.316 95.4227 220.411 95.5382 220.533 95.6193C220.655 95.7004 220.798 95.7434 220.944 95.7426C221.172 95.7221 221.391 95.6439 221.581 95.5154C221.77 95.387 221.923 95.2125 222.026 95.0085L222.423 95.3168C222.233 96.0156 221.906 96.6695 221.459 97.2403C221.3 97.4725 221.089 97.6645 220.843 97.8009C220.596 97.9372 220.321 98.0143 220.04 98.0259C219.755 98.0489 219.47 97.9799 219.228 97.8292C218.985 97.6785 218.798 97.454 218.693 97.1889V97.1889ZM220.591 84.6202C220.359 84.357 220.233 84.0167 220.238 83.6658C220.245 83.2377 220.419 82.8292 220.724 82.5279C220.863 82.3658 221.035 82.2358 221.23 82.147C221.424 82.0583 221.636 82.0129 221.849 82.014C222.035 82.0015 222.222 82.0284 222.397 82.0929C222.572 82.1574 222.731 82.2581 222.865 82.3884C223.111 82.6669 223.238 83.0307 223.218 83.4015C223.221 83.6187 223.177 83.8341 223.09 84.033C223.002 84.2319 222.873 84.4096 222.71 84.5541C222.384 84.8659 221.948 85.0373 221.496 85.0313C221.324 85.0349 221.153 84.9998 220.997 84.9286C220.84 84.8574 220.702 84.752 220.591 84.6202Z" fill="#121212"/>
<path d="M223.924 95.9188C224.36 95.2812 224.653 94.5577 224.785 93.7971L225.005 92.784C225.204 92.0482 225.204 91.2732 225.005 90.5374C224.798 89.956 224.428 89.4463 223.939 89.0691L224.071 88.4304L227.139 87.0869H227.801C227.683 87.3806 227.536 87.8064 227.359 88.3643C227.183 88.9223 227.036 89.4117 226.918 89.8326L226.124 93.5034C225.901 94.2433 225.901 95.0321 226.124 95.772C226.384 96.3774 226.862 96.8642 227.462 97.1375L227.308 97.7762H221.967L222.121 97.1375C222.822 96.9019 223.445 96.4806 223.924 95.9188ZM232.333 97.6073C232.027 97.2534 231.87 96.7964 231.891 96.3299C231.897 95.9506 231.949 95.5734 232.046 95.2067C232.149 94.7955 232.311 94.2229 232.531 93.4888C232.68 93.0341 232.801 92.5707 232.892 92.1012C232.959 91.7379 232.993 91.3694 232.995 91C233.004 90.7575 232.965 90.5156 232.879 90.2886C232.793 90.0616 232.662 89.8542 232.495 89.6785C232.296 89.4996 232.063 89.3624 231.811 89.2754C231.558 89.1883 231.29 89.1532 231.023 89.1719C230.233 89.2012 229.455 89.3755 228.728 89.6858C227.908 89.9963 227.141 90.4322 226.455 90.9779L226.83 89.4362C227.597 88.735 228.461 88.1489 229.397 87.6963C230.177 87.3078 231.034 87.0972 231.906 87.0796C232.268 87.0574 232.63 87.1113 232.97 87.2378C233.31 87.3642 233.619 87.5604 233.878 87.8137C234.116 88.0544 234.303 88.3401 234.43 88.6539C234.556 88.9678 234.618 89.3036 234.613 89.6418C234.608 90.0256 234.574 90.4085 234.51 90.7871C234.444 91.2129 234.371 91.6166 234.282 91.9984L233.863 93.8925C233.797 94.2042 233.76 94.5212 233.753 94.8396C233.742 95.1227 233.819 95.4022 233.973 95.6398C234.036 95.7402 234.124 95.8227 234.229 95.8792C234.333 95.9358 234.45 95.9646 234.569 95.9629C234.686 95.9623 234.801 95.9372 234.908 95.8891C235.014 95.841 235.11 95.7711 235.187 95.6839C235.39 95.4641 235.561 95.2169 235.695 94.9497L236.07 95.236C235.935 95.9942 235.612 96.7062 235.128 97.3064C234.95 97.5456 234.72 97.7412 234.455 97.8786C234.19 98.0159 233.897 98.0914 233.598 98.0992C233.364 98.1177 233.128 98.0831 232.909 97.998C232.69 97.9128 232.493 97.7792 232.333 97.6073V97.6073Z" fill="#121212"/>
<path d="M239.616 97.7689C239.01 97.5485 238.433 97.2578 237.895 96.9026L237.321 97.7616H236.659L236.548 94.0908L237.233 93.8045C237.736 94.5256 238.411 95.1108 239.197 95.5077C240.001 95.9261 240.895 96.1427 241.801 96.1391C242.463 96.1668 243.123 96.0619 243.743 95.8308C243.959 95.7641 244.148 95.6293 244.281 95.4466C244.413 95.2639 244.483 95.0432 244.479 94.8176C244.472 94.5919 244.399 94.3732 244.268 94.1891C244.137 94.0049 243.955 93.8634 243.743 93.7825C243.052 93.4591 242.326 93.2129 241.581 93.0483C240.926 92.9022 240.286 92.6983 239.668 92.439C239.181 92.2375 238.748 91.9258 238.402 91.5286C238.074 91.1335 237.901 90.6322 237.917 90.119C237.917 89.5592 238.112 89.0169 238.469 88.5847C238.861 88.1021 239.366 87.7238 239.94 87.4834C240.594 87.2081 241.298 87.0706 242.007 87.0796C242.59 87.0707 243.172 87.1398 243.736 87.2852C244.208 87.4087 244.654 87.615 245.053 87.8946L245.605 87.0796H246.223L246.642 90.5596L246.002 90.8238C245.506 90.266 244.9 89.8162 244.222 89.5024C243.504 89.1839 242.726 89.0261 241.941 89.0398C241.34 89.011 240.74 89.1321 240.198 89.3922C240.014 89.47 239.856 89.5983 239.743 89.762C239.63 89.9258 239.565 90.1184 239.557 90.3173C239.556 90.4445 239.583 90.5705 239.637 90.686C239.69 90.8015 239.769 90.9038 239.866 90.9853C240.111 91.1899 240.397 91.3401 240.705 91.4258C241.058 91.536 241.544 91.6681 242.176 91.8149C242.869 91.9644 243.548 92.1707 244.207 92.4316C244.749 92.6441 245.235 92.9782 245.627 93.408C246.001 93.8224 246.203 94.3629 246.193 94.9204C246.201 95.3736 246.094 95.8214 245.884 96.2229C245.673 96.6243 245.364 96.9666 244.987 97.2183C244.052 97.8383 242.944 98.1444 241.823 98.0919C241.074 98.1128 240.328 98.0035 239.616 97.7689V97.7689Z" fill="#121212"/>
<path d="M256.574 97.6513C255.664 97.3711 254.803 96.9526 254.021 96.4106L253.05 97.7982H252.395L252.064 92.27L252.66 92.0497C253.472 93.1981 254.556 94.1286 255.815 94.7587C257.074 95.3888 258.469 95.699 259.877 95.6618C260.636 95.6733 261.393 95.5844 262.128 95.3975C262.694 95.2643 263.218 94.9917 263.651 94.6046C263.829 94.4387 263.971 94.2373 264.066 94.0135C264.161 93.7896 264.207 93.5483 264.203 93.3052C264.21 93.0504 264.161 92.797 264.061 92.5626C263.961 92.3282 263.811 92.1182 263.622 91.947C263.193 91.5662 262.693 91.2743 262.15 91.088C261.584 90.8751 260.789 90.6181 259.774 90.3098C258.597 89.9721 257.655 89.6637 256.949 89.3848C256.269 89.1212 255.655 88.7099 255.154 88.1807C254.655 87.6405 254.391 86.9253 254.418 86.1912C254.408 85.3816 254.699 84.5969 255.235 83.9887C255.817 83.3217 256.562 82.8159 257.398 82.5204C258.317 82.1875 259.289 82.0209 260.267 82.0285C261.144 82.0161 262.018 82.1273 262.864 82.3589C263.558 82.5518 264.222 82.8409 264.836 83.2179L265.696 82.0285H266.292L266.888 86.9841L266.248 87.2263C265.533 86.328 264.616 85.611 263.57 85.134C262.411 84.6292 261.156 84.3788 259.892 84.3999C259.248 84.3938 258.607 84.4753 257.986 84.6422C257.479 84.7643 257.006 85.0003 256.603 85.3322C256.447 85.4593 256.32 85.6193 256.232 85.8007C256.144 85.9822 256.098 86.1807 256.096 86.3821C256.103 86.5758 256.153 86.7654 256.244 86.937C256.334 87.1086 256.462 87.2577 256.618 87.3732C257.003 87.6886 257.438 87.9368 257.905 88.1073C258.42 88.3056 259.156 88.5625 260.112 88.8415C261.169 89.1464 262.206 89.5167 263.217 89.9501C263.984 90.2879 264.682 90.7632 265.277 91.3523C265.557 91.6322 265.778 91.9657 265.926 92.3328C266.074 92.6999 266.146 93.0931 266.138 93.4887C266.167 94.1622 266.017 94.8314 265.701 95.4275C265.386 96.0236 264.917 96.5252 264.343 96.8805C262.873 97.7265 261.189 98.1317 259.494 98.0478C258.506 98.067 257.521 97.9333 256.574 97.6513V97.6513Z" fill="#121212"/>
<path d="M268.212 97.1009C267.895 96.3562 267.833 95.5277 268.036 94.7442L268.771 91.5507C268.986 90.7402 268.971 89.8862 268.727 89.0839C268.606 88.7917 268.402 88.5406 268.141 88.3609C267.88 88.1812 267.573 88.0805 267.256 88.0708L267.388 87.41C267.943 87.3426 268.48 87.1707 268.97 86.9035C269.483 86.6073 269.933 86.2132 270.294 85.7435C270.742 85.162 271.108 84.5223 271.383 83.842H272.045L271.309 87.41H274.355L274.201 88.0708C273.227 88.183 272.302 88.5559 271.523 89.15C270.778 89.7473 270.271 90.5911 270.096 91.5286L269.588 93.9734C269.428 94.456 269.459 94.9816 269.676 95.4417C269.789 95.6282 269.953 95.7789 270.148 95.8763C270.343 95.9738 270.562 96.014 270.78 95.9923C271.135 95.99 271.477 95.8596 271.744 95.6252C272.03 95.3827 272.259 95.0792 272.413 94.7369L273.009 95.0012C272.8 95.8523 272.398 96.6438 271.832 97.3137C271.609 97.5655 271.335 97.7666 271.028 97.9034C270.721 98.0402 270.388 98.1095 270.051 98.1066C269.678 98.1549 269.298 98.0834 268.968 97.9027C268.637 97.7219 268.373 97.4412 268.212 97.1009V97.1009Z" fill="#121212"/>
</svg>
