<svg xmlns="http://www.w3.org/2000/svg" viewBox="0 0 978.68 219.3"><defs><style>.cls-1{fill:#0f0f09;}</style></defs><g id="Layer_2" data-name="Layer 2"><g id="Layer_1-2" data-name="Layer 1"><path d="M25.35,194.1a52.59,52.59,0,0,0,15.15-16q5.7-9.45,9-23.85L68.4,63.9q3-12.9,1.2-22.2a31.7,31.7,0,0,0-8.4-16.2q-6.6-6.9-18.6-12.3l1.5-8.7h120q27.9,0,43.8,14.1T223.8,57q0,29.1-21.75,45.75T140.7,119.4H74.4l-6.9,33q-3,13.8-1.2,23.4a30.74,30.74,0,0,0,9.3,16.8q7.5,7.2,21.3,13.2l-1.5,8.7H0l1.5-8.7Q15.9,200.7,25.35,194.1ZM187.65,90.15q16-11,16-31.35,0-15.9-11.85-24.15T159,26.4H134.4q-13.8,0-23,2.85A31.28,31.28,0,0,0,96,40.05q-6.3,8-9.6,22.35l-8.1,38.7h63.3Q171.6,101.1,187.65,90.15Z"/><path d="M196.54,144.75a95.11,95.11,0,0,0,19.35-23.55l33.3-55.8A139.68,139.68,0,0,0,256.84,51c2.49-5.4,3.75-9.9,3.75-13.5A19.14,19.14,0,0,0,254,22.8q-6.62-6-17.7-9.6l1.8-8.7h121.2l-2.1,8.7a49.38,49.38,0,0,0-18,5.85A41.22,41.22,0,0,0,325.54,30.9a25.12,25.12,0,0,0-5.25,15,81.85,81.85,0,0,0,1.5,16.2l10.8,58.8q2.7,15.9,9.45,24.15t22.65,13l-1.8,8.4h-85.8l1.8-8.4a59.84,59.84,0,0,0,18.3-6,33.45,33.45,0,0,0,12.15-10.65,25.5,25.5,0,0,0,4.35-14.55,96.28,96.28,0,0,0-.6-9.9h-75.9a53.19,53.19,0,0,0-3.6,8.85,26.11,26.11,0,0,0-1.2,7.35q0,10.5,4.65,16.05t15.15,9.15l-2.1,8.4h-82.5l2.1-8.4A66.38,66.38,0,0,0,196.54,144.75ZM188,196.8h145.2l-3.9,17.7H184.39ZM310.39,96.6a61.28,61.28,0,0,0-.9-7.5l-9.3-60h-10.8l-35.7,60q-2.41,4.2-6.9,11.4H311Z"/><path d="M369.18,194.85a54.06,54.06,0,0,0,15.75-16.2q6.15-9.75,9.15-24.45l19.5-90q4.2-19.5-2.7-31.8T386,13.5l1.8-9h121.8q29.1,0,45.75,12.45T572,52.8q0,20.7-9.6,35.7t-27.6,22.8q-18,7.8-43.2,7.8h-72L413,152.4q-4.8,21.3,2.1,33.6t27,19.8l-1.8,8.7h-96.9l1.8-8.7Q359.58,201.3,369.18,194.85ZM525,96.75a42.85,42.85,0,0,0,19.65-14.1q7.2-9.45,7.2-23.85,0-16.5-12.45-24.45t-33.75-8h-26.4q-13.8,0-22.95,3a30.56,30.56,0,0,0-15.15,11q-6,7.95-9.3,22.35l-8.1,38.7h72Q512.58,101.4,525,96.75ZM500,193.5a200.17,200.17,0,0,1-20.7-47.7l-8.7-30.6,16.8-.9,7.5,23.4q6.9,21.3,17.85,31.8A37,37,0,0,0,539.28,180a56.46,56.46,0,0,0,10.8-1.05,42.51,42.51,0,0,0,9.9-3.15l5.4,7.5L528.78,219Q513.18,215.4,500,193.5Z"/><path d="M617,206.7a83.83,83.83,0,0,1-34.2-35.1q-11.7-22.5-11.7-51.6a114.29,114.29,0,0,1,16.65-59.85A122.07,122.07,0,0,1,632.88,16.2Q661.38,0,696.18,0a105.61,105.61,0,0,1,32.7,5,81.38,81.38,0,0,1,26.7,14.25L768.78.3h9.6l4.8,70.5-12.3,3.3q-12-22.5-33.15-34.2T686.88,28.2a101.21,101.21,0,0,0-47.55,11.85,99.31,99.31,0,0,0-36.6,32.25,77.07,77.07,0,0,0-14,44.4q0,22.8,11.1,39.6t31,25.5q20,8.7,45.45,8.7A97,97,0,0,0,723,178.8a122,122,0,0,0,38-32.1l12,6.6q-15,31.2-41.85,48.6t-60.75,17.4Q639.48,219.3,617,206.7Z"/><path d="M839,212.4q-19.95-6.6-34-17.1l-12.9,19.2H784l-4.8-73.5,8.1-2.7a121.51,121.51,0,0,0,42.45,37.5q25,13.2,55.35,13.2a113.56,113.56,0,0,0,30.9-3.9q13.8-3.9,21.75-11.55a24.68,24.68,0,0,0,7.95-18.45,25.38,25.38,0,0,0-8.25-19.2,63.67,63.67,0,0,0-20.1-12.6,342.3,342.3,0,0,0-32.85-10.8,372.15,372.15,0,0,1-38.4-13A73.5,73.5,0,0,1,821,82.5q-10.35-10.8-10.35-27.3a43,43,0,0,1,11-29.1q10.95-12.6,29-19.35A108.46,108.46,0,0,1,889,0a125.5,125.5,0,0,1,35.55,4.65A96.52,96.52,0,0,1,951.38,16.8l12-16.8h8.1l7.2,66.6-8.7,3a102.65,102.65,0,0,0-36-29.85q-21.3-10.65-50.1-10.65a94.15,94.15,0,0,0-26.1,3.45q-12,3.45-19.2,10.05t-7.2,15.6q0,8.4,7.35,14.55A68.88,68.88,0,0,0,857.18,83.4q11.1,4.5,30.6,10.8,25.5,8.4,41.85,15.3a84.08,84.08,0,0,1,27.9,18.75q11.55,11.85,11.55,28.95,0,30.3-24.3,46.05T880.28,219A130.48,130.48,0,0,1,839,212.4Z"/><path class="cls-1" d="M621.85,99.07a6.66,6.66,0,0,0,1.34-2.88l1-4.8a4.56,4.56,0,0,0-.33-3.18,3.93,3.93,0,0,0-2.37-1.89l.21-1,5.88-2.55h.93l0,.09c-.52,1.32-.94,2.49-1.27,3.51a30.42,30.42,0,0,0-.86,3.3L625,96a4.3,4.3,0,0,0,.27,2.83,3.44,3.44,0,0,0,2,1.73L627,101.8h-8.28l.3-1.23A5.22,5.22,0,0,0,621.85,99.07Z"/><path class="cls-1" d="M633.44,101.48a6.65,6.65,0,0,1-2.47-2,5.82,5.82,0,0,1-1.13-2.64l.9-.54a7.1,7.1,0,0,0,2.78,2.08,9.1,9.1,0,0,0,7.26-.22,8.11,8.11,0,0,0,3-2.45,6.15,6.15,0,0,0,1.29-3.52,9.46,9.46,0,0,1-3.42,2.41,10.81,10.81,0,0,1-4.2.83,8.17,8.17,0,0,1-3.61-.75,5.71,5.71,0,0,1-2.39-2.07,5.41,5.41,0,0,1-.84-3,6,6,0,0,1,1.1-3.5,7.59,7.59,0,0,1,3-2.49,9,9,0,0,1,4-.91,8.73,8.73,0,0,1,4.11,1,7.87,7.87,0,0,1,3.08,2.87A8.07,8.07,0,0,1,647.09,91a11.8,11.8,0,0,1-1.41,5.7,10.92,10.92,0,0,1-3.72,4.09,9,9,0,0,1-5,1.49A8,8,0,0,1,633.44,101.48Zm8-8.77a10.47,10.47,0,0,0,3.48-2.37,5.74,5.74,0,0,0-2.28-3.14A7.18,7.18,0,0,0,638.33,86a9,9,0,0,0-3,.45,4.67,4.67,0,0,0-2.07,1.33,3.06,3.06,0,0,0-.77,2.06,3,3,0,0,0,.6,1.78,4.36,4.36,0,0,0,1.71,1.35,6.12,6.12,0,0,0,2.64.53A10.41,10.41,0,0,0,641.42,92.71Z"/><path class="cls-1" d="M650.84,101.59a6.29,6.29,0,0,1-2.67-1.83,4,4,0,0,1,.92-6A13,13,0,0,1,653.57,92a8.58,8.58,0,0,1-2.22-1.89,3.67,3.67,0,0,1-.78-2.34,3.93,3.93,0,0,1,1-2.73,6.27,6.27,0,0,1,2.59-1.7,9.17,9.17,0,0,1,3.09-.55,8.1,8.1,0,0,1,3.32.66,5.7,5.7,0,0,1,2.32,1.78,4.1,4.1,0,0,1,.84,2.51,3.78,3.78,0,0,1-.73,2.35,5.12,5.12,0,0,1-1.88,1.53,10.22,10.22,0,0,1-2.52.83,14.81,14.81,0,0,1,2.15,1.3,5.19,5.19,0,0,1,1.35,1.47,3.59,3.59,0,0,1,.49,1.88,4.15,4.15,0,0,1-1,2.85,6.26,6.26,0,0,1-2.85,1.75,13.35,13.35,0,0,1-4.1.59A10.51,10.51,0,0,1,650.84,101.59ZM658,98.8a4.28,4.28,0,0,0,1.74-.83,1.47,1.47,0,0,0,.6-1.09,1.74,1.74,0,0,0-.4-1.13,5.85,5.85,0,0,0-1.38-1.11c-.65-.41-1.6-.92-2.84-1.54a19.83,19.83,0,0,0-4.23,1.29q-1.62.75-1.62,2a1.82,1.82,0,0,0,.75,1.47,5.23,5.23,0,0,0,2,.91,11,11,0,0,0,2.71.32A10.56,10.56,0,0,0,658,98.8Zm2-8.66c1-.49,1.44-1.11,1.44-1.87a1.94,1.94,0,0,0-.61-1.44,3.87,3.87,0,0,0-1.7-.9,8.84,8.84,0,0,0-2.37-.3,6.19,6.19,0,0,0-2.89.63,1.89,1.89,0,0,0-1.22,1.68,2.22,2.22,0,0,0,.95,1.77,13.89,13.89,0,0,0,2.77,1.59A13.72,13.72,0,0,0,659.93,90.14Z"/><path class="cls-1" d="M673,98.9a6.52,6.52,0,0,0,1.61-3.43l1.68-8.19a5.1,5.1,0,0,0-.23-3.42,4.86,4.86,0,0,0-2.44-2.13l.21-.93h10.05l-.21.93A8.06,8.06,0,0,0,680,83.48,6.39,6.39,0,0,0,678.14,87l-1.47,7.17a4.16,4.16,0,0,0,.55,3.46,3.94,3.94,0,0,0,3.29,1.25h1.86a10.35,10.35,0,0,0,3-.42A11.08,11.08,0,0,0,688,97.31a13.55,13.55,0,0,0,2.36-1.84L691,96l-3.54,5.82H669.32l.21-.93A8.43,8.43,0,0,0,673,98.9Z"/><path class="cls-1" d="M691.82,101a4.78,4.78,0,0,1-.06-2.94l.72-3.06a7.07,7.07,0,0,0,.16-3,4,4,0,0,0-1.21-2l.15-.87,4.17-1.86h.84a40.29,40.29,0,0,0-2.19,7.17l-.51,2.37a2.63,2.63,0,0,0,.06,1.6,1,1,0,0,0,.93.62,1.83,1.83,0,0,0,1.47-1l.54.42a7.41,7.41,0,0,1-1.31,2.62,2.46,2.46,0,0,1-1.93,1.07A1.81,1.81,0,0,1,691.82,101ZM694.4,83.9a1.92,1.92,0,0,1-.48-1.3,2.23,2.23,0,0,1,.66-1.55,2,2,0,0,1,1.53-.7,1.8,1.8,0,0,1,1.38.51,1.93,1.93,0,0,1,.48,1.38,2.06,2.06,0,0,1-.69,1.57,2.34,2.34,0,0,1-1.65.65A1.56,1.56,0,0,1,694.4,83.9Z"/><path class="cls-1" d="M699.62,100.9a5,5,0,0,1-.24-3.21l1-4.35a6.16,6.16,0,0,0-.06-3.36,2.24,2.24,0,0,0-2-1.38l.18-.9a5.92,5.92,0,0,0,2.14-.69,6.14,6.14,0,0,0,1.8-1.58,11,11,0,0,0,1.49-2.59h.9l-1,4.86h4.14l-.21.9A7.43,7.43,0,0,0,704,90.07a5.43,5.43,0,0,0-1.93,3.24l-.69,3.33a2.7,2.7,0,0,0,.12,2,1.57,1.57,0,0,0,1.5.75,2,2,0,0,0,1.3-.5,3.45,3.45,0,0,0,.92-1.21l.81.36a7.74,7.74,0,0,1-1.61,3.15,3.17,3.17,0,0,1-2.41,1.08A2.42,2.42,0,0,1,699.62,100.9Z"/><path class="cls-1" d="M709,100.9a5,5,0,0,1-.24-3.21l1-4.35a6.16,6.16,0,0,0-.06-3.36,2.24,2.24,0,0,0-2-1.38l.18-.9A5.92,5.92,0,0,0,710,87a6.14,6.14,0,0,0,1.8-1.58,11,11,0,0,0,1.49-2.59h.9l-1,4.86h4.14l-.21.9a7.43,7.43,0,0,0-3.65,1.47,5.43,5.43,0,0,0-1.93,3.24l-.69,3.33a2.7,2.7,0,0,0,.12,2,1.57,1.57,0,0,0,1.5.75,2,2,0,0,0,1.3-.5,3.45,3.45,0,0,0,.92-1.21l.81.36a7.74,7.74,0,0,1-1.61,3.15,3.17,3.17,0,0,1-2.41,1.08A2.42,2.42,0,0,1,709,100.9Z"/><path class="cls-1" d="M717.56,101.05a5.3,5.3,0,0,1,0-2.94l2.25-10.59a10.25,10.25,0,0,0,.25-3.47,3.38,3.38,0,0,0-1.18-2.17L719,81l4.08-1.86H724q-.15.42-.27.81a32.4,32.4,0,0,0-1.1,3.1c-.29,1-.57,2.13-.85,3.41L719.6,96.79a2.68,2.68,0,0,0,.06,1.62.92.92,0,0,0,.9.6,1.4,1.4,0,0,0,.84-.29,2.45,2.45,0,0,0,.66-.73l.57.45a7.41,7.41,0,0,1-1.31,2.62,2.53,2.53,0,0,1-2,1.07A1.68,1.68,0,0,1,717.56,101.05Z"/><path class="cls-1" d="M726.62,101.41a5.75,5.75,0,0,1-2.3-2.31,6.76,6.76,0,0,1-.79-3.27,8.45,8.45,0,0,1,1.11-4.22,8.83,8.83,0,0,1,3-3.16,7.47,7.47,0,0,1,4.08-1.2,6.38,6.38,0,0,1,3.22.79,5.69,5.69,0,0,1,2.19,2.24,7.66,7.66,0,0,1,.89,3.39l-.42.6L725,96.79l-.12-1.74,11-2.22a4,4,0,0,0-1.77-1.89,6,6,0,0,0-3.09-.78,6.28,6.28,0,0,0-2.85.64,5.31,5.31,0,0,0-2.06,1.77,4.42,4.42,0,0,0-.76,2.54,3.91,3.91,0,0,0,.75,2.43,4.37,4.37,0,0,0,2,1.45,7.16,7.16,0,0,0,2.61.47,7.79,7.79,0,0,0,3-.57,7.92,7.92,0,0,0,2.6-1.77l.6.45a7.89,7.89,0,0,1-2.85,3.51,7.12,7.12,0,0,1-4,1.17A6.94,6.94,0,0,1,726.62,101.41Z"/><path class="cls-1" d="M621,131a8.69,8.69,0,0,1-3.51-3.47,10.5,10.5,0,0,1-1.24-5.2,11.22,11.22,0,0,1,1.68-5.94,12.53,12.53,0,0,1,4.56-4.41,12.28,12.28,0,0,1,6.21-1.65,11.08,11.08,0,0,1,3.42.49,8.46,8.46,0,0,1,2.64,1.37l1.38-1.86h1l.54,7.23-1.32.3a8.4,8.4,0,0,0-3.41-3.29,11.13,11.13,0,0,0-5.11-1.06,10.41,10.41,0,0,0-4.77,1.14,9.7,9.7,0,0,0-3.62,3.07A7.17,7.17,0,0,0,618.1,122a6.3,6.3,0,0,0,1.17,3.84,7.26,7.26,0,0,0,3.18,2.41A11.92,11.92,0,0,0,627,129a9.82,9.82,0,0,0,4.56-1.08,13.31,13.31,0,0,0,3.84-3l1.23.66a11.23,11.23,0,0,1-4.11,4.92A12,12,0,0,1,621,131Z"/><path class="cls-1" d="M640.72,131.42a6.3,6.3,0,0,1-3.33-5.65,9,9,0,0,1,1.06-4.38,7.84,7.84,0,0,1,2.91-3,7.94,7.94,0,0,1,4.13-1.09,7.42,7.42,0,0,1,3.55.84,6,6,0,0,1,2.43,2.34,6.73,6.73,0,0,1,.86,3.39,8.42,8.42,0,0,1-1.14,4.36,8.06,8.06,0,0,1-3.05,3,8.19,8.19,0,0,1-4.06,1.07A7,7,0,0,1,640.72,131.42Zm6.69-2.71a5.53,5.53,0,0,0,2.22-1.79,4.43,4.43,0,0,0,.84-2.68,3.3,3.3,0,0,0-.74-2.1,4.92,4.92,0,0,0-1.93-1.46,6.44,6.44,0,0,0-2.61-.52,6.8,6.8,0,0,0-3,.64,5.54,5.54,0,0,0-2.18,1.82,4.47,4.47,0,0,0-.82,2.64,3.42,3.42,0,0,0,.73,2.19,4.56,4.56,0,0,0,1.95,1.41,7.11,7.11,0,0,0,2.63.48A6.86,6.86,0,0,0,647.41,128.71Z"/><path class="cls-1" d="M654.49,131.05a5.3,5.3,0,0,1,0-2.94l2.25-10.59a10.25,10.25,0,0,0,.25-3.47,3.38,3.38,0,0,0-1.18-2.17L656,111l4.08-1.86h.87q-.15.42-.27.81a32.4,32.4,0,0,0-1.1,3.1c-.29,1-.57,2.13-.85,3.41l-2.16,10.32a2.68,2.68,0,0,0,.06,1.62.92.92,0,0,0,.9.6,1.4,1.4,0,0,0,.84-.29A2.45,2.45,0,0,0,659,128l.57.45a7.41,7.41,0,0,1-1.31,2.62,2.53,2.53,0,0,1-2,1.07A1.68,1.68,0,0,1,654.49,131.05Z"/><path class="cls-1" d="M661.51,131.05a5.3,5.3,0,0,1,0-2.94l2.25-10.59a10.25,10.25,0,0,0,.25-3.47,3.38,3.38,0,0,0-1.18-2.17L663,111l4.08-1.86h.87q-.15.42-.27.81a32.4,32.4,0,0,0-1.1,3.1c-.29,1-.57,2.13-.85,3.41l-2.16,10.32a2.68,2.68,0,0,0,.06,1.62.92.92,0,0,0,.9.6,1.4,1.4,0,0,0,.84-.29A2.45,2.45,0,0,0,666,128l.57.45a7.41,7.41,0,0,1-1.31,2.62,2.53,2.53,0,0,1-2,1.07A1.68,1.68,0,0,1,661.51,131.05Z"/><path class="cls-1" d="M668.53,131a4.78,4.78,0,0,1-.06-2.94l.72-3.06a7.07,7.07,0,0,0,.16-3,4,4,0,0,0-1.21-2l.15-.87,4.17-1.86h.84a40.29,40.29,0,0,0-2.19,7.17l-.51,2.37a2.63,2.63,0,0,0,.06,1.6,1,1,0,0,0,.93.62,1.83,1.83,0,0,0,1.47-1l.54.42a7.41,7.41,0,0,1-1.31,2.62,2.46,2.46,0,0,1-1.93,1.07A1.81,1.81,0,0,1,668.53,131Zm2.58-17.12a1.92,1.92,0,0,1-.48-1.3,2.23,2.23,0,0,1,.66-1.55,2,2,0,0,1,1.53-.7,1.8,1.8,0,0,1,1.38.51,1.93,1.93,0,0,1,.48,1.38,2.06,2.06,0,0,1-.69,1.57,2.34,2.34,0,0,1-1.65.65A1.56,1.56,0,0,1,671.11,113.9Z"/><path class="cls-1" d="M675.64,129.29a7.34,7.34,0,0,0,1.17-2.89l.3-1.38a5.88,5.88,0,0,0,0-3.06,4.38,4.38,0,0,0-1.45-2l.18-.87,4.17-1.83h.9q-.24.6-.6,1.74t-.6,2l-1.08,5a5.38,5.38,0,0,0,0,3.09,3.61,3.61,0,0,0,1.82,1.86l-.21.87H673l.21-.87A5.54,5.54,0,0,0,675.64,129.29Zm11.43,2.3a2.49,2.49,0,0,1-.6-1.74,6.36,6.36,0,0,1,.21-1.53q.21-.84.66-2.34a15.71,15.71,0,0,0,.49-1.89,8.46,8.46,0,0,0,.14-1.5,2.47,2.47,0,0,0-.68-1.8,2.7,2.7,0,0,0-2-.69,8.76,8.76,0,0,0-3.12.7,11.5,11.5,0,0,0-3.09,1.76l.51-2.1a14.57,14.57,0,0,1,3.49-2.37,8,8,0,0,1,3.41-.84,3.52,3.52,0,0,1,2.68,1,3.47,3.47,0,0,1,1,2.49,10.34,10.34,0,0,1-.14,1.56c-.09.58-.19,1.13-.31,1.65l-.57,2.58a7.09,7.09,0,0,0-.15,1.29,1.87,1.87,0,0,0,.3,1.09.94.94,0,0,0,.81.44,1.13,1.13,0,0,0,.84-.38,4.35,4.35,0,0,0,.69-1l.51.39a6.24,6.24,0,0,1-1.28,2.82,2.68,2.68,0,0,1-2.08,1.08A2.12,2.12,0,0,1,687.07,131.59Z"/><path class="cls-1" d="M697,131.81a11.17,11.17,0,0,1-2.34-1.18l-.78,1.17H693l-.15-5,.93-.39a7.24,7.24,0,0,0,2.67,2.32,7.59,7.59,0,0,0,3.54.86,6.74,6.74,0,0,0,2.64-.42,1.42,1.42,0,0,0,1-1.38,1.56,1.56,0,0,0-1-1.41,14.11,14.11,0,0,0-2.94-1,15.37,15.37,0,0,1-2.6-.83,4.62,4.62,0,0,1-1.72-1.24,2.87,2.87,0,0,1-.66-1.92,3.29,3.29,0,0,1,.75-2.09,5.13,5.13,0,0,1,2-1.5,7,7,0,0,1,2.81-.55,8.86,8.86,0,0,1,2.35.28,5.58,5.58,0,0,1,1.79.83l.75-1.11h.84l.57,4.74-.87.36a7.4,7.4,0,0,0-2.42-1.8,7.31,7.31,0,0,0-3.1-.63,4.93,4.93,0,0,0-2.37.48,1.43,1.43,0,0,0-.87,1.26,1.17,1.17,0,0,0,.42.91,3.06,3.06,0,0,0,1.14.6c.48.15,1.14.33,2,.53a17.51,17.51,0,0,1,2.76.84,5.16,5.16,0,0,1,1.93,1.33,3,3,0,0,1,.77,2.06,3.69,3.69,0,0,1-1.64,3.13,7.16,7.16,0,0,1-4.3,1.19A8.78,8.78,0,0,1,697,131.81Z"/><path class="cls-1" d="M720,131.6a12.6,12.6,0,0,1-3.47-1.69l-1.32,1.89h-.87l-.45-7.53.81-.3a11.63,11.63,0,0,0,9.81,4.92,11.68,11.68,0,0,0,3.06-.36,4.73,4.73,0,0,0,2.07-1.08,2.36,2.36,0,0,0,.75-1.77,2.41,2.41,0,0,0-.79-1.85,5.89,5.89,0,0,0-2-1.17c-.77-.29-1.85-.64-3.23-1.06q-2.4-.69-3.84-1.26a6.69,6.69,0,0,1-2.44-1.64,3.79,3.79,0,0,1-1-2.71,4.46,4.46,0,0,1,1.11-3,7,7,0,0,1,2.94-2,11.18,11.18,0,0,1,3.9-.67,12.66,12.66,0,0,1,3.53.45,10.47,10.47,0,0,1,2.68,1.17l1.17-1.62h.81l.81,6.75-.87.33a9.91,9.91,0,0,0-3.64-2.85,12,12,0,0,0-5-1A9.61,9.61,0,0,0,722,114a4.67,4.67,0,0,0-1.88.94,1.87,1.87,0,0,0-.69,1.43,1.76,1.76,0,0,0,.71,1.35,6,6,0,0,0,1.75,1c.7.27,1.7.62,3,1a36.06,36.06,0,0,1,4.22,1.51,9.32,9.32,0,0,1,2.8,1.91,4,4,0,0,1,1.17,2.91,5.17,5.17,0,0,1-2.44,4.62,12,12,0,0,1-6.59,1.59A13,13,0,0,1,720,131.6Z"/><path class="cls-1" d="M735.84,130.9a5,5,0,0,1-.24-3.21l1-4.35a6.16,6.16,0,0,0-.06-3.36,2.24,2.24,0,0,0-2-1.38l.18-.9a6,6,0,0,0,2.15-.69,6.14,6.14,0,0,0,1.8-1.58,11,11,0,0,0,1.48-2.59h.9l-1,4.86h4.14l-.21.9a7.39,7.39,0,0,0-3.64,1.47,5.44,5.44,0,0,0-1.94,3.24l-.69,3.33a2.7,2.7,0,0,0,.12,2,1.57,1.57,0,0,0,1.5.75,2,2,0,0,0,1.31-.5,3.42,3.42,0,0,0,.91-1.21l.81.36a7.74,7.74,0,0,1-1.6,3.15,3.19,3.19,0,0,1-2.42,1.08A2.42,2.42,0,0,1,735.84,130.9Z"/></g></g></svg>