<svg width="64" height="56" viewBox="0 0 64 56" fill="none" xmlns="http://www.w3.org/2000/svg">
<g clip-path="url(#clip0_130_1461)">
<path d="M14.3733 33.7561C15.3402 32.918 16.1632 31.9314 16.8104 30.8346L21.0045 23.9121C21.3612 23.3359 21.683 22.7394 21.9681 22.1257C22.2829 21.4557 22.4404 20.8975 22.4404 20.4509C22.445 20.1056 22.373 19.7635 22.2294 19.4485C22.0858 19.1335 21.8741 18.8532 21.6091 18.6272C21.0549 18.131 20.3118 17.734 19.3798 17.4362L19.6065 16.3569H34.8716L34.6071 17.4362C33.811 17.5319 33.0411 17.7784 32.34 18.162C31.6638 18.521 31.0767 19.0231 30.6208 19.6321C30.2017 20.1655 29.9697 20.8185 29.9596 21.493C29.9546 22.1674 30.0179 22.8406 30.1485 23.5027L31.5087 30.7973C31.7354 32.1124 32.1322 33.111 32.699 33.7934C33.2657 34.4757 34.2167 35.0133 35.5517 35.4061L35.325 36.4482H24.5185L24.7452 35.4061C25.5494 35.2826 26.3278 35.0312 27.0501 34.6618C27.6624 34.3515 28.1879 33.8978 28.5804 33.3405C28.9454 32.8079 29.1366 32.1781 29.1283 31.5355C29.1245 31.1251 29.0993 30.7152 29.0527 30.3073H19.4931C19.31 30.6596 19.1582 31.027 19.0397 31.4052C18.9454 31.7005 18.8945 32.0076 18.8886 32.3171C18.8886 33.1855 19.0838 33.8471 19.4743 34.302C19.8647 34.7569 20.5007 35.1353 21.3824 35.4371L21.1179 36.4792H10.7271L10.9915 35.4371C12.2345 35.139 13.3915 34.5639 14.3733 33.7561V33.7561ZM13.2964 40.2134H31.5843L31.0931 42.4092H12.843L13.2964 40.2134ZM28.7127 27.7827C28.695 27.4705 28.6571 27.1597 28.5993 26.8523L27.428 19.4088H26.0677L21.5713 26.8523C21.3698 27.1996 21.0801 27.6711 20.7023 28.2666H28.7882L28.7127 27.7827Z" fill="#E6E6E6"/>
<path d="M32.5415 53.0042C33.3391 52.4794 34.0151 51.7945 34.5252 50.9944C35.0399 50.1881 35.4241 49.177 35.6776 47.9612L38.1337 36.7959C38.4863 35.1832 38.373 33.8682 37.7936 32.8509C37.2142 31.8336 36.1688 31.052 34.6574 30.5062L34.8842 29.3896H50.2248C52.6666 29.3896 54.5873 29.9045 55.987 30.9342C57.3867 31.9639 58.0858 33.4464 58.0841 35.3817C58.0841 37.0937 57.681 38.57 56.875 39.8106C56.0689 41.0511 54.9101 41.994 53.3988 42.6391C51.8874 43.2842 50.0737 43.6068 47.9577 43.6068H38.8894L38.0581 47.7379C37.655 49.4995 37.7432 50.889 38.3226 51.9063C38.9019 52.9235 40.0355 53.7423 41.7232 54.3626L41.4965 55.4419H29.292L29.5187 54.3626C30.7278 53.9905 31.7354 53.5376 32.5415 53.0042ZM52.1707 40.834C53.149 40.4968 54.0081 39.8896 54.6457 39.0848C55.2502 38.3032 55.5525 37.317 55.5525 36.126C55.5525 34.7614 55.0298 33.7503 53.9844 33.0928C52.939 32.4353 51.5221 32.1065 49.7336 32.1065H46.4085C45.2498 32.1065 44.2842 32.2306 43.5117 32.4787C42.7471 32.7238 42.0797 33.1989 41.6036 33.8371C41.0998 34.4988 40.7093 35.423 40.4322 36.6099L39.412 41.4109H48.4804C49.8952 41.4109 51.1254 41.2186 52.1707 40.834V40.834ZM49.0157 52.8367C47.8881 50.9847 47.0116 48.9953 46.4085 46.9191L45.3128 43.1229L47.4287 43.0113L48.3734 45.9142C48.9527 47.6759 49.7021 48.9909 50.6216 49.8593C51.0636 50.2838 51.5868 50.6175 52.1608 50.8411C52.7349 51.0647 53.3483 51.1738 53.9655 51.1619C54.4221 51.1616 54.8777 51.118 55.3258 51.0317C55.7561 50.9521 56.1748 50.8209 56.5727 50.6409L57.2528 51.5713L52.6431 56.0002C51.3332 55.7025 50.1241 54.648 49.0157 52.8367Z" fill="#E6E6E6"/>
<path d="M42.5671 25.9718C40.723 24.9754 39.223 23.4591 38.2596 21.6174C37.2772 19.7565 36.786 17.6248 36.786 15.2222C36.7756 12.6039 37.5015 10.034 38.8831 7.79725C40.2607 5.51867 42.2216 3.63637 44.5697 2.33868C46.9627 0.998847 49.6203 0.328933 52.5423 0.328933C53.9394 0.319314 55.3293 0.526549 56.6609 0.943021C57.8842 1.32 59.0248 1.91965 60.0237 2.71085L61.6862 0.366149H62.8954L63.4999 9.11227L61.9507 9.52167C60.9432 7.66079 59.5514 6.24652 57.7755 5.27887C55.9996 4.31121 53.8648 3.82738 51.371 3.82738C49.2826 3.82679 47.226 4.33162 45.3821 5.29748C43.5317 6.23286 41.9473 7.60797 40.7723 9.29836C39.6221 10.9115 39.0063 12.8354 39.009 14.8066C39.009 16.6922 39.475 18.3298 40.4071 19.7193C41.3391 21.1087 42.6406 22.1632 44.3115 22.8828C45.9908 23.6023 47.899 23.9621 50.0359 23.9621C52.0871 23.9718 54.1077 23.4726 55.9115 22.5106C57.7675 21.521 59.3968 20.1654 60.6975 18.5283L62.2089 19.3471C60.9494 21.9275 59.1924 23.9373 56.9379 25.3763C54.6834 26.8154 52.133 27.535 49.2865 27.535C46.6961 27.535 44.4563 27.0139 42.5671 25.9718Z" fill="#E6E6E6"/>
<path d="M47.9793 19.0155C47.3354 18.8197 46.7261 18.5268 46.1732 18.1471L45.4855 19.1173H45.0321L44.7979 15.2528L45.2248 15.0978C45.7986 15.9018 46.5657 16.5533 47.4576 16.9939C48.3496 17.4344 49.3385 17.6504 50.3359 17.6223C50.8733 17.6302 51.4095 17.568 51.9304 17.4375C52.3317 17.3447 52.7029 17.154 53.0098 16.883C53.1359 16.767 53.2358 16.6263 53.3031 16.4698C53.3704 16.3134 53.4035 16.1447 53.4002 15.9749C53.4041 15.797 53.3691 15.6205 53.2976 15.4572C53.2261 15.2939 53.1198 15.1476 52.9858 15.0283C52.69 14.7648 52.3447 14.5608 51.9694 14.4278C51.5689 14.279 51.0088 14.0966 50.2893 13.8807C49.4555 13.645 48.7888 13.4296 48.2892 13.2344C47.8061 13.0514 47.3707 12.7644 47.0146 12.3945C46.6582 12.0182 46.4676 11.5182 46.4843 11.0038C46.4745 10.435 46.6812 9.88312 47.0637 9.45682C47.4796 9.00042 48.0067 8.65588 48.5952 8.45567C49.2461 8.22218 49.9341 8.10497 50.6268 8.10955C51.2469 8.10082 51.8651 8.1785 52.4631 8.34029C52.9557 8.47532 53.4267 8.67742 53.8624 8.94074L54.472 8.10955H54.894L55.3159 11.5745L54.8625 11.7432C54.3554 11.1154 53.7051 10.6143 52.9644 10.2806C52.2289 9.94975 51.3611 9.78434 50.3611 9.78434C49.9049 9.7798 49.4502 9.83657 49.0096 9.95305C48.6508 10.04 48.3167 10.2059 48.0322 10.4381C47.9215 10.5267 47.8319 10.6382 47.7699 10.7647C47.7079 10.8912 47.6749 11.0296 47.6733 11.1701C47.6775 11.3052 47.7126 11.4377 47.7761 11.5575C47.8395 11.6774 47.9297 11.7816 48.0398 11.8623C48.3131 12.0836 48.6222 12.2581 48.9542 12.3784C49.3194 12.5173 49.8405 12.6943 50.5172 12.9094C51.2651 13.1235 51.9987 13.3833 52.7138 13.6872C53.2575 13.9222 53.7527 14.2535 54.1748 14.6648C54.374 14.859 54.5307 15.0912 54.6356 15.3472C54.7404 15.6032 54.791 15.8775 54.7844 16.1535C54.7844 17.1906 54.36 17.9809 53.5111 18.5243C52.6622 19.0676 51.5185 19.3397 50.0802 19.3406C49.3669 19.3416 48.6579 19.2319 47.9793 19.0155V19.0155Z" fill="#E6E6E6"/>
<path d="M3.69282 23.5216C4.46403 23.0001 5.11435 22.3236 5.60096 21.5367C6.07957 20.7551 6.45742 19.7689 6.7345 18.5779L9.11495 7.37542C9.36685 6.30852 9.41723 5.39048 9.26609 4.62132C9.12104 3.86374 8.75314 3.16487 8.20811 2.61158C7.65393 2.04091 6.87305 1.53227 5.86545 1.08565L6.05437 0.00634766H21.1683C23.511 0.00634766 25.3498 0.589423 26.6849 1.75557C28.02 2.92172 28.6875 4.50967 28.6875 6.51942C28.6875 8.92615 27.7744 10.818 25.9481 12.1951C24.1218 13.5721 21.5462 14.2586 18.2211 14.2545H9.87064L9.0016 18.3484C8.7497 19.4897 8.69932 20.4574 8.85046 21.2514C9.00494 22.0515 9.41541 22.7818 10.0218 23.3355C10.6515 23.931 11.5458 24.4769 12.7045 24.9731L12.5156 26.0524H0.5L0.688924 24.9731C1.89804 24.5513 2.89934 24.0675 3.69282 23.5216ZM24.1344 10.632C25.4821 9.7222 26.1559 8.42372 26.1559 6.73652C26.1559 5.4215 25.6584 4.42283 24.6634 3.74051C23.6684 3.05819 22.2893 2.71703 20.526 2.71703H17.4276C16.2689 2.71703 15.3054 2.83488 14.5371 3.07059C13.764 3.30948 13.0845 3.77735 12.5912 4.41042C12.0622 5.06793 11.6591 5.99217 11.382 7.18313L10.3619 11.9842H18.3345C20.8535 11.9842 22.7868 11.5334 24.1344 10.632Z" fill="#E6E6E6"/>
</g>
<defs>
<clipPath id="clip0_130_1461">
<rect width="63" height="56" fill="white" transform="translate(0.5)"/>
</clipPath>
</defs>
</svg>
